%TF.GenerationSoftware,KiCad,Pcbnew,8.0.8*%
%TF.CreationDate,2026-08-24T01:57:58-04:00*%
%TF.ProjectId,board,626f6172-642e-46b6-9963-61645f706362,1.0*%
%TF.SameCoordinates,Original*%
%TF.FileFunction,Profile,NP*%
%FSLAX46Y46*%
G04 Gerber Fmt 4.6, Leading zero omitted, Abs format (unit mm)*
G04 Created by KiCad (PCBNEW 8.0.8) date 2026-08-24 01:57:58*
%MOMM*%
%LPD*%
G01*
G04 APERTURE LIST*
%TA.AperFunction,Profile*%
%ADD10C,0.050000*%
%TD*%
%TA.AperFunction,Profile*%
%ADD11C,0.120000*%
%TD*%
G04 APERTURE END LIST*
D10*
X154600000Y-101500000D02*
G75*
G02*
X152400000Y-101500000I-1100000J0D01*
G01*
X152400000Y-101500000D02*
G75*
G02*
X154600000Y-101500000I1100000J0D01*
G01*
X100000000Y-128500000D02*
X100000000Y-51500000D01*
X154600000Y-52500000D02*
G75*
G02*
X152400000Y-52500000I-1100000J0D01*
G01*
X152400000Y-52500000D02*
G75*
G02*
X154600000Y-52500000I1100000J0D01*
G01*
X101500000Y-130000000D02*
X154500000Y-130000000D01*
X103610000Y-52500000D02*
G75*
G02*
X101410000Y-52500000I-1100000J0D01*
G01*
X101410000Y-52500000D02*
G75*
G02*
X103610000Y-52500000I1100000J0D01*
G01*
X156000000Y-51500000D02*
X156000000Y-128500000D01*
X103610000Y-127500000D02*
G75*
G02*
X101410000Y-127500000I-1100000J0D01*
G01*
X101410000Y-127500000D02*
G75*
G02*
X103610000Y-127500000I1100000J0D01*
G01*
X103610000Y-71500000D02*
G75*
G02*
X101410000Y-71500000I-1100000J0D01*
G01*
X101410000Y-71500000D02*
G75*
G02*
X103610000Y-71500000I1100000J0D01*
G01*
X154600000Y-127500000D02*
G75*
G02*
X152400000Y-127500000I-1100000J0D01*
G01*
X152400000Y-127500000D02*
G75*
G02*
X154600000Y-127500000I1100000J0D01*
G01*
X103610000Y-101500000D02*
G75*
G02*
X101410000Y-101500000I-1100000J0D01*
G01*
X101410000Y-101500000D02*
G75*
G02*
X103610000Y-101500000I1100000J0D01*
G01*
X100000000Y-51500000D02*
G75*
G02*
X101500000Y-50000000I1500000J0D01*
G01*
X101500000Y-50000000D02*
X154500000Y-50000000D01*
X101500000Y-130000000D02*
G75*
G02*
X100000000Y-128500000I0J1500000D01*
G01*
X154500000Y-50000000D02*
G75*
G02*
X156000000Y-51500000I0J-1500000D01*
G01*
X156000000Y-128500000D02*
G75*
G02*
X154500000Y-130000000I-1500000J0D01*
G01*
X154600000Y-71500000D02*
G75*
G02*
X152400000Y-71500000I-1100000J0D01*
G01*
X152400000Y-71500000D02*
G75*
G02*
X154600000Y-71500000I1100000J0D01*
G01*
D11*
%TO.C,J11*%
X103510000Y-71500000D02*
G75*
G02*
X101510000Y-71500000I-1000000J0D01*
G01*
X101510000Y-71500000D02*
G75*
G02*
X103510000Y-71500000I1000000J0D01*
G01*
X103510000Y-101500000D02*
G75*
G02*
X101510000Y-101500000I-1000000J0D01*
G01*
X101510000Y-101500000D02*
G75*
G02*
X103510000Y-101500000I1000000J0D01*
G01*
X154500000Y-71500000D02*
G75*
G02*
X152500000Y-71500000I-1000000J0D01*
G01*
X152500000Y-71500000D02*
G75*
G02*
X154500000Y-71500000I1000000J0D01*
G01*
X154500000Y-101500000D02*
G75*
G02*
X152500000Y-101500000I-1000000J0D01*
G01*
X152500000Y-101500000D02*
G75*
G02*
X154500000Y-101500000I1000000J0D01*
G01*
%TD*%
M02*
