%TF.GenerationSoftware,KiCad,Pcbnew,8.0.8*%
%TF.CreationDate,2026-08-24T01:57:58-04:00*%
%TF.ProjectId,board,626f6172-642e-46b6-9963-61645f706362,1.0*%
%TF.SameCoordinates,Original*%
%TF.FileFunction,Soldermask,Bot*%
%TF.FilePolarity,Negative*%
%FSLAX46Y46*%
G04 Gerber Fmt 4.6, Leading zero omitted, Abs format (unit mm)*
G04 Created by KiCad (PCBNEW 8.0.8) date 2026-08-24 01:57:58*
%MOMM*%
%LPD*%
G01*
G04 APERTURE LIST*
G04 Aperture macros list*
%AMRoundRect*
0 Rectangle with rounded corners*
0 $1 Rounding radius*
0 $2 $3 $4 $5 $6 $7 $8 $9 X,Y pos of 4 corners*
0 Add a 4 corners polygon primitive as box body*
4,1,4,$2,$3,$4,$5,$6,$7,$8,$9,$2,$3,0*
0 Add four circle primitives for the rounded corners*
1,1,$1+$1,$2,$3*
1,1,$1+$1,$4,$5*
1,1,$1+$1,$6,$7*
1,1,$1+$1,$8,$9*
0 Add four rect primitives between the rounded corners*
20,1,$1+$1,$2,$3,$4,$5,0*
20,1,$1+$1,$4,$5,$6,$7,0*
20,1,$1+$1,$6,$7,$8,$9,0*
20,1,$1+$1,$8,$9,$2,$3,0*%
G04 Aperture macros list end*
%ADD10R,1.700000X1.700000*%
%ADD11R,2.000000X2.000000*%
%ADD12C,2.000000*%
%ADD13R,3.200000X2.000000*%
%ADD14C,1.700000*%
%ADD15C,4.000000*%
%ADD16C,2.200000*%
%ADD17O,1.700000X1.700000*%
%ADD18RoundRect,0.200000X0.800000X-0.200000X0.800000X0.200000X-0.800000X0.200000X-0.800000X-0.200000X0*%
%ADD19RoundRect,0.140000X0.140000X0.170000X-0.140000X0.170000X-0.140000X-0.170000X0.140000X-0.170000X0*%
%ADD20RoundRect,0.135000X0.135000X0.185000X-0.135000X0.185000X-0.135000X-0.185000X0.135000X-0.185000X0*%
%ADD21RoundRect,0.218750X0.256250X-0.218750X0.256250X0.218750X-0.256250X0.218750X-0.256250X-0.218750X0*%
%ADD22RoundRect,0.140000X-0.170000X0.140000X-0.170000X-0.140000X0.170000X-0.140000X0.170000X0.140000X0*%
%ADD23C,1.000000*%
%ADD24RoundRect,0.140000X-0.140000X-0.170000X0.140000X-0.170000X0.140000X0.170000X-0.140000X0.170000X0*%
%ADD25RoundRect,0.135000X-0.185000X0.135000X-0.185000X-0.135000X0.185000X-0.135000X0.185000X0.135000X0*%
%ADD26RoundRect,0.375000X-0.375000X0.625000X-0.375000X-0.625000X0.375000X-0.625000X0.375000X0.625000X0*%
%ADD27RoundRect,0.500000X-1.400000X0.500000X-1.400000X-0.500000X1.400000X-0.500000X1.400000X0.500000X0*%
%ADD28RoundRect,0.135000X-0.135000X-0.185000X0.135000X-0.185000X0.135000X0.185000X-0.135000X0.185000X0*%
%ADD29RoundRect,0.140000X0.170000X-0.140000X0.170000X0.140000X-0.170000X0.140000X-0.170000X-0.140000X0*%
%ADD30RoundRect,0.218750X-0.218750X-0.256250X0.218750X-0.256250X0.218750X0.256250X-0.218750X0.256250X0*%
%ADD31RoundRect,0.250000X0.650000X-1.000000X0.650000X1.000000X-0.650000X1.000000X-0.650000X-1.000000X0*%
%ADD32RoundRect,0.135000X0.185000X-0.135000X0.185000X0.135000X-0.185000X0.135000X-0.185000X-0.135000X0*%
%ADD33RoundRect,0.062500X0.387500X0.062500X-0.387500X0.062500X-0.387500X-0.062500X0.387500X-0.062500X0*%
%ADD34R,0.200000X1.600000*%
%ADD35R,0.900000X1.500000*%
%ADD36C,0.650000*%
%ADD37R,0.600000X1.450000*%
%ADD38R,0.300000X1.450000*%
%ADD39O,1.000000X1.600000*%
%ADD40O,1.000000X2.100000*%
%ADD41RoundRect,0.062500X-0.062500X0.375000X-0.062500X-0.375000X0.062500X-0.375000X0.062500X0.375000X0*%
%ADD42RoundRect,0.062500X-0.375000X0.062500X-0.375000X-0.062500X0.375000X-0.062500X0.375000X0.062500X0*%
%ADD43R,1.600000X1.600000*%
%ADD44RoundRect,0.100000X0.100000X-0.637500X0.100000X0.637500X-0.100000X0.637500X-0.100000X-0.637500X0*%
%ADD45RoundRect,0.050000X0.387500X0.050000X-0.387500X0.050000X-0.387500X-0.050000X0.387500X-0.050000X0*%
%ADD46RoundRect,0.050000X0.050000X0.387500X-0.050000X0.387500X-0.050000X-0.387500X0.050000X-0.387500X0*%
%ADD47R,3.200000X3.200000*%
%ADD48RoundRect,0.200000X0.200000X0.800000X-0.200000X0.800000X-0.200000X-0.800000X0.200000X-0.800000X0*%
%ADD49RoundRect,0.150000X-0.512500X-0.150000X0.512500X-0.150000X0.512500X0.150000X-0.512500X0.150000X0*%
%ADD50RoundRect,0.225000X0.225000X0.250000X-0.225000X0.250000X-0.225000X-0.250000X0.225000X-0.250000X0*%
%ADD51R,1.400000X1.200000*%
%ADD52RoundRect,0.225000X-0.250000X0.225000X-0.250000X-0.225000X0.250000X-0.225000X0.250000X0.225000X0*%
%ADD53RoundRect,0.225000X-0.225000X-0.250000X0.225000X-0.250000X0.225000X0.250000X-0.225000X0.250000X0*%
G04 APERTURE END LIST*
D10*
%TO.C,J8*%
X127250000Y-100500000D03*
%TD*%
D11*
%TO.C,SW6*%
X154250000Y-64000000D03*
D12*
X154250000Y-59000000D03*
X154250000Y-61500000D03*
D13*
X146750000Y-67100000D03*
X146750000Y-55900000D03*
D12*
X139750000Y-59000000D03*
X139750000Y-64000000D03*
%TD*%
D14*
%TO.C,SW3*%
X104420000Y-115500000D03*
D15*
X109500000Y-115500000D03*
D14*
X114580000Y-115500000D03*
D16*
X112040000Y-110420000D03*
X105690000Y-112960000D03*
%TD*%
D14*
%TO.C,J12*%
X144500000Y-94750000D03*
X151500000Y-94750000D03*
%TD*%
D10*
%TO.C,J16*%
X134750000Y-100500000D03*
%TD*%
%TO.C,J11*%
X101500000Y-95390000D03*
D17*
X101500000Y-92850000D03*
X101500000Y-90310000D03*
X101500000Y-87770000D03*
X101500000Y-85230000D03*
X101500000Y-82690000D03*
X101500000Y-80150000D03*
X101500000Y-77610000D03*
%TD*%
D10*
%TO.C,J15*%
X131000000Y-100500000D03*
%TD*%
D14*
%TO.C,SW4*%
X122920000Y-115500000D03*
D15*
X128000000Y-115500000D03*
D14*
X133080000Y-115500000D03*
D16*
X130540000Y-110420000D03*
X124190000Y-112960000D03*
%TD*%
D14*
%TO.C,SW5*%
X141420000Y-115500000D03*
D15*
X146500000Y-115500000D03*
D14*
X151580000Y-115500000D03*
D16*
X149040000Y-110420000D03*
X142690000Y-112960000D03*
%TD*%
D10*
%TO.C,J10*%
X101600000Y-64800000D03*
D17*
X101600000Y-62260000D03*
X101600000Y-59720000D03*
X101600000Y-57180000D03*
%TD*%
D18*
%TO.C,SW1*%
X153250000Y-78350000D03*
X153250000Y-74150000D03*
%TD*%
D19*
%TO.C,C29*%
X113230000Y-77750000D03*
X112270000Y-77750000D03*
%TD*%
D20*
%TO.C,R22*%
X132750000Y-89750000D03*
X131730000Y-89750000D03*
%TD*%
D21*
%TO.C,D5*%
X154750000Y-105287500D03*
X154750000Y-103712500D03*
%TD*%
D22*
%TO.C,C32*%
X116000000Y-86020000D03*
X116000000Y-86980000D03*
%TD*%
D23*
%TO.C,J21*%
X108750000Y-86000000D03*
%TD*%
D24*
%TO.C,C39*%
X133770000Y-76250000D03*
X134730000Y-76250000D03*
%TD*%
D25*
%TO.C,R24*%
X154750000Y-106740000D03*
X154750000Y-107760000D03*
%TD*%
D22*
%TO.C,C21*%
X121550000Y-88120000D03*
X121550000Y-89080000D03*
%TD*%
D26*
%TO.C,U4*%
X107700000Y-63500000D03*
X110000000Y-63500000D03*
D27*
X110000000Y-69800000D03*
D26*
X112300000Y-63500000D03*
%TD*%
D28*
%TO.C,R15*%
X119740000Y-70250000D03*
X120760000Y-70250000D03*
%TD*%
D29*
%TO.C,C48*%
X149250000Y-70730000D03*
X149250000Y-69770000D03*
%TD*%
D22*
%TO.C,C24*%
X115000000Y-86020000D03*
X115000000Y-86980000D03*
%TD*%
D30*
%TO.C,D10*%
X108212500Y-78250000D03*
X109787500Y-78250000D03*
%TD*%
D31*
%TO.C,D2*%
X118250000Y-67250000D03*
X118250000Y-63250000D03*
%TD*%
D32*
%TO.C,R2*%
X134250000Y-61510000D03*
X134250000Y-60490000D03*
%TD*%
D33*
%TO.C,U3*%
X148625000Y-72300000D03*
X148625000Y-72800000D03*
X148625000Y-73300000D03*
X148625000Y-73800000D03*
X145775000Y-73800000D03*
X145775000Y-73300000D03*
X145775000Y-72800000D03*
X145775000Y-72300000D03*
D34*
X147200000Y-73050000D03*
%TD*%
D29*
%TO.C,C25*%
X113750000Y-75730000D03*
X113750000Y-74770000D03*
%TD*%
D24*
%TO.C,C46*%
X132250000Y-64750000D03*
X133210000Y-64750000D03*
%TD*%
D20*
%TO.C,R9*%
X112760000Y-60100000D03*
X111740000Y-60100000D03*
%TD*%
D35*
%TO.C,D12*%
X115650000Y-97700000D03*
X112350000Y-97700000D03*
X112350000Y-92800000D03*
X115650000Y-92800000D03*
%TD*%
D20*
%TO.C,R18*%
X106760000Y-76250000D03*
X105740000Y-76250000D03*
%TD*%
D36*
%TO.C,J3*%
X118109998Y-56850000D03*
X123889998Y-56850000D03*
D37*
X117749998Y-58295000D03*
X118549998Y-58295000D03*
D38*
X119749998Y-58295000D03*
X120749998Y-58295000D03*
X121249998Y-58295000D03*
X122249998Y-58295000D03*
D37*
X123449998Y-58295000D03*
X124249998Y-58295000D03*
X124249998Y-58295000D03*
X123449998Y-58295000D03*
D38*
X122749998Y-58295000D03*
X121749998Y-58295000D03*
X120249998Y-58295000D03*
X119249998Y-58295000D03*
D37*
X118549998Y-58295000D03*
X117749998Y-58295000D03*
D39*
X116679998Y-53200000D03*
D40*
X116679998Y-57380000D03*
D39*
X125319998Y-53200000D03*
D40*
X125319998Y-57380000D03*
%TD*%
D24*
%TO.C,C35*%
X134770000Y-83750000D03*
X135730000Y-83750000D03*
%TD*%
D29*
%TO.C,C26*%
X122750000Y-77230000D03*
X122750000Y-76270000D03*
%TD*%
D22*
%TO.C,C37*%
X128750000Y-85270000D03*
X128750000Y-86230000D03*
%TD*%
D32*
%TO.C,R4*%
X142200000Y-75760000D03*
X142200000Y-74740000D03*
%TD*%
D41*
%TO.C,U9*%
X127500000Y-91062500D03*
X128000000Y-91062500D03*
X128500000Y-91062500D03*
X129000000Y-91062500D03*
D42*
X129687500Y-91750000D03*
X129687500Y-92250000D03*
X129687500Y-92750000D03*
X129687500Y-93250000D03*
D41*
X129000000Y-93937500D03*
X128500000Y-93937500D03*
X128000000Y-93937500D03*
X127500000Y-93937500D03*
D42*
X126812500Y-93250000D03*
X126812500Y-92750000D03*
X126812500Y-92250000D03*
X126812500Y-91750000D03*
D43*
X128250000Y-92500000D03*
%TD*%
D19*
%TO.C,C30*%
X113230000Y-81800000D03*
X112270000Y-81800000D03*
%TD*%
D24*
%TO.C,C3*%
X149020000Y-81800000D03*
X149980000Y-81800000D03*
%TD*%
D30*
%TO.C,D3*%
X134212500Y-87750000D03*
X135787500Y-87750000D03*
%TD*%
D28*
%TO.C,R7*%
X145670000Y-70250000D03*
X146690000Y-70250000D03*
%TD*%
D24*
%TO.C,C27*%
X119770000Y-71250000D03*
X120730000Y-71250000D03*
%TD*%
D29*
%TO.C,C51*%
X131000000Y-95250000D03*
X131000000Y-94290000D03*
%TD*%
D25*
%TO.C,R20*%
X129750000Y-88740000D03*
X129750000Y-89760000D03*
%TD*%
D22*
%TO.C,C15*%
X147555000Y-88020000D03*
X147555000Y-88980000D03*
%TD*%
D19*
%TO.C,C41*%
X132855000Y-85250000D03*
X131895000Y-85250000D03*
%TD*%
D20*
%TO.C,R25*%
X122510000Y-91000000D03*
X121490000Y-91000000D03*
%TD*%
D29*
%TO.C,C12*%
X144500000Y-72250000D03*
X144500000Y-71290000D03*
%TD*%
D25*
%TO.C,R21*%
X151000000Y-85500000D03*
X151000000Y-86520000D03*
%TD*%
D19*
%TO.C,C4*%
X139200000Y-77750000D03*
X138240000Y-77750000D03*
%TD*%
D25*
%TO.C,R12*%
X117300000Y-74740000D03*
X117300000Y-75760000D03*
%TD*%
D29*
%TO.C,C2*%
X148650000Y-78230000D03*
X148650000Y-77270000D03*
%TD*%
D22*
%TO.C,C6*%
X141905000Y-86000000D03*
X141905000Y-86960000D03*
%TD*%
D29*
%TO.C,C22*%
X116250000Y-89080000D03*
X116250000Y-88120000D03*
%TD*%
D24*
%TO.C,C36*%
X134770000Y-82750000D03*
X135730000Y-82750000D03*
%TD*%
D25*
%TO.C,R10*%
X119750000Y-60000000D03*
X119750000Y-61020000D03*
%TD*%
%TO.C,R19*%
X126750000Y-88740000D03*
X126750000Y-89760000D03*
%TD*%
D29*
%TO.C,C7*%
X143250000Y-71230000D03*
X143250000Y-70270000D03*
%TD*%
%TO.C,C10*%
X140750000Y-75730000D03*
X140750000Y-74770000D03*
%TD*%
D22*
%TO.C,C49*%
X127750000Y-88770000D03*
X127750000Y-89730000D03*
%TD*%
D32*
%TO.C,R13*%
X116200000Y-75760000D03*
X116200000Y-74740000D03*
%TD*%
D44*
%TO.C,U7*%
X133675000Y-83612500D03*
X133025000Y-83612500D03*
X132375000Y-83612500D03*
X131725000Y-83612500D03*
X131075000Y-83612500D03*
X130425000Y-83612500D03*
X129775000Y-83612500D03*
X129125000Y-83612500D03*
X128475000Y-83612500D03*
X127825000Y-83612500D03*
X127825000Y-77887500D03*
X128475000Y-77887500D03*
X129125000Y-77887500D03*
X129775000Y-77887500D03*
X130425000Y-77887500D03*
X131075000Y-77887500D03*
X131725000Y-77887500D03*
X132375000Y-77887500D03*
X133025000Y-77887500D03*
X133675000Y-77887500D03*
%TD*%
D22*
%TO.C,C38*%
X127750000Y-85270000D03*
X127750000Y-86230000D03*
%TD*%
D36*
%TO.C,J1*%
X129609996Y-56850000D03*
X135389996Y-56850000D03*
D37*
X129249996Y-58295000D03*
X130049996Y-58295000D03*
D38*
X131249996Y-58295000D03*
X132249996Y-58295000D03*
X132749996Y-58295000D03*
X133749996Y-58295000D03*
D37*
X134949996Y-58295000D03*
X135749996Y-58295000D03*
X135749996Y-58295000D03*
X134949996Y-58295000D03*
D38*
X134249996Y-58295000D03*
X133249996Y-58295000D03*
X131749996Y-58295000D03*
X130749996Y-58295000D03*
D37*
X130049996Y-58295000D03*
X129249996Y-58295000D03*
D39*
X128179996Y-53200000D03*
D40*
X128179996Y-57380000D03*
D39*
X136819996Y-53200000D03*
D40*
X136819996Y-57380000D03*
%TD*%
D45*
%TO.C,U5*%
X121387500Y-78200000D03*
X121387500Y-78600000D03*
X121387500Y-79000000D03*
X121387500Y-79400000D03*
X121387500Y-79800000D03*
X121387500Y-80200000D03*
X121387500Y-80600000D03*
X121387500Y-81000000D03*
X121387500Y-81400000D03*
X121387500Y-81800000D03*
X121387500Y-82200000D03*
X121387500Y-82600000D03*
X121387500Y-83000000D03*
X121387500Y-83400000D03*
D46*
X120550000Y-84237500D03*
X120150000Y-84237500D03*
X119750000Y-84237500D03*
X119350000Y-84237500D03*
X118950000Y-84237500D03*
X118550000Y-84237500D03*
X118150000Y-84237500D03*
X117750000Y-84237500D03*
X117350000Y-84237500D03*
X116950000Y-84237500D03*
X116550000Y-84237500D03*
X116150000Y-84237500D03*
X115750000Y-84237500D03*
X115350000Y-84237500D03*
D45*
X114512500Y-83400000D03*
X114512500Y-83000000D03*
X114512500Y-82600000D03*
X114512500Y-82200000D03*
X114512500Y-81800000D03*
X114512500Y-81400000D03*
X114512500Y-81000000D03*
X114512500Y-80600000D03*
X114512500Y-80200000D03*
X114512500Y-79800000D03*
X114512500Y-79400000D03*
X114512500Y-79000000D03*
X114512500Y-78600000D03*
X114512500Y-78200000D03*
D46*
X115350000Y-77362500D03*
X115750000Y-77362500D03*
X116150000Y-77362500D03*
X116550000Y-77362500D03*
X116950000Y-77362500D03*
X117350000Y-77362500D03*
X117750000Y-77362500D03*
X118150000Y-77362500D03*
X118550000Y-77362500D03*
X118950000Y-77362500D03*
X119350000Y-77362500D03*
X119750000Y-77362500D03*
X120150000Y-77362500D03*
X120550000Y-77362500D03*
D47*
X117950000Y-80800000D03*
%TD*%
D26*
%TO.C,U2*%
X125400000Y-63500000D03*
X127700000Y-63500000D03*
D27*
X127700000Y-69800000D03*
D26*
X130000000Y-63500000D03*
%TD*%
D33*
%TO.C,U6*%
X122625000Y-72300000D03*
X122625000Y-72800000D03*
X122625000Y-73300000D03*
X122625000Y-73800000D03*
X119775000Y-73800000D03*
X119775000Y-73300000D03*
X119775000Y-72800000D03*
X119775000Y-72300000D03*
D34*
X121200000Y-73050000D03*
%TD*%
D30*
%TO.C,D4*%
X108212500Y-76250000D03*
X109787500Y-76250000D03*
%TD*%
D25*
%TO.C,R8*%
X108100000Y-60240000D03*
X108100000Y-61260000D03*
%TD*%
D29*
%TO.C,C33*%
X117250000Y-71230000D03*
X117250000Y-70270000D03*
%TD*%
D28*
%TO.C,R16*%
X116980000Y-86250000D03*
X118000000Y-86250000D03*
%TD*%
D36*
%TO.C,J2*%
X106609998Y-56850000D03*
X112389998Y-56850000D03*
D37*
X106249998Y-58295000D03*
X107049998Y-58295000D03*
D38*
X108249998Y-58295000D03*
X109249998Y-58295000D03*
X109749998Y-58295000D03*
X110749998Y-58295000D03*
D37*
X111949998Y-58295000D03*
X112749998Y-58295000D03*
X112749998Y-58295000D03*
X111949998Y-58295000D03*
D38*
X111249998Y-58295000D03*
X110249998Y-58295000D03*
X108749998Y-58295000D03*
X107749998Y-58295000D03*
D37*
X107049998Y-58295000D03*
X106249998Y-58295000D03*
D39*
X105179998Y-53200000D03*
D40*
X105179998Y-57380000D03*
D39*
X113819998Y-53200000D03*
D40*
X113819998Y-57380000D03*
%TD*%
D22*
%TO.C,C11*%
X140805000Y-86000000D03*
X140805000Y-86960000D03*
%TD*%
%TO.C,C45*%
X128750000Y-88770000D03*
X128750000Y-89730000D03*
%TD*%
%TO.C,C44*%
X127250000Y-95250000D03*
X127250000Y-96210000D03*
%TD*%
D29*
%TO.C,C34*%
X116250000Y-70730000D03*
X116250000Y-69770000D03*
%TD*%
D28*
%TO.C,R5*%
X142895000Y-86250000D03*
X143915000Y-86250000D03*
%TD*%
D48*
%TO.C,SW2*%
X130600000Y-73000000D03*
X126400000Y-73000000D03*
%TD*%
D29*
%TO.C,C31*%
X112750000Y-75730000D03*
X112750000Y-74770000D03*
%TD*%
D24*
%TO.C,C17*%
X145700000Y-71300000D03*
X146660000Y-71300000D03*
%TD*%
D35*
%TO.C,D11*%
X121400000Y-97700000D03*
X118100000Y-97700000D03*
X118100000Y-92800000D03*
X121400000Y-92800000D03*
%TD*%
D29*
%TO.C,C1*%
X139750000Y-75730000D03*
X139750000Y-74770000D03*
%TD*%
D49*
%TO.C,U8*%
X133612500Y-68200000D03*
X133612500Y-67250000D03*
X133612500Y-66300000D03*
X135887500Y-66300000D03*
X135887500Y-68200000D03*
%TD*%
D24*
%TO.C,C47*%
X135770000Y-69500000D03*
X136730000Y-69500000D03*
%TD*%
D50*
%TO.C,C13*%
X129750000Y-61250000D03*
X128200000Y-61250000D03*
%TD*%
D32*
%TO.C,R11*%
X120750000Y-61020000D03*
X120750000Y-60000000D03*
%TD*%
%TO.C,R6*%
X150500000Y-73510000D03*
X150500000Y-72490000D03*
%TD*%
D31*
%TO.C,D1*%
X122000000Y-67250000D03*
X122000000Y-63250000D03*
%TD*%
D30*
%TO.C,D9*%
X134175000Y-89750000D03*
X135750000Y-89750000D03*
%TD*%
D29*
%TO.C,C20*%
X114750000Y-75730000D03*
X114750000Y-74770000D03*
%TD*%
%TO.C,C16*%
X142255000Y-88980000D03*
X142255000Y-88020000D03*
%TD*%
D51*
%TO.C,Y2*%
X117800000Y-87650000D03*
X120000000Y-87650000D03*
X120000000Y-89350000D03*
X117800000Y-89350000D03*
%TD*%
D35*
%TO.C,D13*%
X109900000Y-97700000D03*
X106600000Y-97700000D03*
X106600000Y-92800000D03*
X109900000Y-92800000D03*
%TD*%
D29*
%TO.C,C9*%
X138750000Y-75730000D03*
X138750000Y-74770000D03*
%TD*%
D51*
%TO.C,Y1*%
X143805000Y-87650000D03*
X146005000Y-87650000D03*
X146005000Y-89350000D03*
X143805000Y-89350000D03*
%TD*%
D29*
%TO.C,C23*%
X118500000Y-72480000D03*
X118500000Y-71520000D03*
%TD*%
D25*
%TO.C,R3*%
X143300000Y-74740000D03*
X143300000Y-75760000D03*
%TD*%
D24*
%TO.C,C28*%
X123020000Y-81800000D03*
X123980000Y-81800000D03*
%TD*%
D29*
%TO.C,C8*%
X142250000Y-70960000D03*
X142250000Y-70000000D03*
%TD*%
D24*
%TO.C,C42*%
X131020000Y-86250000D03*
X131980000Y-86250000D03*
%TD*%
D45*
%TO.C,U1*%
X147387500Y-78200000D03*
X147387500Y-78600000D03*
X147387500Y-79000000D03*
X147387500Y-79400000D03*
X147387500Y-79800000D03*
X147387500Y-80200000D03*
X147387500Y-80600000D03*
X147387500Y-81000000D03*
X147387500Y-81400000D03*
X147387500Y-81800000D03*
X147387500Y-82200000D03*
X147387500Y-82600000D03*
X147387500Y-83000000D03*
X147387500Y-83400000D03*
D46*
X146550000Y-84237500D03*
X146150000Y-84237500D03*
X145750000Y-84237500D03*
X145350000Y-84237500D03*
X144950000Y-84237500D03*
X144550000Y-84237500D03*
X144150000Y-84237500D03*
X143750000Y-84237500D03*
X143350000Y-84237500D03*
X142950000Y-84237500D03*
X142550000Y-84237500D03*
X142150000Y-84237500D03*
X141750000Y-84237500D03*
X141350000Y-84237500D03*
D45*
X140512500Y-83400000D03*
X140512500Y-83000000D03*
X140512500Y-82600000D03*
X140512500Y-82200000D03*
X140512500Y-81800000D03*
X140512500Y-81400000D03*
X140512500Y-81000000D03*
X140512500Y-80600000D03*
X140512500Y-80200000D03*
X140512500Y-79800000D03*
X140512500Y-79400000D03*
X140512500Y-79000000D03*
X140512500Y-78600000D03*
X140512500Y-78200000D03*
D46*
X141350000Y-77362500D03*
X141750000Y-77362500D03*
X142150000Y-77362500D03*
X142550000Y-77362500D03*
X142950000Y-77362500D03*
X143350000Y-77362500D03*
X143750000Y-77362500D03*
X144150000Y-77362500D03*
X144550000Y-77362500D03*
X144950000Y-77362500D03*
X145350000Y-77362500D03*
X145750000Y-77362500D03*
X146150000Y-77362500D03*
X146550000Y-77362500D03*
D47*
X143950000Y-80800000D03*
%TD*%
D20*
%TO.C,R23*%
X106760000Y-78250000D03*
X105740000Y-78250000D03*
%TD*%
D19*
%TO.C,C5*%
X138730000Y-81800000D03*
X137770000Y-81800000D03*
%TD*%
D52*
%TO.C,C14*%
X132250000Y-70475000D03*
X132250000Y-72025000D03*
%TD*%
D24*
%TO.C,C40*%
X133770000Y-75250000D03*
X134730000Y-75250000D03*
%TD*%
D23*
%TO.C,J20*%
X139500000Y-90500000D03*
%TD*%
D25*
%TO.C,R1*%
X131000000Y-60500000D03*
X131000000Y-61520000D03*
%TD*%
D29*
%TO.C,C43*%
X132375000Y-76342500D03*
X132375000Y-75382500D03*
%TD*%
D53*
%TO.C,C19*%
X111250000Y-72000000D03*
X112800000Y-72000000D03*
%TD*%
D50*
%TO.C,C18*%
X106775000Y-61000000D03*
X105225000Y-61000000D03*
%TD*%
D20*
%TO.C,R14*%
X125260000Y-71750000D03*
X124240000Y-71750000D03*
%TD*%
%TO.C,R17*%
X132797500Y-87750000D03*
X131777500Y-87750000D03*
%TD*%
D24*
%TO.C,C50*%
X128270000Y-95250000D03*
X129230000Y-95250000D03*
%TD*%
M02*
