%TF.GenerationSoftware,KiCad,Pcbnew,8.0.8*%
%TF.CreationDate,2026-08-24T01:59:44-04:00*%
%TF.ProjectId,board,626f6172-642e-46b6-9963-61645f706362,1.0*%
%TF.SameCoordinates,Original*%
%TF.FileFunction,Drillmap*%
%TF.FilePolarity,Positive*%
%FSLAX45Y45*%
G04 Gerber Fmt 4.5, Leading zero omitted, Abs format (unit mm)*
G04 Created by KiCad (PCBNEW 8.0.8) date 2026-08-24 01:59:44*
%MOMM*%
%LPD*%
G01*
G04 APERTURE LIST*
%ADD10C,0.050000*%
%ADD11C,0.120000*%
%ADD12C,0.200000*%
%ADD13C,0.100000*%
%ADD14C,0.150000*%
G04 APERTURE END LIST*
D10*
X15460000Y-10150000D02*
G75*
G02*
X15240000Y-10150000I-110000J0D01*
G01*
X15240000Y-10150000D02*
G75*
G02*
X15460000Y-10150000I110000J0D01*
G01*
X10000000Y-12850000D02*
X10000000Y-5150000D01*
X15460000Y-5250000D02*
G75*
G02*
X15240000Y-5250000I-110000J0D01*
G01*
X15240000Y-5250000D02*
G75*
G02*
X15460000Y-5250000I110000J0D01*
G01*
X10150000Y-13000000D02*
X15450000Y-13000000D01*
X10361000Y-5250000D02*
G75*
G02*
X10141000Y-5250000I-110000J0D01*
G01*
X10141000Y-5250000D02*
G75*
G02*
X10361000Y-5250000I110000J0D01*
G01*
X15600000Y-5150000D02*
X15600000Y-12850000D01*
X10361000Y-12750000D02*
G75*
G02*
X10141000Y-12750000I-110000J0D01*
G01*
X10141000Y-12750000D02*
G75*
G02*
X10361000Y-12750000I110000J0D01*
G01*
X10361000Y-7150000D02*
G75*
G02*
X10141000Y-7150000I-110000J0D01*
G01*
X10141000Y-7150000D02*
G75*
G02*
X10361000Y-7150000I110000J0D01*
G01*
X15460000Y-12750000D02*
G75*
G02*
X15240000Y-12750000I-110000J0D01*
G01*
X15240000Y-12750000D02*
G75*
G02*
X15460000Y-12750000I110000J0D01*
G01*
X10361000Y-10150000D02*
G75*
G02*
X10141000Y-10150000I-110000J0D01*
G01*
X10141000Y-10150000D02*
G75*
G02*
X10361000Y-10150000I110000J0D01*
G01*
X10000000Y-5150000D02*
G75*
G02*
X10150000Y-5000000I150000J0D01*
G01*
X10150000Y-5000000D02*
X15450000Y-5000000D01*
X10150000Y-13000000D02*
G75*
G02*
X10000000Y-12850000I0J150000D01*
G01*
X15450000Y-5000000D02*
G75*
G02*
X15600000Y-5150000I0J-150000D01*
G01*
X15600000Y-12850000D02*
G75*
G02*
X15450000Y-13000000I-150000J0D01*
G01*
X15460000Y-7150000D02*
G75*
G02*
X15240000Y-7150000I-110000J0D01*
G01*
X15240000Y-7150000D02*
G75*
G02*
X15460000Y-7150000I110000J0D01*
G01*
D11*
X10351000Y-7150000D02*
G75*
G02*
X10151000Y-7150000I-100000J0D01*
G01*
X10151000Y-7150000D02*
G75*
G02*
X10351000Y-7150000I100000J0D01*
G01*
X10351000Y-10150000D02*
G75*
G02*
X10151000Y-10150000I-100000J0D01*
G01*
X10151000Y-10150000D02*
G75*
G02*
X10351000Y-10150000I100000J0D01*
G01*
X15450000Y-7150000D02*
G75*
G02*
X15250000Y-7150000I-100000J0D01*
G01*
X15250000Y-7150000D02*
G75*
G02*
X15450000Y-7150000I100000J0D01*
G01*
X15450000Y-10150000D02*
G75*
G02*
X15250000Y-10150000I-100000J0D01*
G01*
X15250000Y-10150000D02*
G75*
G02*
X15450000Y-10150000I100000J0D01*
G01*
D12*
D13*
X12760000Y-9185000D02*
X12780000Y-9205000D01*
X12780000Y-9185000D02*
X12760000Y-9205000D01*
X12760000Y-9295000D02*
X12780000Y-9315000D01*
X12780000Y-9295000D02*
X12760000Y-9315000D01*
X12870000Y-9185000D02*
X12890000Y-9205000D01*
X12890000Y-9185000D02*
X12870000Y-9205000D01*
X12870000Y-9295000D02*
X12890000Y-9315000D01*
X12890000Y-9295000D02*
X12870000Y-9315000D01*
X10165000Y-6800000D02*
G75*
G02*
X10135000Y-6800000I-15000J0D01*
G01*
X10135000Y-6800000D02*
G75*
G02*
X10165000Y-6800000I15000J0D01*
G01*
X10165000Y-9750000D02*
G75*
G02*
X10135000Y-9750000I-15000J0D01*
G01*
X10135000Y-9750000D02*
G75*
G02*
X10165000Y-9750000I15000J0D01*
G01*
X10315000Y-6800000D02*
G75*
G02*
X10285000Y-6800000I-15000J0D01*
G01*
X10285000Y-6800000D02*
G75*
G02*
X10315000Y-6800000I15000J0D01*
G01*
X10365000Y-8125000D02*
G75*
G02*
X10335000Y-8125000I-15000J0D01*
G01*
X10335000Y-8125000D02*
G75*
G02*
X10365000Y-8125000I15000J0D01*
G01*
X10365000Y-9700000D02*
G75*
G02*
X10335000Y-9700000I-15000J0D01*
G01*
X10335000Y-9700000D02*
G75*
G02*
X10365000Y-9700000I15000J0D01*
G01*
X10367313Y-8460000D02*
G75*
G02*
X10337313Y-8460000I-15000J0D01*
G01*
X10337313Y-8460000D02*
G75*
G02*
X10367313Y-8460000I15000J0D01*
G01*
X10440000Y-6260000D02*
G75*
G02*
X10410000Y-6260000I-15000J0D01*
G01*
X10410000Y-6260000D02*
G75*
G02*
X10440000Y-6260000I15000J0D01*
G01*
X10465000Y-9085000D02*
G75*
G02*
X10435000Y-9085000I-15000J0D01*
G01*
X10435000Y-9085000D02*
G75*
G02*
X10465000Y-9085000I15000J0D01*
G01*
X10490000Y-5900000D02*
G75*
G02*
X10460000Y-5900000I-15000J0D01*
G01*
X10460000Y-5900000D02*
G75*
G02*
X10490000Y-5900000I15000J0D01*
G01*
X10590000Y-5975000D02*
G75*
G02*
X10560000Y-5975000I-15000J0D01*
G01*
X10560000Y-5975000D02*
G75*
G02*
X10590000Y-5975000I15000J0D01*
G01*
X10590000Y-6525000D02*
G75*
G02*
X10560000Y-6525000I-15000J0D01*
G01*
X10560000Y-6525000D02*
G75*
G02*
X10590000Y-6525000I15000J0D01*
G01*
X10740000Y-6650000D02*
G75*
G02*
X10710000Y-6650000I-15000J0D01*
G01*
X10710000Y-6650000D02*
G75*
G02*
X10740000Y-6650000I15000J0D01*
G01*
X10765000Y-8062265D02*
G75*
G02*
X10735000Y-8062265I-15000J0D01*
G01*
X10735000Y-8062265D02*
G75*
G02*
X10765000Y-8062265I15000J0D01*
G01*
X10865000Y-6650000D02*
G75*
G02*
X10835000Y-6650000I-15000J0D01*
G01*
X10835000Y-6650000D02*
G75*
G02*
X10865000Y-6650000I15000J0D01*
G01*
X10915000Y-7950000D02*
G75*
G02*
X10885000Y-7950000I-15000J0D01*
G01*
X10885000Y-7950000D02*
G75*
G02*
X10915000Y-7950000I15000J0D01*
G01*
X10938327Y-6140000D02*
G75*
G02*
X10908327Y-6140000I-15000J0D01*
G01*
X10908327Y-6140000D02*
G75*
G02*
X10938327Y-6140000I15000J0D01*
G01*
X10965000Y-10600000D02*
G75*
G02*
X10935000Y-10600000I-15000J0D01*
G01*
X10935000Y-10600000D02*
G75*
G02*
X10965000Y-10600000I15000J0D01*
G01*
X10990000Y-8300000D02*
G75*
G02*
X10960000Y-8300000I-15000J0D01*
G01*
X10960000Y-8300000D02*
G75*
G02*
X10990000Y-8300000I15000J0D01*
G01*
X11027500Y-7412500D02*
G75*
G02*
X10997500Y-7412500I-15000J0D01*
G01*
X10997500Y-7412500D02*
G75*
G02*
X11027500Y-7412500I15000J0D01*
G01*
X11115000Y-6625000D02*
G75*
G02*
X11085000Y-6625000I-15000J0D01*
G01*
X11085000Y-6625000D02*
G75*
G02*
X11115000Y-6625000I15000J0D01*
G01*
X11115000Y-6775000D02*
G75*
G02*
X11085000Y-6775000I-15000J0D01*
G01*
X11085000Y-6775000D02*
G75*
G02*
X11115000Y-6775000I15000J0D01*
G01*
X11115000Y-8450000D02*
G75*
G02*
X11085000Y-8450000I-15000J0D01*
G01*
X11085000Y-8450000D02*
G75*
G02*
X11115000Y-8450000I15000J0D01*
G01*
X11140000Y-8275000D02*
G75*
G02*
X11110000Y-8275000I-15000J0D01*
G01*
X11110000Y-8275000D02*
G75*
G02*
X11140000Y-8275000I15000J0D01*
G01*
X11165000Y-7650000D02*
G75*
G02*
X11135000Y-7650000I-15000J0D01*
G01*
X11135000Y-7650000D02*
G75*
G02*
X11165000Y-7650000I15000J0D01*
G01*
X11215000Y-6200000D02*
G75*
G02*
X11185000Y-6200000I-15000J0D01*
G01*
X11185000Y-6200000D02*
G75*
G02*
X11215000Y-6200000I15000J0D01*
G01*
X11240000Y-8300000D02*
G75*
G02*
X11210000Y-8300000I-15000J0D01*
G01*
X11210000Y-8300000D02*
G75*
G02*
X11240000Y-8300000I15000J0D01*
G01*
X11265000Y-6775000D02*
G75*
G02*
X11235000Y-6775000I-15000J0D01*
G01*
X11235000Y-6775000D02*
G75*
G02*
X11265000Y-6775000I15000J0D01*
G01*
X11315000Y-6650000D02*
G75*
G02*
X11285000Y-6650000I-15000J0D01*
G01*
X11285000Y-6650000D02*
G75*
G02*
X11315000Y-6650000I15000J0D01*
G01*
X11315000Y-8545000D02*
G75*
G02*
X11285000Y-8545000I-15000J0D01*
G01*
X11285000Y-8545000D02*
G75*
G02*
X11315000Y-8545000I15000J0D01*
G01*
X11315000Y-8625000D02*
G75*
G02*
X11285000Y-8625000I-15000J0D01*
G01*
X11285000Y-8625000D02*
G75*
G02*
X11315000Y-8625000I15000J0D01*
G01*
X11415000Y-6325000D02*
G75*
G02*
X11385000Y-6325000I-15000J0D01*
G01*
X11385000Y-6325000D02*
G75*
G02*
X11415000Y-6325000I15000J0D01*
G01*
X11415000Y-6425000D02*
G75*
G02*
X11385000Y-6425000I-15000J0D01*
G01*
X11385000Y-6425000D02*
G75*
G02*
X11415000Y-6425000I15000J0D01*
G01*
X11415000Y-6925000D02*
G75*
G02*
X11385000Y-6925000I-15000J0D01*
G01*
X11385000Y-6925000D02*
G75*
G02*
X11415000Y-6925000I15000J0D01*
G01*
X11440000Y-5900000D02*
G75*
G02*
X11410000Y-5900000I-15000J0D01*
G01*
X11410000Y-5900000D02*
G75*
G02*
X11440000Y-5900000I15000J0D01*
G01*
X11490000Y-7300000D02*
G75*
G02*
X11460000Y-7300000I-15000J0D01*
G01*
X11460000Y-7300000D02*
G75*
G02*
X11490000Y-7300000I15000J0D01*
G01*
X11527500Y-5987500D02*
G75*
G02*
X11497500Y-5987500I-15000J0D01*
G01*
X11497500Y-5987500D02*
G75*
G02*
X11527500Y-5987500I15000J0D01*
G01*
X11561334Y-8301833D02*
G75*
G02*
X11531334Y-8301833I-15000J0D01*
G01*
X11531334Y-8301833D02*
G75*
G02*
X11561334Y-8301833I15000J0D01*
G01*
X11640000Y-5900000D02*
G75*
G02*
X11610000Y-5900000I-15000J0D01*
G01*
X11610000Y-5900000D02*
G75*
G02*
X11640000Y-5900000I15000J0D01*
G01*
X11640000Y-6850000D02*
G75*
G02*
X11610000Y-6850000I-15000J0D01*
G01*
X11610000Y-6850000D02*
G75*
G02*
X11640000Y-6850000I15000J0D01*
G01*
X11690000Y-6725000D02*
G75*
G02*
X11660000Y-6725000I-15000J0D01*
G01*
X11660000Y-6725000D02*
G75*
G02*
X11690000Y-6725000I15000J0D01*
G01*
X11715000Y-9125000D02*
G75*
G02*
X11685000Y-9125000I-15000J0D01*
G01*
X11685000Y-9125000D02*
G75*
G02*
X11715000Y-9125000I15000J0D01*
G01*
X11715000Y-10000000D02*
G75*
G02*
X11685000Y-10000000I-15000J0D01*
G01*
X11685000Y-10000000D02*
G75*
G02*
X11715000Y-10000000I15000J0D01*
G01*
X11727500Y-5987500D02*
G75*
G02*
X11697500Y-5987500I-15000J0D01*
G01*
X11697500Y-5987500D02*
G75*
G02*
X11727500Y-5987500I15000J0D01*
G01*
X11770000Y-7230000D02*
G75*
G02*
X11740000Y-7230000I-15000J0D01*
G01*
X11740000Y-7230000D02*
G75*
G02*
X11770000Y-7230000I15000J0D01*
G01*
X11770000Y-7656750D02*
G75*
G02*
X11740000Y-7656750I-15000J0D01*
G01*
X11740000Y-7656750D02*
G75*
G02*
X11770000Y-7656750I15000J0D01*
G01*
X11814219Y-8326458D02*
G75*
G02*
X11784219Y-8326458I-15000J0D01*
G01*
X11784219Y-8326458D02*
G75*
G02*
X11814219Y-8326458I15000J0D01*
G01*
X11815000Y-6975000D02*
G75*
G02*
X11785000Y-6975000I-15000J0D01*
G01*
X11785000Y-6975000D02*
G75*
G02*
X11815000Y-6975000I15000J0D01*
G01*
X11894926Y-7085000D02*
G75*
G02*
X11864926Y-7085000I-15000J0D01*
G01*
X11864926Y-7085000D02*
G75*
G02*
X11894926Y-7085000I15000J0D01*
G01*
X11909274Y-8266458D02*
G75*
G02*
X11879274Y-8266458I-15000J0D01*
G01*
X11879274Y-8266458D02*
G75*
G02*
X11909274Y-8266458I15000J0D01*
G01*
X11923382Y-7829374D02*
G75*
G02*
X11893382Y-7829374I-15000J0D01*
G01*
X11893382Y-7829374D02*
G75*
G02*
X11923382Y-7829374I15000J0D01*
G01*
X11965000Y-8600000D02*
G75*
G02*
X11935000Y-8600000I-15000J0D01*
G01*
X11935000Y-8600000D02*
G75*
G02*
X11965000Y-8600000I15000J0D01*
G01*
X11970000Y-8326458D02*
G75*
G02*
X11940000Y-8326458I-15000J0D01*
G01*
X11940000Y-8326458D02*
G75*
G02*
X11970000Y-8326458I15000J0D01*
G01*
X12055000Y-8325000D02*
G75*
G02*
X12025000Y-8325000I-15000J0D01*
G01*
X12025000Y-8325000D02*
G75*
G02*
X12055000Y-8325000I15000J0D01*
G01*
X12060000Y-8600000D02*
G75*
G02*
X12030000Y-8600000I-15000J0D01*
G01*
X12030000Y-8600000D02*
G75*
G02*
X12060000Y-8600000I15000J0D01*
G01*
X12140000Y-8600000D02*
G75*
G02*
X12110000Y-8600000I-15000J0D01*
G01*
X12110000Y-8600000D02*
G75*
G02*
X12140000Y-8600000I15000J0D01*
G01*
X12190000Y-7125000D02*
G75*
G02*
X12160000Y-7125000I-15000J0D01*
G01*
X12160000Y-7125000D02*
G75*
G02*
X12190000Y-7125000I15000J0D01*
G01*
X12220000Y-8600000D02*
G75*
G02*
X12190000Y-8600000I-15000J0D01*
G01*
X12190000Y-8600000D02*
G75*
G02*
X12220000Y-8600000I15000J0D01*
G01*
X12247500Y-8061707D02*
G75*
G02*
X12217500Y-8061707I-15000J0D01*
G01*
X12217500Y-8061707D02*
G75*
G02*
X12247500Y-8061707I15000J0D01*
G01*
X12265000Y-10000000D02*
G75*
G02*
X12235000Y-10000000I-15000J0D01*
G01*
X12235000Y-10000000D02*
G75*
G02*
X12265000Y-10000000I15000J0D01*
G01*
X12274216Y-7834216D02*
G75*
G02*
X12244216Y-7834216I-15000J0D01*
G01*
X12244216Y-7834216D02*
G75*
G02*
X12274216Y-7834216I15000J0D01*
G01*
X12290000Y-7440000D02*
G75*
G02*
X12260000Y-7440000I-15000J0D01*
G01*
X12260000Y-7440000D02*
G75*
G02*
X12290000Y-7440000I15000J0D01*
G01*
X12300001Y-8600000D02*
G75*
G02*
X12270001Y-8600000I-15000J0D01*
G01*
X12270001Y-8600000D02*
G75*
G02*
X12300001Y-8600000I15000J0D01*
G01*
X12365000Y-8265000D02*
G75*
G02*
X12335000Y-8265000I-15000J0D01*
G01*
X12335000Y-8265000D02*
G75*
G02*
X12365000Y-8265000I15000J0D01*
G01*
X12440000Y-7650000D02*
G75*
G02*
X12410000Y-7650000I-15000J0D01*
G01*
X12410000Y-7650000D02*
G75*
G02*
X12440000Y-7650000I15000J0D01*
G01*
X12465000Y-6975000D02*
G75*
G02*
X12435000Y-6975000I-15000J0D01*
G01*
X12435000Y-6975000D02*
G75*
G02*
X12465000Y-6975000I15000J0D01*
G01*
X12465000Y-8650000D02*
G75*
G02*
X12435000Y-8650000I-15000J0D01*
G01*
X12435000Y-8650000D02*
G75*
G02*
X12465000Y-8650000I15000J0D01*
G01*
X12465000Y-8875000D02*
G75*
G02*
X12435000Y-8875000I-15000J0D01*
G01*
X12435000Y-8875000D02*
G75*
G02*
X12465000Y-8875000I15000J0D01*
G01*
X12465000Y-9125000D02*
G75*
G02*
X12435000Y-9125000I-15000J0D01*
G01*
X12435000Y-9125000D02*
G75*
G02*
X12465000Y-9125000I15000J0D01*
G01*
X12515000Y-6025000D02*
G75*
G02*
X12485000Y-6025000I-15000J0D01*
G01*
X12485000Y-6025000D02*
G75*
G02*
X12515000Y-6025000I15000J0D01*
G01*
X12515000Y-6625000D02*
G75*
G02*
X12485000Y-6625000I-15000J0D01*
G01*
X12485000Y-6625000D02*
G75*
G02*
X12515000Y-6625000I15000J0D01*
G01*
X12515000Y-7350000D02*
G75*
G02*
X12485000Y-7350000I-15000J0D01*
G01*
X12485000Y-7350000D02*
G75*
G02*
X12515000Y-7350000I15000J0D01*
G01*
X12515000Y-7550000D02*
G75*
G02*
X12485000Y-7550000I-15000J0D01*
G01*
X12485000Y-7550000D02*
G75*
G02*
X12515000Y-7550000I15000J0D01*
G01*
X12539702Y-9249105D02*
G75*
G02*
X12509702Y-9249105I-15000J0D01*
G01*
X12509702Y-9249105D02*
G75*
G02*
X12539702Y-9249105I15000J0D01*
G01*
X12539986Y-7940161D02*
G75*
G02*
X12509986Y-7940161I-15000J0D01*
G01*
X12509986Y-7940161D02*
G75*
G02*
X12539986Y-7940161I15000J0D01*
G01*
X12540000Y-7860161D02*
G75*
G02*
X12510000Y-7860161I-15000J0D01*
G01*
X12510000Y-7860161D02*
G75*
G02*
X12540000Y-7860161I15000J0D01*
G01*
X12540000Y-9850000D02*
G75*
G02*
X12510000Y-9850000I-15000J0D01*
G01*
X12510000Y-9850000D02*
G75*
G02*
X12540000Y-9850000I15000J0D01*
G01*
X12565000Y-8400000D02*
G75*
G02*
X12535000Y-8400000I-15000J0D01*
G01*
X12535000Y-8400000D02*
G75*
G02*
X12565000Y-8400000I15000J0D01*
G01*
X12565000Y-9025000D02*
G75*
G02*
X12535000Y-9025000I-15000J0D01*
G01*
X12535000Y-9025000D02*
G75*
G02*
X12565000Y-9025000I15000J0D01*
G01*
X12565000Y-9325000D02*
G75*
G02*
X12535000Y-9325000I-15000J0D01*
G01*
X12535000Y-9325000D02*
G75*
G02*
X12565000Y-9325000I15000J0D01*
G01*
X12590000Y-5900000D02*
G75*
G02*
X12560000Y-5900000I-15000J0D01*
G01*
X12560000Y-5900000D02*
G75*
G02*
X12590000Y-5900000I15000J0D01*
G01*
X12625000Y-8725000D02*
G75*
G02*
X12595000Y-8725000I-15000J0D01*
G01*
X12595000Y-8725000D02*
G75*
G02*
X12625000Y-8725000I15000J0D01*
G01*
X12640000Y-6625000D02*
G75*
G02*
X12610000Y-6625000I-15000J0D01*
G01*
X12610000Y-6625000D02*
G75*
G02*
X12640000Y-6625000I15000J0D01*
G01*
X12652500Y-7762500D02*
G75*
G02*
X12622500Y-7762500I-15000J0D01*
G01*
X12622500Y-7762500D02*
G75*
G02*
X12652500Y-7762500I15000J0D01*
G01*
X12665000Y-8225000D02*
G75*
G02*
X12635000Y-8225000I-15000J0D01*
G01*
X12635000Y-8225000D02*
G75*
G02*
X12665000Y-8225000I15000J0D01*
G01*
X12665000Y-9775000D02*
G75*
G02*
X12635000Y-9775000I-15000J0D01*
G01*
X12635000Y-9775000D02*
G75*
G02*
X12665000Y-9775000I15000J0D01*
G01*
X12715000Y-8625000D02*
G75*
G02*
X12685000Y-8625000I-15000J0D01*
G01*
X12685000Y-8625000D02*
G75*
G02*
X12715000Y-8625000I15000J0D01*
G01*
X12719926Y-7970073D02*
G75*
G02*
X12689926Y-7970073I-15000J0D01*
G01*
X12689926Y-7970073D02*
G75*
G02*
X12719926Y-7970073I15000J0D01*
G01*
X12765000Y-7200000D02*
G75*
G02*
X12735000Y-7200000I-15000J0D01*
G01*
X12735000Y-7200000D02*
G75*
G02*
X12765000Y-7200000I15000J0D01*
G01*
X12765000Y-7300000D02*
G75*
G02*
X12735000Y-7300000I-15000J0D01*
G01*
X12735000Y-7300000D02*
G75*
G02*
X12765000Y-7300000I15000J0D01*
G01*
X12785000Y-6600000D02*
G75*
G02*
X12755000Y-6600000I-15000J0D01*
G01*
X12755000Y-6600000D02*
G75*
G02*
X12785000Y-6600000I15000J0D01*
G01*
X12785000Y-6800000D02*
G75*
G02*
X12755000Y-6800000I-15000J0D01*
G01*
X12755000Y-6800000D02*
G75*
G02*
X12785000Y-6800000I15000J0D01*
G01*
X12790000Y-5900000D02*
G75*
G02*
X12760000Y-5900000I-15000J0D01*
G01*
X12760000Y-5900000D02*
G75*
G02*
X12790000Y-5900000I15000J0D01*
G01*
X12815000Y-8050000D02*
G75*
G02*
X12785000Y-8050000I-15000J0D01*
G01*
X12785000Y-8050000D02*
G75*
G02*
X12815000Y-8050000I15000J0D01*
G01*
X12815000Y-10600000D02*
G75*
G02*
X12785000Y-10600000I-15000J0D01*
G01*
X12785000Y-10600000D02*
G75*
G02*
X12815000Y-10600000I15000J0D01*
G01*
X12865000Y-7200000D02*
G75*
G02*
X12835000Y-7200000I-15000J0D01*
G01*
X12835000Y-7200000D02*
G75*
G02*
X12865000Y-7200000I15000J0D01*
G01*
X12910000Y-8775000D02*
G75*
G02*
X12880000Y-8775000I-15000J0D01*
G01*
X12880000Y-8775000D02*
G75*
G02*
X12910000Y-8775000I15000J0D01*
G01*
X12915000Y-5975000D02*
G75*
G02*
X12885000Y-5975000I-15000J0D01*
G01*
X12885000Y-5975000D02*
G75*
G02*
X12915000Y-5975000I15000J0D01*
G01*
X12915000Y-7950000D02*
G75*
G02*
X12885000Y-7950000I-15000J0D01*
G01*
X12885000Y-7950000D02*
G75*
G02*
X12915000Y-7950000I15000J0D01*
G01*
X12990000Y-8575000D02*
G75*
G02*
X12960000Y-8575000I-15000J0D01*
G01*
X12960000Y-8575000D02*
G75*
G02*
X12990000Y-8575000I15000J0D01*
G01*
X12990000Y-8775000D02*
G75*
G02*
X12960000Y-8775000I-15000J0D01*
G01*
X12960000Y-8775000D02*
G75*
G02*
X12990000Y-8775000I15000J0D01*
G01*
X13015000Y-9625000D02*
G75*
G02*
X12985000Y-9625000I-15000J0D01*
G01*
X12985000Y-9625000D02*
G75*
G02*
X13015000Y-9625000I15000J0D01*
G01*
X13015000Y-9775000D02*
G75*
G02*
X12985000Y-9775000I-15000J0D01*
G01*
X12985000Y-9775000D02*
G75*
G02*
X13015000Y-9775000I15000J0D01*
G01*
X13090000Y-8050000D02*
G75*
G02*
X13060000Y-8050000I-15000J0D01*
G01*
X13060000Y-8050000D02*
G75*
G02*
X13090000Y-8050000I15000J0D01*
G01*
X13115000Y-6550000D02*
G75*
G02*
X13085000Y-6550000I-15000J0D01*
G01*
X13085000Y-6550000D02*
G75*
G02*
X13115000Y-6550000I15000J0D01*
G01*
X13115000Y-6700000D02*
G75*
G02*
X13085000Y-6700000I-15000J0D01*
G01*
X13085000Y-6700000D02*
G75*
G02*
X13115000Y-6700000I15000J0D01*
G01*
X13115000Y-6850000D02*
G75*
G02*
X13085000Y-6850000I-15000J0D01*
G01*
X13085000Y-6850000D02*
G75*
G02*
X13115000Y-6850000I15000J0D01*
G01*
X13115000Y-8875000D02*
G75*
G02*
X13085000Y-8875000I-15000J0D01*
G01*
X13085000Y-8875000D02*
G75*
G02*
X13115000Y-8875000I15000J0D01*
G01*
X13132500Y-6248727D02*
G75*
G02*
X13102500Y-6248727I-15000J0D01*
G01*
X13102500Y-6248727D02*
G75*
G02*
X13132500Y-6248727I15000J0D01*
G01*
X13188263Y-6351737D02*
G75*
G02*
X13158263Y-6351737I-15000J0D01*
G01*
X13158263Y-6351737D02*
G75*
G02*
X13188263Y-6351737I15000J0D01*
G01*
X13215000Y-8225000D02*
G75*
G02*
X13185000Y-8225000I-15000J0D01*
G01*
X13185000Y-8225000D02*
G75*
G02*
X13215000Y-8225000I15000J0D01*
G01*
X13315000Y-7450000D02*
G75*
G02*
X13285000Y-7450000I-15000J0D01*
G01*
X13285000Y-7450000D02*
G75*
G02*
X13315000Y-7450000I15000J0D01*
G01*
X13340000Y-8225000D02*
G75*
G02*
X13310000Y-8225000I-15000J0D01*
G01*
X13310000Y-8225000D02*
G75*
G02*
X13340000Y-8225000I15000J0D01*
G01*
X13365000Y-8650000D02*
G75*
G02*
X13335000Y-8650000I-15000J0D01*
G01*
X13335000Y-8650000D02*
G75*
G02*
X13365000Y-8650000I15000J0D01*
G01*
X13490000Y-7050000D02*
G75*
G02*
X13460000Y-7050000I-15000J0D01*
G01*
X13460000Y-7050000D02*
G75*
G02*
X13490000Y-7050000I15000J0D01*
G01*
X13490000Y-7200000D02*
G75*
G02*
X13460000Y-7200000I-15000J0D01*
G01*
X13460000Y-7200000D02*
G75*
G02*
X13490000Y-7200000I15000J0D01*
G01*
X13490000Y-7375000D02*
G75*
G02*
X13460000Y-7375000I-15000J0D01*
G01*
X13460000Y-7375000D02*
G75*
G02*
X13490000Y-7375000I15000J0D01*
G01*
X13490000Y-9775000D02*
G75*
G02*
X13460000Y-9775000I-15000J0D01*
G01*
X13460000Y-9775000D02*
G75*
G02*
X13490000Y-9775000I15000J0D01*
G01*
X13515000Y-6500000D02*
G75*
G02*
X13485000Y-6500000I-15000J0D01*
G01*
X13485000Y-6500000D02*
G75*
G02*
X13515000Y-6500000I15000J0D01*
G01*
X13515000Y-6725000D02*
G75*
G02*
X13485000Y-6725000I-15000J0D01*
G01*
X13485000Y-6725000D02*
G75*
G02*
X13515000Y-6725000I15000J0D01*
G01*
X13540000Y-6025000D02*
G75*
G02*
X13510000Y-6025000I-15000J0D01*
G01*
X13510000Y-6025000D02*
G75*
G02*
X13540000Y-6025000I15000J0D01*
G01*
X13590000Y-9105000D02*
G75*
G02*
X13560000Y-9105000I-15000J0D01*
G01*
X13560000Y-9105000D02*
G75*
G02*
X13590000Y-9105000I15000J0D01*
G01*
X13603750Y-7840000D02*
G75*
G02*
X13573750Y-7840000I-15000J0D01*
G01*
X13573750Y-7840000D02*
G75*
G02*
X13603750Y-7840000I15000J0D01*
G01*
X13603750Y-8040000D02*
G75*
G02*
X13573750Y-8040000I-15000J0D01*
G01*
X13573750Y-8040000D02*
G75*
G02*
X13603750Y-8040000I15000J0D01*
G01*
X13663750Y-7050000D02*
G75*
G02*
X13633750Y-7050000I-15000J0D01*
G01*
X13633750Y-7050000D02*
G75*
G02*
X13663750Y-7050000I15000J0D01*
G01*
X13665000Y-6725000D02*
G75*
G02*
X13635000Y-6725000I-15000J0D01*
G01*
X13635000Y-6725000D02*
G75*
G02*
X13665000Y-6725000I15000J0D01*
G01*
X13740000Y-5900000D02*
G75*
G02*
X13710000Y-5900000I-15000J0D01*
G01*
X13710000Y-5900000D02*
G75*
G02*
X13740000Y-5900000I15000J0D01*
G01*
X13765000Y-6950000D02*
G75*
G02*
X13735000Y-6950000I-15000J0D01*
G01*
X13735000Y-6950000D02*
G75*
G02*
X13765000Y-6950000I15000J0D01*
G01*
X13765000Y-7825000D02*
G75*
G02*
X13735000Y-7825000I-15000J0D01*
G01*
X13735000Y-7825000D02*
G75*
G02*
X13765000Y-7825000I15000J0D01*
G01*
X13794000Y-8254579D02*
G75*
G02*
X13764000Y-8254579I-15000J0D01*
G01*
X13764000Y-8254579D02*
G75*
G02*
X13794000Y-8254579I15000J0D01*
G01*
X13865000Y-7175000D02*
G75*
G02*
X13835000Y-7175000I-15000J0D01*
G01*
X13835000Y-7175000D02*
G75*
G02*
X13865000Y-7175000I15000J0D01*
G01*
X13921279Y-8532742D02*
G75*
G02*
X13891279Y-8532742I-15000J0D01*
G01*
X13891279Y-8532742D02*
G75*
G02*
X13921279Y-8532742I15000J0D01*
G01*
X13927500Y-8612500D02*
G75*
G02*
X13897500Y-8612500I-15000J0D01*
G01*
X13897500Y-8612500D02*
G75*
G02*
X13927500Y-8612500I15000J0D01*
G01*
X13938026Y-8346288D02*
G75*
G02*
X13908026Y-8346288I-15000J0D01*
G01*
X13908026Y-8346288D02*
G75*
G02*
X13938026Y-8346288I15000J0D01*
G01*
X13942084Y-8427084D02*
G75*
G02*
X13912084Y-8427084I-15000J0D01*
G01*
X13912084Y-8427084D02*
G75*
G02*
X13942084Y-8427084I15000J0D01*
G01*
X13965000Y-7275000D02*
G75*
G02*
X13935000Y-7275000I-15000J0D01*
G01*
X13935000Y-7275000D02*
G75*
G02*
X13965000Y-7275000I15000J0D01*
G01*
X13990000Y-8675000D02*
G75*
G02*
X13960000Y-8675000I-15000J0D01*
G01*
X13960000Y-8675000D02*
G75*
G02*
X13990000Y-8675000I15000J0D01*
G01*
X14065000Y-8900000D02*
G75*
G02*
X14035000Y-8900000I-15000J0D01*
G01*
X14035000Y-8900000D02*
G75*
G02*
X14065000Y-8900000I15000J0D01*
G01*
X14115000Y-7050000D02*
G75*
G02*
X14085000Y-7050000I-15000J0D01*
G01*
X14085000Y-7050000D02*
G75*
G02*
X14115000Y-7050000I15000J0D01*
G01*
X14115000Y-9225000D02*
G75*
G02*
X14085000Y-9225000I-15000J0D01*
G01*
X14085000Y-9225000D02*
G75*
G02*
X14115000Y-9225000I15000J0D01*
G01*
X14115000Y-9475000D02*
G75*
G02*
X14085000Y-9475000I-15000J0D01*
G01*
X14085000Y-9475000D02*
G75*
G02*
X14115000Y-9475000I15000J0D01*
G01*
X14115000Y-9725000D02*
G75*
G02*
X14085000Y-9725000I-15000J0D01*
G01*
X14085000Y-9725000D02*
G75*
G02*
X14115000Y-9725000I15000J0D01*
G01*
X14140000Y-5625000D02*
G75*
G02*
X14110000Y-5625000I-15000J0D01*
G01*
X14110000Y-5625000D02*
G75*
G02*
X14140000Y-5625000I15000J0D01*
G01*
X14140000Y-6675000D02*
G75*
G02*
X14110000Y-6675000I-15000J0D01*
G01*
X14110000Y-6675000D02*
G75*
G02*
X14140000Y-6675000I15000J0D01*
G01*
X14161334Y-7850000D02*
G75*
G02*
X14131334Y-7850000I-15000J0D01*
G01*
X14131334Y-7850000D02*
G75*
G02*
X14161334Y-7850000I15000J0D01*
G01*
X14165000Y-8325000D02*
G75*
G02*
X14135000Y-8325000I-15000J0D01*
G01*
X14135000Y-8325000D02*
G75*
G02*
X14165000Y-8325000I15000J0D01*
G01*
X14240000Y-6875000D02*
G75*
G02*
X14210000Y-6875000I-15000J0D01*
G01*
X14210000Y-6875000D02*
G75*
G02*
X14240000Y-6875000I15000J0D01*
G01*
X14244508Y-8333855D02*
G75*
G02*
X14214508Y-8333855I-15000J0D01*
G01*
X14214508Y-8333855D02*
G75*
G02*
X14244508Y-8333855I15000J0D01*
G01*
X14298336Y-7241663D02*
G75*
G02*
X14268336Y-7241663I-15000J0D01*
G01*
X14268336Y-7241663D02*
G75*
G02*
X14298336Y-7241663I15000J0D01*
G01*
X14340000Y-6875000D02*
G75*
G02*
X14310000Y-6875000I-15000J0D01*
G01*
X14310000Y-6875000D02*
G75*
G02*
X14340000Y-6875000I15000J0D01*
G01*
X14340000Y-9225000D02*
G75*
G02*
X14310000Y-9225000I-15000J0D01*
G01*
X14310000Y-9225000D02*
G75*
G02*
X14340000Y-9225000I15000J0D01*
G01*
X14369889Y-7277445D02*
G75*
G02*
X14339889Y-7277445I-15000J0D01*
G01*
X14339889Y-7277445D02*
G75*
G02*
X14369889Y-7277445I15000J0D01*
G01*
X14370000Y-7653000D02*
G75*
G02*
X14340000Y-7653000I-15000J0D01*
G01*
X14340000Y-7653000D02*
G75*
G02*
X14370000Y-7653000I15000J0D01*
G01*
X14372573Y-8282573D02*
G75*
G02*
X14342573Y-8282573I-15000J0D01*
G01*
X14342573Y-8282573D02*
G75*
G02*
X14372573Y-8282573I15000J0D01*
G01*
X14490000Y-7850000D02*
G75*
G02*
X14460000Y-7850000I-15000J0D01*
G01*
X14460000Y-7850000D02*
G75*
G02*
X14490000Y-7850000I15000J0D01*
G01*
X14580215Y-7829983D02*
G75*
G02*
X14550215Y-7829983I-15000J0D01*
G01*
X14550215Y-7829983D02*
G75*
G02*
X14580215Y-7829983I15000J0D01*
G01*
X14620000Y-8046737D02*
G75*
G02*
X14590000Y-8046737I-15000J0D01*
G01*
X14590000Y-8046737D02*
G75*
G02*
X14620000Y-8046737I15000J0D01*
G01*
X14620000Y-7954437D02*
G75*
G02*
X14590000Y-7954437I-15000J0D01*
G01*
X14590000Y-7954437D02*
G75*
G02*
X14620000Y-7954437I15000J0D01*
G01*
X14634926Y-8319926D02*
G75*
G02*
X14604926Y-8319926I-15000J0D01*
G01*
X14604926Y-8319926D02*
G75*
G02*
X14634926Y-8319926I15000J0D01*
G01*
X14660216Y-7830131D02*
G75*
G02*
X14630216Y-7830131I-15000J0D01*
G01*
X14630216Y-7830131D02*
G75*
G02*
X14660216Y-7830131I15000J0D01*
G01*
X14660998Y-8115434D02*
G75*
G02*
X14630998Y-8115434I-15000J0D01*
G01*
X14630998Y-8115434D02*
G75*
G02*
X14660998Y-8115434I15000J0D01*
G01*
X14665000Y-10600000D02*
G75*
G02*
X14635000Y-10600000I-15000J0D01*
G01*
X14635000Y-10600000D02*
G75*
G02*
X14665000Y-10600000I15000J0D01*
G01*
X14716565Y-6945725D02*
G75*
G02*
X14686565Y-6945725I-15000J0D01*
G01*
X14686565Y-6945725D02*
G75*
G02*
X14716565Y-6945725I15000J0D01*
G01*
X14730000Y-7732390D02*
G75*
G02*
X14700000Y-7732390I-15000J0D01*
G01*
X14700000Y-7732390D02*
G75*
G02*
X14730000Y-7732390I15000J0D01*
G01*
X14740000Y-8425000D02*
G75*
G02*
X14710000Y-8425000I-15000J0D01*
G01*
X14710000Y-8425000D02*
G75*
G02*
X14740000Y-8425000I15000J0D01*
G01*
X14790000Y-7100000D02*
G75*
G02*
X14760000Y-7100000I-15000J0D01*
G01*
X14760000Y-7100000D02*
G75*
G02*
X14790000Y-7100000I15000J0D01*
G01*
X14790000Y-10025000D02*
G75*
G02*
X14760000Y-10025000I-15000J0D01*
G01*
X14760000Y-10025000D02*
G75*
G02*
X14790000Y-10025000I15000J0D01*
G01*
X14848000Y-7453863D02*
G75*
G02*
X14818000Y-7453863I-15000J0D01*
G01*
X14818000Y-7453863D02*
G75*
G02*
X14848000Y-7453863I15000J0D01*
G01*
X14880000Y-7635000D02*
G75*
G02*
X14850000Y-7635000I-15000J0D01*
G01*
X14850000Y-7635000D02*
G75*
G02*
X14880000Y-7635000I15000J0D01*
G01*
X14883122Y-8361304D02*
G75*
G02*
X14853122Y-8361304I-15000J0D01*
G01*
X14853122Y-8361304D02*
G75*
G02*
X14883122Y-8361304I15000J0D01*
G01*
X14890000Y-9050000D02*
G75*
G02*
X14860000Y-9050000I-15000J0D01*
G01*
X14860000Y-9050000D02*
G75*
G02*
X14890000Y-9050000I15000J0D01*
G01*
X14890000Y-9475000D02*
G75*
G02*
X14860000Y-9475000I-15000J0D01*
G01*
X14860000Y-9475000D02*
G75*
G02*
X14890000Y-9475000I15000J0D01*
G01*
X14940000Y-7150000D02*
G75*
G02*
X14910000Y-7150000I-15000J0D01*
G01*
X14910000Y-7150000D02*
G75*
G02*
X14940000Y-7150000I15000J0D01*
G01*
X14990000Y-9845000D02*
G75*
G02*
X14960000Y-9845000I-15000J0D01*
G01*
X14960000Y-9845000D02*
G75*
G02*
X14990000Y-9845000I15000J0D01*
G01*
X14990000Y-10375000D02*
G75*
G02*
X14960000Y-10375000I-15000J0D01*
G01*
X14960000Y-10375000D02*
G75*
G02*
X14990000Y-10375000I15000J0D01*
G01*
X15031542Y-7587174D02*
G75*
G02*
X15001542Y-7587174I-15000J0D01*
G01*
X15001542Y-7587174D02*
G75*
G02*
X15031542Y-7587174I15000J0D01*
G01*
X15032847Y-7501017D02*
G75*
G02*
X15002847Y-7501017I-15000J0D01*
G01*
X15002847Y-7501017D02*
G75*
G02*
X15032847Y-7501017I15000J0D01*
G01*
X15048999Y-7665246D02*
G75*
G02*
X15018999Y-7665246I-15000J0D01*
G01*
X15018999Y-7665246D02*
G75*
G02*
X15048999Y-7665246I15000J0D01*
G01*
X15065535Y-7428000D02*
G75*
G02*
X15035535Y-7428000I-15000J0D01*
G01*
X15035535Y-7428000D02*
G75*
G02*
X15065535Y-7428000I15000J0D01*
G01*
X15143708Y-7411000D02*
G75*
G02*
X15113708Y-7411000I-15000J0D01*
G01*
X15113708Y-7411000D02*
G75*
G02*
X15143708Y-7411000I15000J0D01*
G01*
X15165000Y-6150000D02*
G75*
G02*
X15135000Y-6150000I-15000J0D01*
G01*
X15135000Y-6150000D02*
G75*
G02*
X15165000Y-6150000I15000J0D01*
G01*
X15168999Y-7665000D02*
G75*
G02*
X15138999Y-7665000I-15000J0D01*
G01*
X15138999Y-7665000D02*
G75*
G02*
X15168999Y-7665000I15000J0D01*
G01*
X15215000Y-7000000D02*
G75*
G02*
X15185000Y-7000000I-15000J0D01*
G01*
X15185000Y-7000000D02*
G75*
G02*
X15215000Y-7000000I15000J0D01*
G01*
X15215000Y-7275000D02*
G75*
G02*
X15185000Y-7275000I-15000J0D01*
G01*
X15185000Y-7275000D02*
G75*
G02*
X15215000Y-7275000I15000J0D01*
G01*
X15215000Y-8454927D02*
G75*
G02*
X15185000Y-8454927I-15000J0D01*
G01*
X15185000Y-8454927D02*
G75*
G02*
X15215000Y-8454927I15000J0D01*
G01*
X15228542Y-8173785D02*
G75*
G02*
X15198542Y-8173785I-15000J0D01*
G01*
X15198542Y-8173785D02*
G75*
G02*
X15228542Y-8173785I15000J0D01*
G01*
X15240000Y-5625000D02*
G75*
G02*
X15210000Y-5625000I-15000J0D01*
G01*
X15210000Y-5625000D02*
G75*
G02*
X15240000Y-5625000I15000J0D01*
G01*
X15240000Y-6675000D02*
G75*
G02*
X15210000Y-6675000I-15000J0D01*
G01*
X15210000Y-6675000D02*
G75*
G02*
X15240000Y-6675000I15000J0D01*
G01*
X15290000Y-8650000D02*
G75*
G02*
X15260000Y-8650000I-15000J0D01*
G01*
X15260000Y-8650000D02*
G75*
G02*
X15290000Y-8650000I15000J0D01*
G01*
X15290000Y-9050000D02*
G75*
G02*
X15260000Y-9050000I-15000J0D01*
G01*
X15260000Y-9050000D02*
G75*
G02*
X15290000Y-9050000I15000J0D01*
G01*
X15291201Y-8124047D02*
G75*
G02*
X15261201Y-8124047I-15000J0D01*
G01*
X15261201Y-8124047D02*
G75*
G02*
X15291201Y-8124047I15000J0D01*
G01*
X15340000Y-9375000D02*
G75*
G02*
X15310000Y-9375000I-15000J0D01*
G01*
X15310000Y-9375000D02*
G75*
G02*
X15340000Y-9375000I15000J0D01*
G01*
X15415000Y-9050000D02*
G75*
G02*
X15385000Y-9050000I-15000J0D01*
G01*
X15385000Y-9050000D02*
G75*
G02*
X15415000Y-9050000I15000J0D01*
G01*
X15490000Y-7375000D02*
G75*
G02*
X15460000Y-7375000I-15000J0D01*
G01*
X15460000Y-7375000D02*
G75*
G02*
X15490000Y-7375000I15000J0D01*
G01*
X15490000Y-9175000D02*
G75*
G02*
X15460000Y-9175000I-15000J0D01*
G01*
X15460000Y-9175000D02*
G75*
G02*
X15490000Y-9175000I15000J0D01*
G01*
X15490000Y-9775000D02*
G75*
G02*
X15460000Y-9775000I-15000J0D01*
G01*
X15460000Y-9775000D02*
G75*
G02*
X15490000Y-9775000I15000J0D01*
G01*
X15535000Y-6050000D02*
G75*
G02*
X15505000Y-6050000I-15000J0D01*
G01*
X15505000Y-6050000D02*
G75*
G02*
X15535000Y-6050000I15000J0D01*
G01*
X10518000Y-5290000D02*
X10518000Y-5350000D01*
X10488000Y-5320000D02*
X10548000Y-5320000D01*
X10488000Y-5290000D02*
X10488000Y-5350000D01*
X10548000Y-5350000D02*
G75*
G02*
X10488000Y-5350000I-30000J0D01*
G01*
X10548000Y-5350000D02*
X10548000Y-5290000D01*
X10548000Y-5290000D02*
G75*
G03*
X10488000Y-5290000I-30000J0D01*
G01*
X10518000Y-5708000D02*
X10518000Y-5768000D01*
X10488000Y-5738000D02*
X10548000Y-5738000D01*
X10488000Y-5683000D02*
X10488000Y-5793000D01*
X10548000Y-5793000D02*
G75*
G02*
X10488000Y-5793000I-30000J0D01*
G01*
X10548000Y-5793000D02*
X10548000Y-5683000D01*
X10548000Y-5683000D02*
G75*
G03*
X10488000Y-5683000I-30000J0D01*
G01*
X11382000Y-5290000D02*
X11382000Y-5350000D01*
X11352000Y-5320000D02*
X11412000Y-5320000D01*
X11352000Y-5290000D02*
X11352000Y-5350000D01*
X11412000Y-5350000D02*
G75*
G02*
X11352000Y-5350000I-30000J0D01*
G01*
X11412000Y-5350000D02*
X11412000Y-5290000D01*
X11412000Y-5290000D02*
G75*
G03*
X11352000Y-5290000I-30000J0D01*
G01*
X11382000Y-5708000D02*
X11382000Y-5768000D01*
X11352000Y-5738000D02*
X11412000Y-5738000D01*
X11352000Y-5683000D02*
X11352000Y-5793000D01*
X11412000Y-5793000D02*
G75*
G02*
X11352000Y-5793000I-30000J0D01*
G01*
X11412000Y-5793000D02*
X11412000Y-5683000D01*
X11412000Y-5683000D02*
G75*
G03*
X11352000Y-5683000I-30000J0D01*
G01*
X11668000Y-5290000D02*
X11668000Y-5350000D01*
X11638000Y-5320000D02*
X11698000Y-5320000D01*
X11638000Y-5290000D02*
X11638000Y-5350000D01*
X11698000Y-5350000D02*
G75*
G02*
X11638000Y-5350000I-30000J0D01*
G01*
X11698000Y-5350000D02*
X11698000Y-5290000D01*
X11698000Y-5290000D02*
G75*
G03*
X11638000Y-5290000I-30000J0D01*
G01*
X11668000Y-5708000D02*
X11668000Y-5768000D01*
X11638000Y-5738000D02*
X11698000Y-5738000D01*
X11638000Y-5683000D02*
X11638000Y-5793000D01*
X11698000Y-5793000D02*
G75*
G02*
X11638000Y-5793000I-30000J0D01*
G01*
X11698000Y-5793000D02*
X11698000Y-5683000D01*
X11698000Y-5683000D02*
G75*
G03*
X11638000Y-5683000I-30000J0D01*
G01*
X12532000Y-5290000D02*
X12532000Y-5350000D01*
X12502000Y-5320000D02*
X12562000Y-5320000D01*
X12502000Y-5290000D02*
X12502000Y-5350000D01*
X12562000Y-5350000D02*
G75*
G02*
X12502000Y-5350000I-30000J0D01*
G01*
X12562000Y-5350000D02*
X12562000Y-5290000D01*
X12562000Y-5290000D02*
G75*
G03*
X12502000Y-5290000I-30000J0D01*
G01*
X12532000Y-5708000D02*
X12532000Y-5768000D01*
X12502000Y-5738000D02*
X12562000Y-5738000D01*
X12502000Y-5683000D02*
X12502000Y-5793000D01*
X12562000Y-5793000D02*
G75*
G02*
X12502000Y-5793000I-30000J0D01*
G01*
X12562000Y-5793000D02*
X12562000Y-5683000D01*
X12562000Y-5683000D02*
G75*
G03*
X12502000Y-5683000I-30000J0D01*
G01*
X12818000Y-5290000D02*
X12818000Y-5350000D01*
X12788000Y-5320000D02*
X12848000Y-5320000D01*
X12788000Y-5290000D02*
X12788000Y-5350000D01*
X12848000Y-5350000D02*
G75*
G02*
X12788000Y-5350000I-30000J0D01*
G01*
X12848000Y-5350000D02*
X12848000Y-5290000D01*
X12848000Y-5290000D02*
G75*
G03*
X12788000Y-5290000I-30000J0D01*
G01*
X12818000Y-5708000D02*
X12818000Y-5768000D01*
X12788000Y-5738000D02*
X12848000Y-5738000D01*
X12788000Y-5683000D02*
X12788000Y-5793000D01*
X12848000Y-5793000D02*
G75*
G02*
X12788000Y-5793000I-30000J0D01*
G01*
X12848000Y-5793000D02*
X12848000Y-5683000D01*
X12848000Y-5683000D02*
G75*
G03*
X12788000Y-5683000I-30000J0D01*
G01*
X13682000Y-5290000D02*
X13682000Y-5350000D01*
X13652000Y-5320000D02*
X13712000Y-5320000D01*
X13652000Y-5290000D02*
X13652000Y-5350000D01*
X13712000Y-5350000D02*
G75*
G02*
X13652000Y-5350000I-30000J0D01*
G01*
X13712000Y-5350000D02*
X13712000Y-5290000D01*
X13712000Y-5290000D02*
G75*
G03*
X13652000Y-5290000I-30000J0D01*
G01*
X13682000Y-5708000D02*
X13682000Y-5768000D01*
X13652000Y-5738000D02*
X13712000Y-5738000D01*
X13652000Y-5683000D02*
X13652000Y-5793000D01*
X13712000Y-5793000D02*
G75*
G02*
X13652000Y-5793000I-30000J0D01*
G01*
X13712000Y-5793000D02*
X13712000Y-5683000D01*
X13712000Y-5683000D02*
G75*
G03*
X13652000Y-5683000I-30000J0D01*
G01*
X10185356Y-7796356D02*
X10185356Y-7725644D01*
X10114644Y-7725644D01*
X10114644Y-7796356D01*
X10185356Y-7796356D01*
X10185356Y-8050356D02*
X10185356Y-7979644D01*
X10114644Y-7979644D01*
X10114644Y-8050356D01*
X10185356Y-8050356D01*
X10185356Y-8304356D02*
X10185356Y-8233644D01*
X10114644Y-8233644D01*
X10114644Y-8304356D01*
X10185356Y-8304356D01*
X10185356Y-8558356D02*
X10185356Y-8487644D01*
X10114644Y-8487644D01*
X10114644Y-8558356D01*
X10185356Y-8558356D01*
X10185356Y-8812356D02*
X10185356Y-8741644D01*
X10114644Y-8741644D01*
X10114644Y-8812356D01*
X10185356Y-8812356D01*
X10185356Y-9066356D02*
X10185356Y-8995644D01*
X10114644Y-8995644D01*
X10114644Y-9066356D01*
X10185356Y-9066356D01*
X10185356Y-9320356D02*
X10185356Y-9249644D01*
X10114644Y-9249644D01*
X10114644Y-9320356D01*
X10185356Y-9320356D01*
X10185356Y-9574356D02*
X10185356Y-9503644D01*
X10114644Y-9503644D01*
X10114644Y-9574356D01*
X10185356Y-9574356D01*
X10195356Y-5753356D02*
X10195356Y-5682644D01*
X10124644Y-5682644D01*
X10124644Y-5753356D01*
X10195356Y-5753356D01*
X10195356Y-6007356D02*
X10195356Y-5936644D01*
X10124644Y-5936644D01*
X10124644Y-6007356D01*
X10195356Y-6007356D01*
X10195356Y-6261356D02*
X10195356Y-6190644D01*
X10124644Y-6190644D01*
X10124644Y-6261356D01*
X10195356Y-6261356D01*
X10195356Y-6515356D02*
X10195356Y-6444644D01*
X10124644Y-6444644D01*
X10124644Y-6515356D01*
X10195356Y-6515356D01*
X12760356Y-10085356D02*
X12760356Y-10014644D01*
X12689644Y-10014644D01*
X12689644Y-10085356D01*
X12760356Y-10085356D01*
X13135356Y-10085356D02*
X13135356Y-10014644D01*
X13064644Y-10014644D01*
X13064644Y-10085356D01*
X13135356Y-10085356D01*
X13510356Y-10085356D02*
X13510356Y-10014644D01*
X13439644Y-10014644D01*
X13439644Y-10085356D01*
X13510356Y-10085356D01*
X14010356Y-5935356D02*
X14010356Y-5864644D01*
X13939644Y-5864644D01*
X13939644Y-5935356D01*
X14010356Y-5935356D01*
X14010356Y-6435356D02*
X14010356Y-6364644D01*
X13939644Y-6364644D01*
X13939644Y-6435356D01*
X14010356Y-6435356D01*
X15460356Y-5935356D02*
X15460356Y-5864644D01*
X15389644Y-5864644D01*
X15389644Y-5935356D01*
X15460356Y-5935356D01*
X15460356Y-6185356D02*
X15460356Y-6114644D01*
X15389644Y-6114644D01*
X15389644Y-6185356D01*
X15460356Y-6185356D01*
X15460356Y-6435356D02*
X15460356Y-6364644D01*
X15389644Y-6364644D01*
X15389644Y-6435356D01*
X15460356Y-6435356D01*
D14*
X10569000Y-11371000D02*
X10644000Y-11296000D01*
X10569000Y-11221000D01*
X10494000Y-11296000D01*
X10569000Y-11371000D01*
X11204000Y-11117000D02*
X11279000Y-11042000D01*
X11204000Y-10967000D01*
X11129000Y-11042000D01*
X11204000Y-11117000D01*
X12419000Y-11371000D02*
X12494000Y-11296000D01*
X12419000Y-11221000D01*
X12344000Y-11296000D01*
X12419000Y-11371000D01*
X13054000Y-11117000D02*
X13129000Y-11042000D01*
X13054000Y-10967000D01*
X12979000Y-11042000D01*
X13054000Y-11117000D01*
X14269000Y-11371000D02*
X14344000Y-11296000D01*
X14269000Y-11221000D01*
X14194000Y-11296000D01*
X14269000Y-11371000D01*
X14675000Y-5665000D02*
X14750000Y-5590000D01*
X14675000Y-5515000D01*
X14600000Y-5590000D01*
X14675000Y-5665000D01*
D13*
X14740000Y-5515000D02*
X14610000Y-5515000D01*
X14610000Y-5665000D02*
G75*
G02*
X14610000Y-5515000I0J75000D01*
G01*
X14610000Y-5665000D02*
X14740000Y-5665000D01*
X14740000Y-5665000D02*
G75*
G03*
X14740000Y-5515000I0J75000D01*
G01*
D14*
X14675000Y-6785000D02*
X14750000Y-6710000D01*
X14675000Y-6635000D01*
X14600000Y-6710000D01*
X14675000Y-6785000D01*
D13*
X14740000Y-6635000D02*
X14610000Y-6635000D01*
X14610000Y-6785000D02*
G75*
G02*
X14610000Y-6635000I0J75000D01*
G01*
X14610000Y-6785000D02*
X14740000Y-6785000D01*
X14740000Y-6785000D02*
G75*
G03*
X14740000Y-6635000I0J75000D01*
G01*
D14*
X14904000Y-11117000D02*
X14979000Y-11042000D01*
X14904000Y-10967000D01*
X14829000Y-11042000D01*
X14904000Y-11117000D01*
D12*
X10258277Y-13313984D02*
X10258277Y-13113984D01*
X10258277Y-13113984D02*
X10305896Y-13113984D01*
X10305896Y-13113984D02*
X10334467Y-13123508D01*
X10334467Y-13123508D02*
X10353515Y-13142555D01*
X10353515Y-13142555D02*
X10363039Y-13161603D01*
X10363039Y-13161603D02*
X10372563Y-13199698D01*
X10372563Y-13199698D02*
X10372563Y-13228269D01*
X10372563Y-13228269D02*
X10363039Y-13266365D01*
X10363039Y-13266365D02*
X10353515Y-13285412D01*
X10353515Y-13285412D02*
X10334467Y-13304460D01*
X10334467Y-13304460D02*
X10305896Y-13313984D01*
X10305896Y-13313984D02*
X10258277Y-13313984D01*
X10458277Y-13313984D02*
X10458277Y-13180650D01*
X10458277Y-13218746D02*
X10467801Y-13199698D01*
X10467801Y-13199698D02*
X10477324Y-13190174D01*
X10477324Y-13190174D02*
X10496372Y-13180650D01*
X10496372Y-13180650D02*
X10515420Y-13180650D01*
X10582086Y-13313984D02*
X10582086Y-13180650D01*
X10582086Y-13113984D02*
X10572563Y-13123508D01*
X10572563Y-13123508D02*
X10582086Y-13133031D01*
X10582086Y-13133031D02*
X10591610Y-13123508D01*
X10591610Y-13123508D02*
X10582086Y-13113984D01*
X10582086Y-13113984D02*
X10582086Y-13133031D01*
X10705896Y-13313984D02*
X10686848Y-13304460D01*
X10686848Y-13304460D02*
X10677324Y-13285412D01*
X10677324Y-13285412D02*
X10677324Y-13113984D01*
X10810658Y-13313984D02*
X10791610Y-13304460D01*
X10791610Y-13304460D02*
X10782086Y-13285412D01*
X10782086Y-13285412D02*
X10782086Y-13113984D01*
X11039229Y-13313984D02*
X11039229Y-13113984D01*
X11039229Y-13113984D02*
X11105896Y-13256841D01*
X11105896Y-13256841D02*
X11172563Y-13113984D01*
X11172563Y-13113984D02*
X11172563Y-13313984D01*
X11353515Y-13313984D02*
X11353515Y-13209222D01*
X11353515Y-13209222D02*
X11343991Y-13190174D01*
X11343991Y-13190174D02*
X11324943Y-13180650D01*
X11324943Y-13180650D02*
X11286848Y-13180650D01*
X11286848Y-13180650D02*
X11267801Y-13190174D01*
X11353515Y-13304460D02*
X11334467Y-13313984D01*
X11334467Y-13313984D02*
X11286848Y-13313984D01*
X11286848Y-13313984D02*
X11267801Y-13304460D01*
X11267801Y-13304460D02*
X11258277Y-13285412D01*
X11258277Y-13285412D02*
X11258277Y-13266365D01*
X11258277Y-13266365D02*
X11267801Y-13247317D01*
X11267801Y-13247317D02*
X11286848Y-13237793D01*
X11286848Y-13237793D02*
X11334467Y-13237793D01*
X11334467Y-13237793D02*
X11353515Y-13228269D01*
X11448753Y-13180650D02*
X11448753Y-13380650D01*
X11448753Y-13190174D02*
X11467801Y-13180650D01*
X11467801Y-13180650D02*
X11505896Y-13180650D01*
X11505896Y-13180650D02*
X11524943Y-13190174D01*
X11524943Y-13190174D02*
X11534467Y-13199698D01*
X11534467Y-13199698D02*
X11543991Y-13218746D01*
X11543991Y-13218746D02*
X11543991Y-13275888D01*
X11543991Y-13275888D02*
X11534467Y-13294936D01*
X11534467Y-13294936D02*
X11524943Y-13304460D01*
X11524943Y-13304460D02*
X11505896Y-13313984D01*
X11505896Y-13313984D02*
X11467801Y-13313984D01*
X11467801Y-13313984D02*
X11448753Y-13304460D01*
X11629705Y-13294936D02*
X11639229Y-13304460D01*
X11639229Y-13304460D02*
X11629705Y-13313984D01*
X11629705Y-13313984D02*
X11620182Y-13304460D01*
X11620182Y-13304460D02*
X11629705Y-13294936D01*
X11629705Y-13294936D02*
X11629705Y-13313984D01*
X11629705Y-13190174D02*
X11639229Y-13199698D01*
X11639229Y-13199698D02*
X11629705Y-13209222D01*
X11629705Y-13209222D02*
X11620182Y-13199698D01*
X11620182Y-13199698D02*
X11629705Y-13190174D01*
X11629705Y-13190174D02*
X11629705Y-13209222D01*
D13*
X9977500Y-13632500D02*
X9997500Y-13652500D01*
X9997500Y-13632500D02*
X9977500Y-13652500D01*
D12*
X10296372Y-13533984D02*
X10315420Y-13533984D01*
X10315420Y-13533984D02*
X10334467Y-13543508D01*
X10334467Y-13543508D02*
X10343991Y-13553031D01*
X10343991Y-13553031D02*
X10353515Y-13572079D01*
X10353515Y-13572079D02*
X10363039Y-13610174D01*
X10363039Y-13610174D02*
X10363039Y-13657793D01*
X10363039Y-13657793D02*
X10353515Y-13695888D01*
X10353515Y-13695888D02*
X10343991Y-13714936D01*
X10343991Y-13714936D02*
X10334467Y-13724460D01*
X10334467Y-13724460D02*
X10315420Y-13733984D01*
X10315420Y-13733984D02*
X10296372Y-13733984D01*
X10296372Y-13733984D02*
X10277324Y-13724460D01*
X10277324Y-13724460D02*
X10267801Y-13714936D01*
X10267801Y-13714936D02*
X10258277Y-13695888D01*
X10258277Y-13695888D02*
X10248753Y-13657793D01*
X10248753Y-13657793D02*
X10248753Y-13610174D01*
X10248753Y-13610174D02*
X10258277Y-13572079D01*
X10258277Y-13572079D02*
X10267801Y-13553031D01*
X10267801Y-13553031D02*
X10277324Y-13543508D01*
X10277324Y-13543508D02*
X10296372Y-13533984D01*
X10448753Y-13714936D02*
X10458277Y-13724460D01*
X10458277Y-13724460D02*
X10448753Y-13733984D01*
X10448753Y-13733984D02*
X10439229Y-13724460D01*
X10439229Y-13724460D02*
X10448753Y-13714936D01*
X10448753Y-13714936D02*
X10448753Y-13733984D01*
X10534467Y-13553031D02*
X10543991Y-13543508D01*
X10543991Y-13543508D02*
X10563039Y-13533984D01*
X10563039Y-13533984D02*
X10610658Y-13533984D01*
X10610658Y-13533984D02*
X10629705Y-13543508D01*
X10629705Y-13543508D02*
X10639229Y-13553031D01*
X10639229Y-13553031D02*
X10648753Y-13572079D01*
X10648753Y-13572079D02*
X10648753Y-13591127D01*
X10648753Y-13591127D02*
X10639229Y-13619698D01*
X10639229Y-13619698D02*
X10524944Y-13733984D01*
X10524944Y-13733984D02*
X10648753Y-13733984D01*
X10772563Y-13533984D02*
X10791610Y-13533984D01*
X10791610Y-13533984D02*
X10810658Y-13543508D01*
X10810658Y-13543508D02*
X10820182Y-13553031D01*
X10820182Y-13553031D02*
X10829705Y-13572079D01*
X10829705Y-13572079D02*
X10839229Y-13610174D01*
X10839229Y-13610174D02*
X10839229Y-13657793D01*
X10839229Y-13657793D02*
X10829705Y-13695888D01*
X10829705Y-13695888D02*
X10820182Y-13714936D01*
X10820182Y-13714936D02*
X10810658Y-13724460D01*
X10810658Y-13724460D02*
X10791610Y-13733984D01*
X10791610Y-13733984D02*
X10772563Y-13733984D01*
X10772563Y-13733984D02*
X10753515Y-13724460D01*
X10753515Y-13724460D02*
X10743991Y-13714936D01*
X10743991Y-13714936D02*
X10734467Y-13695888D01*
X10734467Y-13695888D02*
X10724944Y-13657793D01*
X10724944Y-13657793D02*
X10724944Y-13610174D01*
X10724944Y-13610174D02*
X10734467Y-13572079D01*
X10734467Y-13572079D02*
X10743991Y-13553031D01*
X10743991Y-13553031D02*
X10753515Y-13543508D01*
X10753515Y-13543508D02*
X10772563Y-13533984D01*
X10963039Y-13533984D02*
X10982086Y-13533984D01*
X10982086Y-13533984D02*
X11001134Y-13543508D01*
X11001134Y-13543508D02*
X11010658Y-13553031D01*
X11010658Y-13553031D02*
X11020182Y-13572079D01*
X11020182Y-13572079D02*
X11029705Y-13610174D01*
X11029705Y-13610174D02*
X11029705Y-13657793D01*
X11029705Y-13657793D02*
X11020182Y-13695888D01*
X11020182Y-13695888D02*
X11010658Y-13714936D01*
X11010658Y-13714936D02*
X11001134Y-13724460D01*
X11001134Y-13724460D02*
X10982086Y-13733984D01*
X10982086Y-13733984D02*
X10963039Y-13733984D01*
X10963039Y-13733984D02*
X10943991Y-13724460D01*
X10943991Y-13724460D02*
X10934467Y-13714936D01*
X10934467Y-13714936D02*
X10924944Y-13695888D01*
X10924944Y-13695888D02*
X10915420Y-13657793D01*
X10915420Y-13657793D02*
X10915420Y-13610174D01*
X10915420Y-13610174D02*
X10924944Y-13572079D01*
X10924944Y-13572079D02*
X10934467Y-13553031D01*
X10934467Y-13553031D02*
X10943991Y-13543508D01*
X10943991Y-13543508D02*
X10963039Y-13533984D01*
X11115420Y-13733984D02*
X11115420Y-13600650D01*
X11115420Y-13619698D02*
X11124944Y-13610174D01*
X11124944Y-13610174D02*
X11143991Y-13600650D01*
X11143991Y-13600650D02*
X11172563Y-13600650D01*
X11172563Y-13600650D02*
X11191610Y-13610174D01*
X11191610Y-13610174D02*
X11201134Y-13629222D01*
X11201134Y-13629222D02*
X11201134Y-13733984D01*
X11201134Y-13629222D02*
X11210658Y-13610174D01*
X11210658Y-13610174D02*
X11229705Y-13600650D01*
X11229705Y-13600650D02*
X11258277Y-13600650D01*
X11258277Y-13600650D02*
X11277324Y-13610174D01*
X11277324Y-13610174D02*
X11286848Y-13629222D01*
X11286848Y-13629222D02*
X11286848Y-13733984D01*
X11382086Y-13733984D02*
X11382086Y-13600650D01*
X11382086Y-13619698D02*
X11391610Y-13610174D01*
X11391610Y-13610174D02*
X11410658Y-13600650D01*
X11410658Y-13600650D02*
X11439229Y-13600650D01*
X11439229Y-13600650D02*
X11458277Y-13610174D01*
X11458277Y-13610174D02*
X11467801Y-13629222D01*
X11467801Y-13629222D02*
X11467801Y-13733984D01*
X11467801Y-13629222D02*
X11477324Y-13610174D01*
X11477324Y-13610174D02*
X11496372Y-13600650D01*
X11496372Y-13600650D02*
X11524943Y-13600650D01*
X11524943Y-13600650D02*
X11543991Y-13610174D01*
X11543991Y-13610174D02*
X11553515Y-13629222D01*
X11553515Y-13629222D02*
X11553515Y-13733984D01*
X11943991Y-13524460D02*
X11772563Y-13781603D01*
X12201134Y-13533984D02*
X12220182Y-13533984D01*
X12220182Y-13533984D02*
X12239229Y-13543508D01*
X12239229Y-13543508D02*
X12248753Y-13553031D01*
X12248753Y-13553031D02*
X12258277Y-13572079D01*
X12258277Y-13572079D02*
X12267801Y-13610174D01*
X12267801Y-13610174D02*
X12267801Y-13657793D01*
X12267801Y-13657793D02*
X12258277Y-13695888D01*
X12258277Y-13695888D02*
X12248753Y-13714936D01*
X12248753Y-13714936D02*
X12239229Y-13724460D01*
X12239229Y-13724460D02*
X12220182Y-13733984D01*
X12220182Y-13733984D02*
X12201134Y-13733984D01*
X12201134Y-13733984D02*
X12182086Y-13724460D01*
X12182086Y-13724460D02*
X12172563Y-13714936D01*
X12172563Y-13714936D02*
X12163039Y-13695888D01*
X12163039Y-13695888D02*
X12153515Y-13657793D01*
X12153515Y-13657793D02*
X12153515Y-13610174D01*
X12153515Y-13610174D02*
X12163039Y-13572079D01*
X12163039Y-13572079D02*
X12172563Y-13553031D01*
X12172563Y-13553031D02*
X12182086Y-13543508D01*
X12182086Y-13543508D02*
X12201134Y-13533984D01*
X12353515Y-13714936D02*
X12363039Y-13724460D01*
X12363039Y-13724460D02*
X12353515Y-13733984D01*
X12353515Y-13733984D02*
X12343991Y-13724460D01*
X12343991Y-13724460D02*
X12353515Y-13714936D01*
X12353515Y-13714936D02*
X12353515Y-13733984D01*
X12486848Y-13533984D02*
X12505896Y-13533984D01*
X12505896Y-13533984D02*
X12524944Y-13543508D01*
X12524944Y-13543508D02*
X12534467Y-13553031D01*
X12534467Y-13553031D02*
X12543991Y-13572079D01*
X12543991Y-13572079D02*
X12553515Y-13610174D01*
X12553515Y-13610174D02*
X12553515Y-13657793D01*
X12553515Y-13657793D02*
X12543991Y-13695888D01*
X12543991Y-13695888D02*
X12534467Y-13714936D01*
X12534467Y-13714936D02*
X12524944Y-13724460D01*
X12524944Y-13724460D02*
X12505896Y-13733984D01*
X12505896Y-13733984D02*
X12486848Y-13733984D01*
X12486848Y-13733984D02*
X12467801Y-13724460D01*
X12467801Y-13724460D02*
X12458277Y-13714936D01*
X12458277Y-13714936D02*
X12448753Y-13695888D01*
X12448753Y-13695888D02*
X12439229Y-13657793D01*
X12439229Y-13657793D02*
X12439229Y-13610174D01*
X12439229Y-13610174D02*
X12448753Y-13572079D01*
X12448753Y-13572079D02*
X12458277Y-13553031D01*
X12458277Y-13553031D02*
X12467801Y-13543508D01*
X12467801Y-13543508D02*
X12486848Y-13533984D01*
X12677325Y-13533984D02*
X12696372Y-13533984D01*
X12696372Y-13533984D02*
X12715420Y-13543508D01*
X12715420Y-13543508D02*
X12724944Y-13553031D01*
X12724944Y-13553031D02*
X12734467Y-13572079D01*
X12734467Y-13572079D02*
X12743991Y-13610174D01*
X12743991Y-13610174D02*
X12743991Y-13657793D01*
X12743991Y-13657793D02*
X12734467Y-13695888D01*
X12734467Y-13695888D02*
X12724944Y-13714936D01*
X12724944Y-13714936D02*
X12715420Y-13724460D01*
X12715420Y-13724460D02*
X12696372Y-13733984D01*
X12696372Y-13733984D02*
X12677325Y-13733984D01*
X12677325Y-13733984D02*
X12658277Y-13724460D01*
X12658277Y-13724460D02*
X12648753Y-13714936D01*
X12648753Y-13714936D02*
X12639229Y-13695888D01*
X12639229Y-13695888D02*
X12629706Y-13657793D01*
X12629706Y-13657793D02*
X12629706Y-13610174D01*
X12629706Y-13610174D02*
X12639229Y-13572079D01*
X12639229Y-13572079D02*
X12648753Y-13553031D01*
X12648753Y-13553031D02*
X12658277Y-13543508D01*
X12658277Y-13543508D02*
X12677325Y-13533984D01*
X12810658Y-13533984D02*
X12943991Y-13533984D01*
X12943991Y-13533984D02*
X12858277Y-13733984D01*
X13029706Y-13733984D02*
X13067801Y-13733984D01*
X13067801Y-13733984D02*
X13086848Y-13724460D01*
X13086848Y-13724460D02*
X13096372Y-13714936D01*
X13096372Y-13714936D02*
X13115420Y-13686365D01*
X13115420Y-13686365D02*
X13124944Y-13648269D01*
X13124944Y-13648269D02*
X13124944Y-13572079D01*
X13124944Y-13572079D02*
X13115420Y-13553031D01*
X13115420Y-13553031D02*
X13105896Y-13543508D01*
X13105896Y-13543508D02*
X13086848Y-13533984D01*
X13086848Y-13533984D02*
X13048753Y-13533984D01*
X13048753Y-13533984D02*
X13029706Y-13543508D01*
X13029706Y-13543508D02*
X13020182Y-13553031D01*
X13020182Y-13553031D02*
X13010658Y-13572079D01*
X13010658Y-13572079D02*
X13010658Y-13619698D01*
X13010658Y-13619698D02*
X13020182Y-13638746D01*
X13020182Y-13638746D02*
X13029706Y-13648269D01*
X13029706Y-13648269D02*
X13048753Y-13657793D01*
X13048753Y-13657793D02*
X13086848Y-13657793D01*
X13086848Y-13657793D02*
X13105896Y-13648269D01*
X13105896Y-13648269D02*
X13115420Y-13638746D01*
X13115420Y-13638746D02*
X13124944Y-13619698D01*
X13201134Y-13533984D02*
X13201134Y-13572079D01*
X13277325Y-13533984D02*
X13277325Y-13572079D01*
X13572563Y-13810174D02*
X13563039Y-13800650D01*
X13563039Y-13800650D02*
X13543991Y-13772079D01*
X13543991Y-13772079D02*
X13534468Y-13753031D01*
X13534468Y-13753031D02*
X13524944Y-13724460D01*
X13524944Y-13724460D02*
X13515420Y-13676841D01*
X13515420Y-13676841D02*
X13515420Y-13638746D01*
X13515420Y-13638746D02*
X13524944Y-13591127D01*
X13524944Y-13591127D02*
X13534468Y-13562555D01*
X13534468Y-13562555D02*
X13543991Y-13543508D01*
X13543991Y-13543508D02*
X13563039Y-13514936D01*
X13563039Y-13514936D02*
X13572563Y-13505412D01*
X13734468Y-13600650D02*
X13734468Y-13733984D01*
X13686848Y-13524460D02*
X13639229Y-13667317D01*
X13639229Y-13667317D02*
X13763039Y-13667317D01*
X13991610Y-13733984D02*
X13991610Y-13533984D01*
X14077325Y-13733984D02*
X14077325Y-13629222D01*
X14077325Y-13629222D02*
X14067801Y-13610174D01*
X14067801Y-13610174D02*
X14048753Y-13600650D01*
X14048753Y-13600650D02*
X14020182Y-13600650D01*
X14020182Y-13600650D02*
X14001134Y-13610174D01*
X14001134Y-13610174D02*
X13991610Y-13619698D01*
X14201134Y-13733984D02*
X14182087Y-13724460D01*
X14182087Y-13724460D02*
X14172563Y-13714936D01*
X14172563Y-13714936D02*
X14163039Y-13695888D01*
X14163039Y-13695888D02*
X14163039Y-13638746D01*
X14163039Y-13638746D02*
X14172563Y-13619698D01*
X14172563Y-13619698D02*
X14182087Y-13610174D01*
X14182087Y-13610174D02*
X14201134Y-13600650D01*
X14201134Y-13600650D02*
X14229706Y-13600650D01*
X14229706Y-13600650D02*
X14248753Y-13610174D01*
X14248753Y-13610174D02*
X14258277Y-13619698D01*
X14258277Y-13619698D02*
X14267801Y-13638746D01*
X14267801Y-13638746D02*
X14267801Y-13695888D01*
X14267801Y-13695888D02*
X14258277Y-13714936D01*
X14258277Y-13714936D02*
X14248753Y-13724460D01*
X14248753Y-13724460D02*
X14229706Y-13733984D01*
X14229706Y-13733984D02*
X14201134Y-13733984D01*
X14382087Y-13733984D02*
X14363039Y-13724460D01*
X14363039Y-13724460D02*
X14353515Y-13705412D01*
X14353515Y-13705412D02*
X14353515Y-13533984D01*
X14534468Y-13724460D02*
X14515420Y-13733984D01*
X14515420Y-13733984D02*
X14477325Y-13733984D01*
X14477325Y-13733984D02*
X14458277Y-13724460D01*
X14458277Y-13724460D02*
X14448753Y-13705412D01*
X14448753Y-13705412D02*
X14448753Y-13629222D01*
X14448753Y-13629222D02*
X14458277Y-13610174D01*
X14458277Y-13610174D02*
X14477325Y-13600650D01*
X14477325Y-13600650D02*
X14515420Y-13600650D01*
X14515420Y-13600650D02*
X14534468Y-13610174D01*
X14534468Y-13610174D02*
X14543991Y-13629222D01*
X14543991Y-13629222D02*
X14543991Y-13648269D01*
X14543991Y-13648269D02*
X14448753Y-13667317D01*
X14620182Y-13724460D02*
X14639230Y-13733984D01*
X14639230Y-13733984D02*
X14677325Y-13733984D01*
X14677325Y-13733984D02*
X14696372Y-13724460D01*
X14696372Y-13724460D02*
X14705896Y-13705412D01*
X14705896Y-13705412D02*
X14705896Y-13695888D01*
X14705896Y-13695888D02*
X14696372Y-13676841D01*
X14696372Y-13676841D02*
X14677325Y-13667317D01*
X14677325Y-13667317D02*
X14648753Y-13667317D01*
X14648753Y-13667317D02*
X14629706Y-13657793D01*
X14629706Y-13657793D02*
X14620182Y-13638746D01*
X14620182Y-13638746D02*
X14620182Y-13629222D01*
X14620182Y-13629222D02*
X14629706Y-13610174D01*
X14629706Y-13610174D02*
X14648753Y-13600650D01*
X14648753Y-13600650D02*
X14677325Y-13600650D01*
X14677325Y-13600650D02*
X14696372Y-13610174D01*
X14772563Y-13810174D02*
X14782087Y-13800650D01*
X14782087Y-13800650D02*
X14801134Y-13772079D01*
X14801134Y-13772079D02*
X14810658Y-13753031D01*
X14810658Y-13753031D02*
X14820182Y-13724460D01*
X14820182Y-13724460D02*
X14829706Y-13676841D01*
X14829706Y-13676841D02*
X14829706Y-13638746D01*
X14829706Y-13638746D02*
X14820182Y-13591127D01*
X14820182Y-13591127D02*
X14810658Y-13562555D01*
X14810658Y-13562555D02*
X14801134Y-13543508D01*
X14801134Y-13543508D02*
X14782087Y-13514936D01*
X14782087Y-13514936D02*
X14772563Y-13505412D01*
D13*
X9997500Y-13906500D02*
G75*
G02*
X9967500Y-13906500I-15000J0D01*
G01*
X9967500Y-13906500D02*
G75*
G02*
X9997500Y-13906500I15000J0D01*
G01*
D12*
X10296372Y-13797984D02*
X10315420Y-13797984D01*
X10315420Y-13797984D02*
X10334467Y-13807508D01*
X10334467Y-13807508D02*
X10343991Y-13817031D01*
X10343991Y-13817031D02*
X10353515Y-13836079D01*
X10353515Y-13836079D02*
X10363039Y-13874174D01*
X10363039Y-13874174D02*
X10363039Y-13921793D01*
X10363039Y-13921793D02*
X10353515Y-13959888D01*
X10353515Y-13959888D02*
X10343991Y-13978936D01*
X10343991Y-13978936D02*
X10334467Y-13988460D01*
X10334467Y-13988460D02*
X10315420Y-13997984D01*
X10315420Y-13997984D02*
X10296372Y-13997984D01*
X10296372Y-13997984D02*
X10277324Y-13988460D01*
X10277324Y-13988460D02*
X10267801Y-13978936D01*
X10267801Y-13978936D02*
X10258277Y-13959888D01*
X10258277Y-13959888D02*
X10248753Y-13921793D01*
X10248753Y-13921793D02*
X10248753Y-13874174D01*
X10248753Y-13874174D02*
X10258277Y-13836079D01*
X10258277Y-13836079D02*
X10267801Y-13817031D01*
X10267801Y-13817031D02*
X10277324Y-13807508D01*
X10277324Y-13807508D02*
X10296372Y-13797984D01*
X10448753Y-13978936D02*
X10458277Y-13988460D01*
X10458277Y-13988460D02*
X10448753Y-13997984D01*
X10448753Y-13997984D02*
X10439229Y-13988460D01*
X10439229Y-13988460D02*
X10448753Y-13978936D01*
X10448753Y-13978936D02*
X10448753Y-13997984D01*
X10524944Y-13797984D02*
X10648753Y-13797984D01*
X10648753Y-13797984D02*
X10582086Y-13874174D01*
X10582086Y-13874174D02*
X10610658Y-13874174D01*
X10610658Y-13874174D02*
X10629705Y-13883698D01*
X10629705Y-13883698D02*
X10639229Y-13893222D01*
X10639229Y-13893222D02*
X10648753Y-13912269D01*
X10648753Y-13912269D02*
X10648753Y-13959888D01*
X10648753Y-13959888D02*
X10639229Y-13978936D01*
X10639229Y-13978936D02*
X10629705Y-13988460D01*
X10629705Y-13988460D02*
X10610658Y-13997984D01*
X10610658Y-13997984D02*
X10553515Y-13997984D01*
X10553515Y-13997984D02*
X10534467Y-13988460D01*
X10534467Y-13988460D02*
X10524944Y-13978936D01*
X10772563Y-13797984D02*
X10791610Y-13797984D01*
X10791610Y-13797984D02*
X10810658Y-13807508D01*
X10810658Y-13807508D02*
X10820182Y-13817031D01*
X10820182Y-13817031D02*
X10829705Y-13836079D01*
X10829705Y-13836079D02*
X10839229Y-13874174D01*
X10839229Y-13874174D02*
X10839229Y-13921793D01*
X10839229Y-13921793D02*
X10829705Y-13959888D01*
X10829705Y-13959888D02*
X10820182Y-13978936D01*
X10820182Y-13978936D02*
X10810658Y-13988460D01*
X10810658Y-13988460D02*
X10791610Y-13997984D01*
X10791610Y-13997984D02*
X10772563Y-13997984D01*
X10772563Y-13997984D02*
X10753515Y-13988460D01*
X10753515Y-13988460D02*
X10743991Y-13978936D01*
X10743991Y-13978936D02*
X10734467Y-13959888D01*
X10734467Y-13959888D02*
X10724944Y-13921793D01*
X10724944Y-13921793D02*
X10724944Y-13874174D01*
X10724944Y-13874174D02*
X10734467Y-13836079D01*
X10734467Y-13836079D02*
X10743991Y-13817031D01*
X10743991Y-13817031D02*
X10753515Y-13807508D01*
X10753515Y-13807508D02*
X10772563Y-13797984D01*
X10963039Y-13797984D02*
X10982086Y-13797984D01*
X10982086Y-13797984D02*
X11001134Y-13807508D01*
X11001134Y-13807508D02*
X11010658Y-13817031D01*
X11010658Y-13817031D02*
X11020182Y-13836079D01*
X11020182Y-13836079D02*
X11029705Y-13874174D01*
X11029705Y-13874174D02*
X11029705Y-13921793D01*
X11029705Y-13921793D02*
X11020182Y-13959888D01*
X11020182Y-13959888D02*
X11010658Y-13978936D01*
X11010658Y-13978936D02*
X11001134Y-13988460D01*
X11001134Y-13988460D02*
X10982086Y-13997984D01*
X10982086Y-13997984D02*
X10963039Y-13997984D01*
X10963039Y-13997984D02*
X10943991Y-13988460D01*
X10943991Y-13988460D02*
X10934467Y-13978936D01*
X10934467Y-13978936D02*
X10924944Y-13959888D01*
X10924944Y-13959888D02*
X10915420Y-13921793D01*
X10915420Y-13921793D02*
X10915420Y-13874174D01*
X10915420Y-13874174D02*
X10924944Y-13836079D01*
X10924944Y-13836079D02*
X10934467Y-13817031D01*
X10934467Y-13817031D02*
X10943991Y-13807508D01*
X10943991Y-13807508D02*
X10963039Y-13797984D01*
X11115420Y-13997984D02*
X11115420Y-13864650D01*
X11115420Y-13883698D02*
X11124944Y-13874174D01*
X11124944Y-13874174D02*
X11143991Y-13864650D01*
X11143991Y-13864650D02*
X11172563Y-13864650D01*
X11172563Y-13864650D02*
X11191610Y-13874174D01*
X11191610Y-13874174D02*
X11201134Y-13893222D01*
X11201134Y-13893222D02*
X11201134Y-13997984D01*
X11201134Y-13893222D02*
X11210658Y-13874174D01*
X11210658Y-13874174D02*
X11229705Y-13864650D01*
X11229705Y-13864650D02*
X11258277Y-13864650D01*
X11258277Y-13864650D02*
X11277324Y-13874174D01*
X11277324Y-13874174D02*
X11286848Y-13893222D01*
X11286848Y-13893222D02*
X11286848Y-13997984D01*
X11382086Y-13997984D02*
X11382086Y-13864650D01*
X11382086Y-13883698D02*
X11391610Y-13874174D01*
X11391610Y-13874174D02*
X11410658Y-13864650D01*
X11410658Y-13864650D02*
X11439229Y-13864650D01*
X11439229Y-13864650D02*
X11458277Y-13874174D01*
X11458277Y-13874174D02*
X11467801Y-13893222D01*
X11467801Y-13893222D02*
X11467801Y-13997984D01*
X11467801Y-13893222D02*
X11477324Y-13874174D01*
X11477324Y-13874174D02*
X11496372Y-13864650D01*
X11496372Y-13864650D02*
X11524943Y-13864650D01*
X11524943Y-13864650D02*
X11543991Y-13874174D01*
X11543991Y-13874174D02*
X11553515Y-13893222D01*
X11553515Y-13893222D02*
X11553515Y-13997984D01*
X11943991Y-13788460D02*
X11772563Y-14045603D01*
X12201134Y-13797984D02*
X12220182Y-13797984D01*
X12220182Y-13797984D02*
X12239229Y-13807508D01*
X12239229Y-13807508D02*
X12248753Y-13817031D01*
X12248753Y-13817031D02*
X12258277Y-13836079D01*
X12258277Y-13836079D02*
X12267801Y-13874174D01*
X12267801Y-13874174D02*
X12267801Y-13921793D01*
X12267801Y-13921793D02*
X12258277Y-13959888D01*
X12258277Y-13959888D02*
X12248753Y-13978936D01*
X12248753Y-13978936D02*
X12239229Y-13988460D01*
X12239229Y-13988460D02*
X12220182Y-13997984D01*
X12220182Y-13997984D02*
X12201134Y-13997984D01*
X12201134Y-13997984D02*
X12182086Y-13988460D01*
X12182086Y-13988460D02*
X12172563Y-13978936D01*
X12172563Y-13978936D02*
X12163039Y-13959888D01*
X12163039Y-13959888D02*
X12153515Y-13921793D01*
X12153515Y-13921793D02*
X12153515Y-13874174D01*
X12153515Y-13874174D02*
X12163039Y-13836079D01*
X12163039Y-13836079D02*
X12172563Y-13817031D01*
X12172563Y-13817031D02*
X12182086Y-13807508D01*
X12182086Y-13807508D02*
X12201134Y-13797984D01*
X12353515Y-13978936D02*
X12363039Y-13988460D01*
X12363039Y-13988460D02*
X12353515Y-13997984D01*
X12353515Y-13997984D02*
X12343991Y-13988460D01*
X12343991Y-13988460D02*
X12353515Y-13978936D01*
X12353515Y-13978936D02*
X12353515Y-13997984D01*
X12486848Y-13797984D02*
X12505896Y-13797984D01*
X12505896Y-13797984D02*
X12524944Y-13807508D01*
X12524944Y-13807508D02*
X12534467Y-13817031D01*
X12534467Y-13817031D02*
X12543991Y-13836079D01*
X12543991Y-13836079D02*
X12553515Y-13874174D01*
X12553515Y-13874174D02*
X12553515Y-13921793D01*
X12553515Y-13921793D02*
X12543991Y-13959888D01*
X12543991Y-13959888D02*
X12534467Y-13978936D01*
X12534467Y-13978936D02*
X12524944Y-13988460D01*
X12524944Y-13988460D02*
X12505896Y-13997984D01*
X12505896Y-13997984D02*
X12486848Y-13997984D01*
X12486848Y-13997984D02*
X12467801Y-13988460D01*
X12467801Y-13988460D02*
X12458277Y-13978936D01*
X12458277Y-13978936D02*
X12448753Y-13959888D01*
X12448753Y-13959888D02*
X12439229Y-13921793D01*
X12439229Y-13921793D02*
X12439229Y-13874174D01*
X12439229Y-13874174D02*
X12448753Y-13836079D01*
X12448753Y-13836079D02*
X12458277Y-13817031D01*
X12458277Y-13817031D02*
X12467801Y-13807508D01*
X12467801Y-13807508D02*
X12486848Y-13797984D01*
X12743991Y-13997984D02*
X12629706Y-13997984D01*
X12686848Y-13997984D02*
X12686848Y-13797984D01*
X12686848Y-13797984D02*
X12667801Y-13826555D01*
X12667801Y-13826555D02*
X12648753Y-13845603D01*
X12648753Y-13845603D02*
X12629706Y-13855127D01*
X12934467Y-13997984D02*
X12820182Y-13997984D01*
X12877325Y-13997984D02*
X12877325Y-13797984D01*
X12877325Y-13797984D02*
X12858277Y-13826555D01*
X12858277Y-13826555D02*
X12839229Y-13845603D01*
X12839229Y-13845603D02*
X12820182Y-13855127D01*
X13048753Y-13883698D02*
X13029706Y-13874174D01*
X13029706Y-13874174D02*
X13020182Y-13864650D01*
X13020182Y-13864650D02*
X13010658Y-13845603D01*
X13010658Y-13845603D02*
X13010658Y-13836079D01*
X13010658Y-13836079D02*
X13020182Y-13817031D01*
X13020182Y-13817031D02*
X13029706Y-13807508D01*
X13029706Y-13807508D02*
X13048753Y-13797984D01*
X13048753Y-13797984D02*
X13086848Y-13797984D01*
X13086848Y-13797984D02*
X13105896Y-13807508D01*
X13105896Y-13807508D02*
X13115420Y-13817031D01*
X13115420Y-13817031D02*
X13124944Y-13836079D01*
X13124944Y-13836079D02*
X13124944Y-13845603D01*
X13124944Y-13845603D02*
X13115420Y-13864650D01*
X13115420Y-13864650D02*
X13105896Y-13874174D01*
X13105896Y-13874174D02*
X13086848Y-13883698D01*
X13086848Y-13883698D02*
X13048753Y-13883698D01*
X13048753Y-13883698D02*
X13029706Y-13893222D01*
X13029706Y-13893222D02*
X13020182Y-13902746D01*
X13020182Y-13902746D02*
X13010658Y-13921793D01*
X13010658Y-13921793D02*
X13010658Y-13959888D01*
X13010658Y-13959888D02*
X13020182Y-13978936D01*
X13020182Y-13978936D02*
X13029706Y-13988460D01*
X13029706Y-13988460D02*
X13048753Y-13997984D01*
X13048753Y-13997984D02*
X13086848Y-13997984D01*
X13086848Y-13997984D02*
X13105896Y-13988460D01*
X13105896Y-13988460D02*
X13115420Y-13978936D01*
X13115420Y-13978936D02*
X13124944Y-13959888D01*
X13124944Y-13959888D02*
X13124944Y-13921793D01*
X13124944Y-13921793D02*
X13115420Y-13902746D01*
X13115420Y-13902746D02*
X13105896Y-13893222D01*
X13105896Y-13893222D02*
X13086848Y-13883698D01*
X13201134Y-13797984D02*
X13201134Y-13836079D01*
X13277325Y-13797984D02*
X13277325Y-13836079D01*
X13572563Y-14074174D02*
X13563039Y-14064650D01*
X13563039Y-14064650D02*
X13543991Y-14036079D01*
X13543991Y-14036079D02*
X13534468Y-14017031D01*
X13534468Y-14017031D02*
X13524944Y-13988460D01*
X13524944Y-13988460D02*
X13515420Y-13940841D01*
X13515420Y-13940841D02*
X13515420Y-13902746D01*
X13515420Y-13902746D02*
X13524944Y-13855127D01*
X13524944Y-13855127D02*
X13534468Y-13826555D01*
X13534468Y-13826555D02*
X13543991Y-13807508D01*
X13543991Y-13807508D02*
X13563039Y-13778936D01*
X13563039Y-13778936D02*
X13572563Y-13769412D01*
X13753515Y-13997984D02*
X13639229Y-13997984D01*
X13696372Y-13997984D02*
X13696372Y-13797984D01*
X13696372Y-13797984D02*
X13677325Y-13826555D01*
X13677325Y-13826555D02*
X13658277Y-13845603D01*
X13658277Y-13845603D02*
X13639229Y-13855127D01*
X13848753Y-13997984D02*
X13886848Y-13997984D01*
X13886848Y-13997984D02*
X13905896Y-13988460D01*
X13905896Y-13988460D02*
X13915420Y-13978936D01*
X13915420Y-13978936D02*
X13934468Y-13950365D01*
X13934468Y-13950365D02*
X13943991Y-13912269D01*
X13943991Y-13912269D02*
X13943991Y-13836079D01*
X13943991Y-13836079D02*
X13934468Y-13817031D01*
X13934468Y-13817031D02*
X13924944Y-13807508D01*
X13924944Y-13807508D02*
X13905896Y-13797984D01*
X13905896Y-13797984D02*
X13867801Y-13797984D01*
X13867801Y-13797984D02*
X13848753Y-13807508D01*
X13848753Y-13807508D02*
X13839229Y-13817031D01*
X13839229Y-13817031D02*
X13829706Y-13836079D01*
X13829706Y-13836079D02*
X13829706Y-13883698D01*
X13829706Y-13883698D02*
X13839229Y-13902746D01*
X13839229Y-13902746D02*
X13848753Y-13912269D01*
X13848753Y-13912269D02*
X13867801Y-13921793D01*
X13867801Y-13921793D02*
X13905896Y-13921793D01*
X13905896Y-13921793D02*
X13924944Y-13912269D01*
X13924944Y-13912269D02*
X13934468Y-13902746D01*
X13934468Y-13902746D02*
X13943991Y-13883698D01*
X14115420Y-13797984D02*
X14077325Y-13797984D01*
X14077325Y-13797984D02*
X14058277Y-13807508D01*
X14058277Y-13807508D02*
X14048753Y-13817031D01*
X14048753Y-13817031D02*
X14029706Y-13845603D01*
X14029706Y-13845603D02*
X14020182Y-13883698D01*
X14020182Y-13883698D02*
X14020182Y-13959888D01*
X14020182Y-13959888D02*
X14029706Y-13978936D01*
X14029706Y-13978936D02*
X14039229Y-13988460D01*
X14039229Y-13988460D02*
X14058277Y-13997984D01*
X14058277Y-13997984D02*
X14096372Y-13997984D01*
X14096372Y-13997984D02*
X14115420Y-13988460D01*
X14115420Y-13988460D02*
X14124944Y-13978936D01*
X14124944Y-13978936D02*
X14134468Y-13959888D01*
X14134468Y-13959888D02*
X14134468Y-13912269D01*
X14134468Y-13912269D02*
X14124944Y-13893222D01*
X14124944Y-13893222D02*
X14115420Y-13883698D01*
X14115420Y-13883698D02*
X14096372Y-13874174D01*
X14096372Y-13874174D02*
X14058277Y-13874174D01*
X14058277Y-13874174D02*
X14039229Y-13883698D01*
X14039229Y-13883698D02*
X14029706Y-13893222D01*
X14029706Y-13893222D02*
X14020182Y-13912269D01*
X14372563Y-13997984D02*
X14372563Y-13797984D01*
X14458277Y-13997984D02*
X14458277Y-13893222D01*
X14458277Y-13893222D02*
X14448753Y-13874174D01*
X14448753Y-13874174D02*
X14429706Y-13864650D01*
X14429706Y-13864650D02*
X14401134Y-13864650D01*
X14401134Y-13864650D02*
X14382087Y-13874174D01*
X14382087Y-13874174D02*
X14372563Y-13883698D01*
X14582087Y-13997984D02*
X14563039Y-13988460D01*
X14563039Y-13988460D02*
X14553515Y-13978936D01*
X14553515Y-13978936D02*
X14543991Y-13959888D01*
X14543991Y-13959888D02*
X14543991Y-13902746D01*
X14543991Y-13902746D02*
X14553515Y-13883698D01*
X14553515Y-13883698D02*
X14563039Y-13874174D01*
X14563039Y-13874174D02*
X14582087Y-13864650D01*
X14582087Y-13864650D02*
X14610658Y-13864650D01*
X14610658Y-13864650D02*
X14629706Y-13874174D01*
X14629706Y-13874174D02*
X14639230Y-13883698D01*
X14639230Y-13883698D02*
X14648753Y-13902746D01*
X14648753Y-13902746D02*
X14648753Y-13959888D01*
X14648753Y-13959888D02*
X14639230Y-13978936D01*
X14639230Y-13978936D02*
X14629706Y-13988460D01*
X14629706Y-13988460D02*
X14610658Y-13997984D01*
X14610658Y-13997984D02*
X14582087Y-13997984D01*
X14763039Y-13997984D02*
X14743991Y-13988460D01*
X14743991Y-13988460D02*
X14734468Y-13969412D01*
X14734468Y-13969412D02*
X14734468Y-13797984D01*
X14915420Y-13988460D02*
X14896372Y-13997984D01*
X14896372Y-13997984D02*
X14858277Y-13997984D01*
X14858277Y-13997984D02*
X14839230Y-13988460D01*
X14839230Y-13988460D02*
X14829706Y-13969412D01*
X14829706Y-13969412D02*
X14829706Y-13893222D01*
X14829706Y-13893222D02*
X14839230Y-13874174D01*
X14839230Y-13874174D02*
X14858277Y-13864650D01*
X14858277Y-13864650D02*
X14896372Y-13864650D01*
X14896372Y-13864650D02*
X14915420Y-13874174D01*
X14915420Y-13874174D02*
X14924944Y-13893222D01*
X14924944Y-13893222D02*
X14924944Y-13912269D01*
X14924944Y-13912269D02*
X14829706Y-13931317D01*
X15001134Y-13988460D02*
X15020182Y-13997984D01*
X15020182Y-13997984D02*
X15058277Y-13997984D01*
X15058277Y-13997984D02*
X15077325Y-13988460D01*
X15077325Y-13988460D02*
X15086849Y-13969412D01*
X15086849Y-13969412D02*
X15086849Y-13959888D01*
X15086849Y-13959888D02*
X15077325Y-13940841D01*
X15077325Y-13940841D02*
X15058277Y-13931317D01*
X15058277Y-13931317D02*
X15029706Y-13931317D01*
X15029706Y-13931317D02*
X15010658Y-13921793D01*
X15010658Y-13921793D02*
X15001134Y-13902746D01*
X15001134Y-13902746D02*
X15001134Y-13893222D01*
X15001134Y-13893222D02*
X15010658Y-13874174D01*
X15010658Y-13874174D02*
X15029706Y-13864650D01*
X15029706Y-13864650D02*
X15058277Y-13864650D01*
X15058277Y-13864650D02*
X15077325Y-13874174D01*
X15153515Y-14074174D02*
X15163039Y-14064650D01*
X15163039Y-14064650D02*
X15182087Y-14036079D01*
X15182087Y-14036079D02*
X15191611Y-14017031D01*
X15191611Y-14017031D02*
X15201134Y-13988460D01*
X15201134Y-13988460D02*
X15210658Y-13940841D01*
X15210658Y-13940841D02*
X15210658Y-13902746D01*
X15210658Y-13902746D02*
X15201134Y-13855127D01*
X15201134Y-13855127D02*
X15191611Y-13826555D01*
X15191611Y-13826555D02*
X15182087Y-13807508D01*
X15182087Y-13807508D02*
X15163039Y-13778936D01*
X15163039Y-13778936D02*
X15153515Y-13769412D01*
D13*
X9967500Y-14140500D02*
X9967500Y-14200500D01*
X9937500Y-14170500D02*
X9997500Y-14170500D01*
D12*
X10296372Y-14061984D02*
X10315420Y-14061984D01*
X10315420Y-14061984D02*
X10334467Y-14071508D01*
X10334467Y-14071508D02*
X10343991Y-14081031D01*
X10343991Y-14081031D02*
X10353515Y-14100079D01*
X10353515Y-14100079D02*
X10363039Y-14138174D01*
X10363039Y-14138174D02*
X10363039Y-14185793D01*
X10363039Y-14185793D02*
X10353515Y-14223888D01*
X10353515Y-14223888D02*
X10343991Y-14242936D01*
X10343991Y-14242936D02*
X10334467Y-14252460D01*
X10334467Y-14252460D02*
X10315420Y-14261984D01*
X10315420Y-14261984D02*
X10296372Y-14261984D01*
X10296372Y-14261984D02*
X10277324Y-14252460D01*
X10277324Y-14252460D02*
X10267801Y-14242936D01*
X10267801Y-14242936D02*
X10258277Y-14223888D01*
X10258277Y-14223888D02*
X10248753Y-14185793D01*
X10248753Y-14185793D02*
X10248753Y-14138174D01*
X10248753Y-14138174D02*
X10258277Y-14100079D01*
X10258277Y-14100079D02*
X10267801Y-14081031D01*
X10267801Y-14081031D02*
X10277324Y-14071508D01*
X10277324Y-14071508D02*
X10296372Y-14061984D01*
X10448753Y-14242936D02*
X10458277Y-14252460D01*
X10458277Y-14252460D02*
X10448753Y-14261984D01*
X10448753Y-14261984D02*
X10439229Y-14252460D01*
X10439229Y-14252460D02*
X10448753Y-14242936D01*
X10448753Y-14242936D02*
X10448753Y-14261984D01*
X10629705Y-14061984D02*
X10591610Y-14061984D01*
X10591610Y-14061984D02*
X10572563Y-14071508D01*
X10572563Y-14071508D02*
X10563039Y-14081031D01*
X10563039Y-14081031D02*
X10543991Y-14109603D01*
X10543991Y-14109603D02*
X10534467Y-14147698D01*
X10534467Y-14147698D02*
X10534467Y-14223888D01*
X10534467Y-14223888D02*
X10543991Y-14242936D01*
X10543991Y-14242936D02*
X10553515Y-14252460D01*
X10553515Y-14252460D02*
X10572563Y-14261984D01*
X10572563Y-14261984D02*
X10610658Y-14261984D01*
X10610658Y-14261984D02*
X10629705Y-14252460D01*
X10629705Y-14252460D02*
X10639229Y-14242936D01*
X10639229Y-14242936D02*
X10648753Y-14223888D01*
X10648753Y-14223888D02*
X10648753Y-14176269D01*
X10648753Y-14176269D02*
X10639229Y-14157222D01*
X10639229Y-14157222D02*
X10629705Y-14147698D01*
X10629705Y-14147698D02*
X10610658Y-14138174D01*
X10610658Y-14138174D02*
X10572563Y-14138174D01*
X10572563Y-14138174D02*
X10553515Y-14147698D01*
X10553515Y-14147698D02*
X10543991Y-14157222D01*
X10543991Y-14157222D02*
X10534467Y-14176269D01*
X10772563Y-14061984D02*
X10791610Y-14061984D01*
X10791610Y-14061984D02*
X10810658Y-14071508D01*
X10810658Y-14071508D02*
X10820182Y-14081031D01*
X10820182Y-14081031D02*
X10829705Y-14100079D01*
X10829705Y-14100079D02*
X10839229Y-14138174D01*
X10839229Y-14138174D02*
X10839229Y-14185793D01*
X10839229Y-14185793D02*
X10829705Y-14223888D01*
X10829705Y-14223888D02*
X10820182Y-14242936D01*
X10820182Y-14242936D02*
X10810658Y-14252460D01*
X10810658Y-14252460D02*
X10791610Y-14261984D01*
X10791610Y-14261984D02*
X10772563Y-14261984D01*
X10772563Y-14261984D02*
X10753515Y-14252460D01*
X10753515Y-14252460D02*
X10743991Y-14242936D01*
X10743991Y-14242936D02*
X10734467Y-14223888D01*
X10734467Y-14223888D02*
X10724944Y-14185793D01*
X10724944Y-14185793D02*
X10724944Y-14138174D01*
X10724944Y-14138174D02*
X10734467Y-14100079D01*
X10734467Y-14100079D02*
X10743991Y-14081031D01*
X10743991Y-14081031D02*
X10753515Y-14071508D01*
X10753515Y-14071508D02*
X10772563Y-14061984D01*
X10963039Y-14061984D02*
X10982086Y-14061984D01*
X10982086Y-14061984D02*
X11001134Y-14071508D01*
X11001134Y-14071508D02*
X11010658Y-14081031D01*
X11010658Y-14081031D02*
X11020182Y-14100079D01*
X11020182Y-14100079D02*
X11029705Y-14138174D01*
X11029705Y-14138174D02*
X11029705Y-14185793D01*
X11029705Y-14185793D02*
X11020182Y-14223888D01*
X11020182Y-14223888D02*
X11010658Y-14242936D01*
X11010658Y-14242936D02*
X11001134Y-14252460D01*
X11001134Y-14252460D02*
X10982086Y-14261984D01*
X10982086Y-14261984D02*
X10963039Y-14261984D01*
X10963039Y-14261984D02*
X10943991Y-14252460D01*
X10943991Y-14252460D02*
X10934467Y-14242936D01*
X10934467Y-14242936D02*
X10924944Y-14223888D01*
X10924944Y-14223888D02*
X10915420Y-14185793D01*
X10915420Y-14185793D02*
X10915420Y-14138174D01*
X10915420Y-14138174D02*
X10924944Y-14100079D01*
X10924944Y-14100079D02*
X10934467Y-14081031D01*
X10934467Y-14081031D02*
X10943991Y-14071508D01*
X10943991Y-14071508D02*
X10963039Y-14061984D01*
X11115420Y-14261984D02*
X11115420Y-14128650D01*
X11115420Y-14147698D02*
X11124944Y-14138174D01*
X11124944Y-14138174D02*
X11143991Y-14128650D01*
X11143991Y-14128650D02*
X11172563Y-14128650D01*
X11172563Y-14128650D02*
X11191610Y-14138174D01*
X11191610Y-14138174D02*
X11201134Y-14157222D01*
X11201134Y-14157222D02*
X11201134Y-14261984D01*
X11201134Y-14157222D02*
X11210658Y-14138174D01*
X11210658Y-14138174D02*
X11229705Y-14128650D01*
X11229705Y-14128650D02*
X11258277Y-14128650D01*
X11258277Y-14128650D02*
X11277324Y-14138174D01*
X11277324Y-14138174D02*
X11286848Y-14157222D01*
X11286848Y-14157222D02*
X11286848Y-14261984D01*
X11382086Y-14261984D02*
X11382086Y-14128650D01*
X11382086Y-14147698D02*
X11391610Y-14138174D01*
X11391610Y-14138174D02*
X11410658Y-14128650D01*
X11410658Y-14128650D02*
X11439229Y-14128650D01*
X11439229Y-14128650D02*
X11458277Y-14138174D01*
X11458277Y-14138174D02*
X11467801Y-14157222D01*
X11467801Y-14157222D02*
X11467801Y-14261984D01*
X11467801Y-14157222D02*
X11477324Y-14138174D01*
X11477324Y-14138174D02*
X11496372Y-14128650D01*
X11496372Y-14128650D02*
X11524943Y-14128650D01*
X11524943Y-14128650D02*
X11543991Y-14138174D01*
X11543991Y-14138174D02*
X11553515Y-14157222D01*
X11553515Y-14157222D02*
X11553515Y-14261984D01*
X11943991Y-14052460D02*
X11772563Y-14309603D01*
X12201134Y-14061984D02*
X12220182Y-14061984D01*
X12220182Y-14061984D02*
X12239229Y-14071508D01*
X12239229Y-14071508D02*
X12248753Y-14081031D01*
X12248753Y-14081031D02*
X12258277Y-14100079D01*
X12258277Y-14100079D02*
X12267801Y-14138174D01*
X12267801Y-14138174D02*
X12267801Y-14185793D01*
X12267801Y-14185793D02*
X12258277Y-14223888D01*
X12258277Y-14223888D02*
X12248753Y-14242936D01*
X12248753Y-14242936D02*
X12239229Y-14252460D01*
X12239229Y-14252460D02*
X12220182Y-14261984D01*
X12220182Y-14261984D02*
X12201134Y-14261984D01*
X12201134Y-14261984D02*
X12182086Y-14252460D01*
X12182086Y-14252460D02*
X12172563Y-14242936D01*
X12172563Y-14242936D02*
X12163039Y-14223888D01*
X12163039Y-14223888D02*
X12153515Y-14185793D01*
X12153515Y-14185793D02*
X12153515Y-14138174D01*
X12153515Y-14138174D02*
X12163039Y-14100079D01*
X12163039Y-14100079D02*
X12172563Y-14081031D01*
X12172563Y-14081031D02*
X12182086Y-14071508D01*
X12182086Y-14071508D02*
X12201134Y-14061984D01*
X12353515Y-14242936D02*
X12363039Y-14252460D01*
X12363039Y-14252460D02*
X12353515Y-14261984D01*
X12353515Y-14261984D02*
X12343991Y-14252460D01*
X12343991Y-14252460D02*
X12353515Y-14242936D01*
X12353515Y-14242936D02*
X12353515Y-14261984D01*
X12486848Y-14061984D02*
X12505896Y-14061984D01*
X12505896Y-14061984D02*
X12524944Y-14071508D01*
X12524944Y-14071508D02*
X12534467Y-14081031D01*
X12534467Y-14081031D02*
X12543991Y-14100079D01*
X12543991Y-14100079D02*
X12553515Y-14138174D01*
X12553515Y-14138174D02*
X12553515Y-14185793D01*
X12553515Y-14185793D02*
X12543991Y-14223888D01*
X12543991Y-14223888D02*
X12534467Y-14242936D01*
X12534467Y-14242936D02*
X12524944Y-14252460D01*
X12524944Y-14252460D02*
X12505896Y-14261984D01*
X12505896Y-14261984D02*
X12486848Y-14261984D01*
X12486848Y-14261984D02*
X12467801Y-14252460D01*
X12467801Y-14252460D02*
X12458277Y-14242936D01*
X12458277Y-14242936D02*
X12448753Y-14223888D01*
X12448753Y-14223888D02*
X12439229Y-14185793D01*
X12439229Y-14185793D02*
X12439229Y-14138174D01*
X12439229Y-14138174D02*
X12448753Y-14100079D01*
X12448753Y-14100079D02*
X12458277Y-14081031D01*
X12458277Y-14081031D02*
X12467801Y-14071508D01*
X12467801Y-14071508D02*
X12486848Y-14061984D01*
X12629706Y-14081031D02*
X12639229Y-14071508D01*
X12639229Y-14071508D02*
X12658277Y-14061984D01*
X12658277Y-14061984D02*
X12705896Y-14061984D01*
X12705896Y-14061984D02*
X12724944Y-14071508D01*
X12724944Y-14071508D02*
X12734467Y-14081031D01*
X12734467Y-14081031D02*
X12743991Y-14100079D01*
X12743991Y-14100079D02*
X12743991Y-14119127D01*
X12743991Y-14119127D02*
X12734467Y-14147698D01*
X12734467Y-14147698D02*
X12620182Y-14261984D01*
X12620182Y-14261984D02*
X12743991Y-14261984D01*
X12810658Y-14061984D02*
X12934467Y-14061984D01*
X12934467Y-14061984D02*
X12867801Y-14138174D01*
X12867801Y-14138174D02*
X12896372Y-14138174D01*
X12896372Y-14138174D02*
X12915420Y-14147698D01*
X12915420Y-14147698D02*
X12924944Y-14157222D01*
X12924944Y-14157222D02*
X12934467Y-14176269D01*
X12934467Y-14176269D02*
X12934467Y-14223888D01*
X12934467Y-14223888D02*
X12924944Y-14242936D01*
X12924944Y-14242936D02*
X12915420Y-14252460D01*
X12915420Y-14252460D02*
X12896372Y-14261984D01*
X12896372Y-14261984D02*
X12839229Y-14261984D01*
X12839229Y-14261984D02*
X12820182Y-14252460D01*
X12820182Y-14252460D02*
X12810658Y-14242936D01*
X13105896Y-14061984D02*
X13067801Y-14061984D01*
X13067801Y-14061984D02*
X13048753Y-14071508D01*
X13048753Y-14071508D02*
X13039229Y-14081031D01*
X13039229Y-14081031D02*
X13020182Y-14109603D01*
X13020182Y-14109603D02*
X13010658Y-14147698D01*
X13010658Y-14147698D02*
X13010658Y-14223888D01*
X13010658Y-14223888D02*
X13020182Y-14242936D01*
X13020182Y-14242936D02*
X13029706Y-14252460D01*
X13029706Y-14252460D02*
X13048753Y-14261984D01*
X13048753Y-14261984D02*
X13086848Y-14261984D01*
X13086848Y-14261984D02*
X13105896Y-14252460D01*
X13105896Y-14252460D02*
X13115420Y-14242936D01*
X13115420Y-14242936D02*
X13124944Y-14223888D01*
X13124944Y-14223888D02*
X13124944Y-14176269D01*
X13124944Y-14176269D02*
X13115420Y-14157222D01*
X13115420Y-14157222D02*
X13105896Y-14147698D01*
X13105896Y-14147698D02*
X13086848Y-14138174D01*
X13086848Y-14138174D02*
X13048753Y-14138174D01*
X13048753Y-14138174D02*
X13029706Y-14147698D01*
X13029706Y-14147698D02*
X13020182Y-14157222D01*
X13020182Y-14157222D02*
X13010658Y-14176269D01*
X13201134Y-14061984D02*
X13201134Y-14100079D01*
X13277325Y-14061984D02*
X13277325Y-14100079D01*
X13572563Y-14338174D02*
X13563039Y-14328650D01*
X13563039Y-14328650D02*
X13543991Y-14300079D01*
X13543991Y-14300079D02*
X13534468Y-14281031D01*
X13534468Y-14281031D02*
X13524944Y-14252460D01*
X13524944Y-14252460D02*
X13515420Y-14204841D01*
X13515420Y-14204841D02*
X13515420Y-14166746D01*
X13515420Y-14166746D02*
X13524944Y-14119127D01*
X13524944Y-14119127D02*
X13534468Y-14090555D01*
X13534468Y-14090555D02*
X13543991Y-14071508D01*
X13543991Y-14071508D02*
X13563039Y-14042936D01*
X13563039Y-14042936D02*
X13572563Y-14033412D01*
X13686848Y-14061984D02*
X13705896Y-14061984D01*
X13705896Y-14061984D02*
X13724944Y-14071508D01*
X13724944Y-14071508D02*
X13734468Y-14081031D01*
X13734468Y-14081031D02*
X13743991Y-14100079D01*
X13743991Y-14100079D02*
X13753515Y-14138174D01*
X13753515Y-14138174D02*
X13753515Y-14185793D01*
X13753515Y-14185793D02*
X13743991Y-14223888D01*
X13743991Y-14223888D02*
X13734468Y-14242936D01*
X13734468Y-14242936D02*
X13724944Y-14252460D01*
X13724944Y-14252460D02*
X13705896Y-14261984D01*
X13705896Y-14261984D02*
X13686848Y-14261984D01*
X13686848Y-14261984D02*
X13667801Y-14252460D01*
X13667801Y-14252460D02*
X13658277Y-14242936D01*
X13658277Y-14242936D02*
X13648753Y-14223888D01*
X13648753Y-14223888D02*
X13639229Y-14185793D01*
X13639229Y-14185793D02*
X13639229Y-14138174D01*
X13639229Y-14138174D02*
X13648753Y-14100079D01*
X13648753Y-14100079D02*
X13658277Y-14081031D01*
X13658277Y-14081031D02*
X13667801Y-14071508D01*
X13667801Y-14071508D02*
X13686848Y-14061984D01*
X13991610Y-14261984D02*
X13991610Y-14061984D01*
X14077325Y-14261984D02*
X14077325Y-14157222D01*
X14077325Y-14157222D02*
X14067801Y-14138174D01*
X14067801Y-14138174D02*
X14048753Y-14128650D01*
X14048753Y-14128650D02*
X14020182Y-14128650D01*
X14020182Y-14128650D02*
X14001134Y-14138174D01*
X14001134Y-14138174D02*
X13991610Y-14147698D01*
X14201134Y-14261984D02*
X14182087Y-14252460D01*
X14182087Y-14252460D02*
X14172563Y-14242936D01*
X14172563Y-14242936D02*
X14163039Y-14223888D01*
X14163039Y-14223888D02*
X14163039Y-14166746D01*
X14163039Y-14166746D02*
X14172563Y-14147698D01*
X14172563Y-14147698D02*
X14182087Y-14138174D01*
X14182087Y-14138174D02*
X14201134Y-14128650D01*
X14201134Y-14128650D02*
X14229706Y-14128650D01*
X14229706Y-14128650D02*
X14248753Y-14138174D01*
X14248753Y-14138174D02*
X14258277Y-14147698D01*
X14258277Y-14147698D02*
X14267801Y-14166746D01*
X14267801Y-14166746D02*
X14267801Y-14223888D01*
X14267801Y-14223888D02*
X14258277Y-14242936D01*
X14258277Y-14242936D02*
X14248753Y-14252460D01*
X14248753Y-14252460D02*
X14229706Y-14261984D01*
X14229706Y-14261984D02*
X14201134Y-14261984D01*
X14382087Y-14261984D02*
X14363039Y-14252460D01*
X14363039Y-14252460D02*
X14353515Y-14233412D01*
X14353515Y-14233412D02*
X14353515Y-14061984D01*
X14534468Y-14252460D02*
X14515420Y-14261984D01*
X14515420Y-14261984D02*
X14477325Y-14261984D01*
X14477325Y-14261984D02*
X14458277Y-14252460D01*
X14458277Y-14252460D02*
X14448753Y-14233412D01*
X14448753Y-14233412D02*
X14448753Y-14157222D01*
X14448753Y-14157222D02*
X14458277Y-14138174D01*
X14458277Y-14138174D02*
X14477325Y-14128650D01*
X14477325Y-14128650D02*
X14515420Y-14128650D01*
X14515420Y-14128650D02*
X14534468Y-14138174D01*
X14534468Y-14138174D02*
X14543991Y-14157222D01*
X14543991Y-14157222D02*
X14543991Y-14176269D01*
X14543991Y-14176269D02*
X14448753Y-14195317D01*
X14620182Y-14252460D02*
X14639230Y-14261984D01*
X14639230Y-14261984D02*
X14677325Y-14261984D01*
X14677325Y-14261984D02*
X14696372Y-14252460D01*
X14696372Y-14252460D02*
X14705896Y-14233412D01*
X14705896Y-14233412D02*
X14705896Y-14223888D01*
X14705896Y-14223888D02*
X14696372Y-14204841D01*
X14696372Y-14204841D02*
X14677325Y-14195317D01*
X14677325Y-14195317D02*
X14648753Y-14195317D01*
X14648753Y-14195317D02*
X14629706Y-14185793D01*
X14629706Y-14185793D02*
X14620182Y-14166746D01*
X14620182Y-14166746D02*
X14620182Y-14157222D01*
X14620182Y-14157222D02*
X14629706Y-14138174D01*
X14629706Y-14138174D02*
X14648753Y-14128650D01*
X14648753Y-14128650D02*
X14677325Y-14128650D01*
X14677325Y-14128650D02*
X14696372Y-14138174D01*
X14943992Y-14185793D02*
X15096373Y-14185793D01*
X15020182Y-14261984D02*
X15020182Y-14109603D01*
X15448753Y-14261984D02*
X15334468Y-14261984D01*
X15391611Y-14261984D02*
X15391611Y-14061984D01*
X15391611Y-14061984D02*
X15372563Y-14090555D01*
X15372563Y-14090555D02*
X15353515Y-14109603D01*
X15353515Y-14109603D02*
X15334468Y-14119127D01*
X15524944Y-14081031D02*
X15534468Y-14071508D01*
X15534468Y-14071508D02*
X15553515Y-14061984D01*
X15553515Y-14061984D02*
X15601134Y-14061984D01*
X15601134Y-14061984D02*
X15620182Y-14071508D01*
X15620182Y-14071508D02*
X15629706Y-14081031D01*
X15629706Y-14081031D02*
X15639230Y-14100079D01*
X15639230Y-14100079D02*
X15639230Y-14119127D01*
X15639230Y-14119127D02*
X15629706Y-14147698D01*
X15629706Y-14147698D02*
X15515420Y-14261984D01*
X15515420Y-14261984D02*
X15639230Y-14261984D01*
X15867801Y-14252460D02*
X15886849Y-14261984D01*
X15886849Y-14261984D02*
X15924944Y-14261984D01*
X15924944Y-14261984D02*
X15943992Y-14252460D01*
X15943992Y-14252460D02*
X15953515Y-14233412D01*
X15953515Y-14233412D02*
X15953515Y-14223888D01*
X15953515Y-14223888D02*
X15943992Y-14204841D01*
X15943992Y-14204841D02*
X15924944Y-14195317D01*
X15924944Y-14195317D02*
X15896373Y-14195317D01*
X15896373Y-14195317D02*
X15877325Y-14185793D01*
X15877325Y-14185793D02*
X15867801Y-14166746D01*
X15867801Y-14166746D02*
X15867801Y-14157222D01*
X15867801Y-14157222D02*
X15877325Y-14138174D01*
X15877325Y-14138174D02*
X15896373Y-14128650D01*
X15896373Y-14128650D02*
X15924944Y-14128650D01*
X15924944Y-14128650D02*
X15943992Y-14138174D01*
X16067801Y-14261984D02*
X16048754Y-14252460D01*
X16048754Y-14252460D02*
X16039230Y-14233412D01*
X16039230Y-14233412D02*
X16039230Y-14061984D01*
X16172563Y-14261984D02*
X16153515Y-14252460D01*
X16153515Y-14252460D02*
X16143992Y-14242936D01*
X16143992Y-14242936D02*
X16134468Y-14223888D01*
X16134468Y-14223888D02*
X16134468Y-14166746D01*
X16134468Y-14166746D02*
X16143992Y-14147698D01*
X16143992Y-14147698D02*
X16153515Y-14138174D01*
X16153515Y-14138174D02*
X16172563Y-14128650D01*
X16172563Y-14128650D02*
X16201135Y-14128650D01*
X16201135Y-14128650D02*
X16220182Y-14138174D01*
X16220182Y-14138174D02*
X16229706Y-14147698D01*
X16229706Y-14147698D02*
X16239230Y-14166746D01*
X16239230Y-14166746D02*
X16239230Y-14223888D01*
X16239230Y-14223888D02*
X16229706Y-14242936D01*
X16229706Y-14242936D02*
X16220182Y-14252460D01*
X16220182Y-14252460D02*
X16201135Y-14261984D01*
X16201135Y-14261984D02*
X16172563Y-14261984D01*
X16296373Y-14128650D02*
X16372563Y-14128650D01*
X16324944Y-14061984D02*
X16324944Y-14233412D01*
X16324944Y-14233412D02*
X16334468Y-14252460D01*
X16334468Y-14252460D02*
X16353515Y-14261984D01*
X16353515Y-14261984D02*
X16372563Y-14261984D01*
X16429706Y-14252460D02*
X16448754Y-14261984D01*
X16448754Y-14261984D02*
X16486849Y-14261984D01*
X16486849Y-14261984D02*
X16505896Y-14252460D01*
X16505896Y-14252460D02*
X16515420Y-14233412D01*
X16515420Y-14233412D02*
X16515420Y-14223888D01*
X16515420Y-14223888D02*
X16505896Y-14204841D01*
X16505896Y-14204841D02*
X16486849Y-14195317D01*
X16486849Y-14195317D02*
X16458277Y-14195317D01*
X16458277Y-14195317D02*
X16439230Y-14185793D01*
X16439230Y-14185793D02*
X16429706Y-14166746D01*
X16429706Y-14166746D02*
X16429706Y-14157222D01*
X16429706Y-14157222D02*
X16439230Y-14138174D01*
X16439230Y-14138174D02*
X16458277Y-14128650D01*
X16458277Y-14128650D02*
X16486849Y-14128650D01*
X16486849Y-14128650D02*
X16505896Y-14138174D01*
X16582087Y-14338174D02*
X16591611Y-14328650D01*
X16591611Y-14328650D02*
X16610658Y-14300079D01*
X16610658Y-14300079D02*
X16620182Y-14281031D01*
X16620182Y-14281031D02*
X16629706Y-14252460D01*
X16629706Y-14252460D02*
X16639230Y-14204841D01*
X16639230Y-14204841D02*
X16639230Y-14166746D01*
X16639230Y-14166746D02*
X16629706Y-14119127D01*
X16629706Y-14119127D02*
X16620182Y-14090555D01*
X16620182Y-14090555D02*
X16610658Y-14071508D01*
X16610658Y-14071508D02*
X16591611Y-14042936D01*
X16591611Y-14042936D02*
X16582087Y-14033412D01*
D13*
X9982856Y-14469856D02*
X9982856Y-14399144D01*
X9912144Y-14399144D01*
X9912144Y-14469856D01*
X9982856Y-14469856D01*
D12*
X10363039Y-14525984D02*
X10248753Y-14525984D01*
X10305896Y-14525984D02*
X10305896Y-14325984D01*
X10305896Y-14325984D02*
X10286848Y-14354555D01*
X10286848Y-14354555D02*
X10267801Y-14373603D01*
X10267801Y-14373603D02*
X10248753Y-14383127D01*
X10448753Y-14506936D02*
X10458277Y-14516460D01*
X10458277Y-14516460D02*
X10448753Y-14525984D01*
X10448753Y-14525984D02*
X10439229Y-14516460D01*
X10439229Y-14516460D02*
X10448753Y-14506936D01*
X10448753Y-14506936D02*
X10448753Y-14525984D01*
X10582086Y-14325984D02*
X10601134Y-14325984D01*
X10601134Y-14325984D02*
X10620182Y-14335508D01*
X10620182Y-14335508D02*
X10629705Y-14345031D01*
X10629705Y-14345031D02*
X10639229Y-14364079D01*
X10639229Y-14364079D02*
X10648753Y-14402174D01*
X10648753Y-14402174D02*
X10648753Y-14449793D01*
X10648753Y-14449793D02*
X10639229Y-14487888D01*
X10639229Y-14487888D02*
X10629705Y-14506936D01*
X10629705Y-14506936D02*
X10620182Y-14516460D01*
X10620182Y-14516460D02*
X10601134Y-14525984D01*
X10601134Y-14525984D02*
X10582086Y-14525984D01*
X10582086Y-14525984D02*
X10563039Y-14516460D01*
X10563039Y-14516460D02*
X10553515Y-14506936D01*
X10553515Y-14506936D02*
X10543991Y-14487888D01*
X10543991Y-14487888D02*
X10534467Y-14449793D01*
X10534467Y-14449793D02*
X10534467Y-14402174D01*
X10534467Y-14402174D02*
X10543991Y-14364079D01*
X10543991Y-14364079D02*
X10553515Y-14345031D01*
X10553515Y-14345031D02*
X10563039Y-14335508D01*
X10563039Y-14335508D02*
X10582086Y-14325984D01*
X10772563Y-14325984D02*
X10791610Y-14325984D01*
X10791610Y-14325984D02*
X10810658Y-14335508D01*
X10810658Y-14335508D02*
X10820182Y-14345031D01*
X10820182Y-14345031D02*
X10829705Y-14364079D01*
X10829705Y-14364079D02*
X10839229Y-14402174D01*
X10839229Y-14402174D02*
X10839229Y-14449793D01*
X10839229Y-14449793D02*
X10829705Y-14487888D01*
X10829705Y-14487888D02*
X10820182Y-14506936D01*
X10820182Y-14506936D02*
X10810658Y-14516460D01*
X10810658Y-14516460D02*
X10791610Y-14525984D01*
X10791610Y-14525984D02*
X10772563Y-14525984D01*
X10772563Y-14525984D02*
X10753515Y-14516460D01*
X10753515Y-14516460D02*
X10743991Y-14506936D01*
X10743991Y-14506936D02*
X10734467Y-14487888D01*
X10734467Y-14487888D02*
X10724944Y-14449793D01*
X10724944Y-14449793D02*
X10724944Y-14402174D01*
X10724944Y-14402174D02*
X10734467Y-14364079D01*
X10734467Y-14364079D02*
X10743991Y-14345031D01*
X10743991Y-14345031D02*
X10753515Y-14335508D01*
X10753515Y-14335508D02*
X10772563Y-14325984D01*
X10963039Y-14325984D02*
X10982086Y-14325984D01*
X10982086Y-14325984D02*
X11001134Y-14335508D01*
X11001134Y-14335508D02*
X11010658Y-14345031D01*
X11010658Y-14345031D02*
X11020182Y-14364079D01*
X11020182Y-14364079D02*
X11029705Y-14402174D01*
X11029705Y-14402174D02*
X11029705Y-14449793D01*
X11029705Y-14449793D02*
X11020182Y-14487888D01*
X11020182Y-14487888D02*
X11010658Y-14506936D01*
X11010658Y-14506936D02*
X11001134Y-14516460D01*
X11001134Y-14516460D02*
X10982086Y-14525984D01*
X10982086Y-14525984D02*
X10963039Y-14525984D01*
X10963039Y-14525984D02*
X10943991Y-14516460D01*
X10943991Y-14516460D02*
X10934467Y-14506936D01*
X10934467Y-14506936D02*
X10924944Y-14487888D01*
X10924944Y-14487888D02*
X10915420Y-14449793D01*
X10915420Y-14449793D02*
X10915420Y-14402174D01*
X10915420Y-14402174D02*
X10924944Y-14364079D01*
X10924944Y-14364079D02*
X10934467Y-14345031D01*
X10934467Y-14345031D02*
X10943991Y-14335508D01*
X10943991Y-14335508D02*
X10963039Y-14325984D01*
X11115420Y-14525984D02*
X11115420Y-14392650D01*
X11115420Y-14411698D02*
X11124944Y-14402174D01*
X11124944Y-14402174D02*
X11143991Y-14392650D01*
X11143991Y-14392650D02*
X11172563Y-14392650D01*
X11172563Y-14392650D02*
X11191610Y-14402174D01*
X11191610Y-14402174D02*
X11201134Y-14421222D01*
X11201134Y-14421222D02*
X11201134Y-14525984D01*
X11201134Y-14421222D02*
X11210658Y-14402174D01*
X11210658Y-14402174D02*
X11229705Y-14392650D01*
X11229705Y-14392650D02*
X11258277Y-14392650D01*
X11258277Y-14392650D02*
X11277324Y-14402174D01*
X11277324Y-14402174D02*
X11286848Y-14421222D01*
X11286848Y-14421222D02*
X11286848Y-14525984D01*
X11382086Y-14525984D02*
X11382086Y-14392650D01*
X11382086Y-14411698D02*
X11391610Y-14402174D01*
X11391610Y-14402174D02*
X11410658Y-14392650D01*
X11410658Y-14392650D02*
X11439229Y-14392650D01*
X11439229Y-14392650D02*
X11458277Y-14402174D01*
X11458277Y-14402174D02*
X11467801Y-14421222D01*
X11467801Y-14421222D02*
X11467801Y-14525984D01*
X11467801Y-14421222D02*
X11477324Y-14402174D01*
X11477324Y-14402174D02*
X11496372Y-14392650D01*
X11496372Y-14392650D02*
X11524943Y-14392650D01*
X11524943Y-14392650D02*
X11543991Y-14402174D01*
X11543991Y-14402174D02*
X11553515Y-14421222D01*
X11553515Y-14421222D02*
X11553515Y-14525984D01*
X11943991Y-14316460D02*
X11772563Y-14573603D01*
X12201134Y-14325984D02*
X12220182Y-14325984D01*
X12220182Y-14325984D02*
X12239229Y-14335508D01*
X12239229Y-14335508D02*
X12248753Y-14345031D01*
X12248753Y-14345031D02*
X12258277Y-14364079D01*
X12258277Y-14364079D02*
X12267801Y-14402174D01*
X12267801Y-14402174D02*
X12267801Y-14449793D01*
X12267801Y-14449793D02*
X12258277Y-14487888D01*
X12258277Y-14487888D02*
X12248753Y-14506936D01*
X12248753Y-14506936D02*
X12239229Y-14516460D01*
X12239229Y-14516460D02*
X12220182Y-14525984D01*
X12220182Y-14525984D02*
X12201134Y-14525984D01*
X12201134Y-14525984D02*
X12182086Y-14516460D01*
X12182086Y-14516460D02*
X12172563Y-14506936D01*
X12172563Y-14506936D02*
X12163039Y-14487888D01*
X12163039Y-14487888D02*
X12153515Y-14449793D01*
X12153515Y-14449793D02*
X12153515Y-14402174D01*
X12153515Y-14402174D02*
X12163039Y-14364079D01*
X12163039Y-14364079D02*
X12172563Y-14345031D01*
X12172563Y-14345031D02*
X12182086Y-14335508D01*
X12182086Y-14335508D02*
X12201134Y-14325984D01*
X12353515Y-14506936D02*
X12363039Y-14516460D01*
X12363039Y-14516460D02*
X12353515Y-14525984D01*
X12353515Y-14525984D02*
X12343991Y-14516460D01*
X12343991Y-14516460D02*
X12353515Y-14506936D01*
X12353515Y-14506936D02*
X12353515Y-14525984D01*
X12486848Y-14325984D02*
X12505896Y-14325984D01*
X12505896Y-14325984D02*
X12524944Y-14335508D01*
X12524944Y-14335508D02*
X12534467Y-14345031D01*
X12534467Y-14345031D02*
X12543991Y-14364079D01*
X12543991Y-14364079D02*
X12553515Y-14402174D01*
X12553515Y-14402174D02*
X12553515Y-14449793D01*
X12553515Y-14449793D02*
X12543991Y-14487888D01*
X12543991Y-14487888D02*
X12534467Y-14506936D01*
X12534467Y-14506936D02*
X12524944Y-14516460D01*
X12524944Y-14516460D02*
X12505896Y-14525984D01*
X12505896Y-14525984D02*
X12486848Y-14525984D01*
X12486848Y-14525984D02*
X12467801Y-14516460D01*
X12467801Y-14516460D02*
X12458277Y-14506936D01*
X12458277Y-14506936D02*
X12448753Y-14487888D01*
X12448753Y-14487888D02*
X12439229Y-14449793D01*
X12439229Y-14449793D02*
X12439229Y-14402174D01*
X12439229Y-14402174D02*
X12448753Y-14364079D01*
X12448753Y-14364079D02*
X12458277Y-14345031D01*
X12458277Y-14345031D02*
X12467801Y-14335508D01*
X12467801Y-14335508D02*
X12486848Y-14325984D01*
X12620182Y-14325984D02*
X12743991Y-14325984D01*
X12743991Y-14325984D02*
X12677325Y-14402174D01*
X12677325Y-14402174D02*
X12705896Y-14402174D01*
X12705896Y-14402174D02*
X12724944Y-14411698D01*
X12724944Y-14411698D02*
X12734467Y-14421222D01*
X12734467Y-14421222D02*
X12743991Y-14440269D01*
X12743991Y-14440269D02*
X12743991Y-14487888D01*
X12743991Y-14487888D02*
X12734467Y-14506936D01*
X12734467Y-14506936D02*
X12724944Y-14516460D01*
X12724944Y-14516460D02*
X12705896Y-14525984D01*
X12705896Y-14525984D02*
X12648753Y-14525984D01*
X12648753Y-14525984D02*
X12629706Y-14516460D01*
X12629706Y-14516460D02*
X12620182Y-14506936D01*
X12839229Y-14525984D02*
X12877325Y-14525984D01*
X12877325Y-14525984D02*
X12896372Y-14516460D01*
X12896372Y-14516460D02*
X12905896Y-14506936D01*
X12905896Y-14506936D02*
X12924944Y-14478365D01*
X12924944Y-14478365D02*
X12934467Y-14440269D01*
X12934467Y-14440269D02*
X12934467Y-14364079D01*
X12934467Y-14364079D02*
X12924944Y-14345031D01*
X12924944Y-14345031D02*
X12915420Y-14335508D01*
X12915420Y-14335508D02*
X12896372Y-14325984D01*
X12896372Y-14325984D02*
X12858277Y-14325984D01*
X12858277Y-14325984D02*
X12839229Y-14335508D01*
X12839229Y-14335508D02*
X12829706Y-14345031D01*
X12829706Y-14345031D02*
X12820182Y-14364079D01*
X12820182Y-14364079D02*
X12820182Y-14411698D01*
X12820182Y-14411698D02*
X12829706Y-14430746D01*
X12829706Y-14430746D02*
X12839229Y-14440269D01*
X12839229Y-14440269D02*
X12858277Y-14449793D01*
X12858277Y-14449793D02*
X12896372Y-14449793D01*
X12896372Y-14449793D02*
X12915420Y-14440269D01*
X12915420Y-14440269D02*
X12924944Y-14430746D01*
X12924944Y-14430746D02*
X12934467Y-14411698D01*
X13105896Y-14392650D02*
X13105896Y-14525984D01*
X13058277Y-14316460D02*
X13010658Y-14459317D01*
X13010658Y-14459317D02*
X13134467Y-14459317D01*
X13201134Y-14325984D02*
X13201134Y-14364079D01*
X13277325Y-14325984D02*
X13277325Y-14364079D01*
X13572563Y-14602174D02*
X13563039Y-14592650D01*
X13563039Y-14592650D02*
X13543991Y-14564079D01*
X13543991Y-14564079D02*
X13534468Y-14545031D01*
X13534468Y-14545031D02*
X13524944Y-14516460D01*
X13524944Y-14516460D02*
X13515420Y-14468841D01*
X13515420Y-14468841D02*
X13515420Y-14430746D01*
X13515420Y-14430746D02*
X13524944Y-14383127D01*
X13524944Y-14383127D02*
X13534468Y-14354555D01*
X13534468Y-14354555D02*
X13543991Y-14335508D01*
X13543991Y-14335508D02*
X13563039Y-14306936D01*
X13563039Y-14306936D02*
X13572563Y-14297412D01*
X13639229Y-14345031D02*
X13648753Y-14335508D01*
X13648753Y-14335508D02*
X13667801Y-14325984D01*
X13667801Y-14325984D02*
X13715420Y-14325984D01*
X13715420Y-14325984D02*
X13734468Y-14335508D01*
X13734468Y-14335508D02*
X13743991Y-14345031D01*
X13743991Y-14345031D02*
X13753515Y-14364079D01*
X13753515Y-14364079D02*
X13753515Y-14383127D01*
X13753515Y-14383127D02*
X13743991Y-14411698D01*
X13743991Y-14411698D02*
X13629706Y-14525984D01*
X13629706Y-14525984D02*
X13753515Y-14525984D01*
X13877325Y-14325984D02*
X13896372Y-14325984D01*
X13896372Y-14325984D02*
X13915420Y-14335508D01*
X13915420Y-14335508D02*
X13924944Y-14345031D01*
X13924944Y-14345031D02*
X13934468Y-14364079D01*
X13934468Y-14364079D02*
X13943991Y-14402174D01*
X13943991Y-14402174D02*
X13943991Y-14449793D01*
X13943991Y-14449793D02*
X13934468Y-14487888D01*
X13934468Y-14487888D02*
X13924944Y-14506936D01*
X13924944Y-14506936D02*
X13915420Y-14516460D01*
X13915420Y-14516460D02*
X13896372Y-14525984D01*
X13896372Y-14525984D02*
X13877325Y-14525984D01*
X13877325Y-14525984D02*
X13858277Y-14516460D01*
X13858277Y-14516460D02*
X13848753Y-14506936D01*
X13848753Y-14506936D02*
X13839229Y-14487888D01*
X13839229Y-14487888D02*
X13829706Y-14449793D01*
X13829706Y-14449793D02*
X13829706Y-14402174D01*
X13829706Y-14402174D02*
X13839229Y-14364079D01*
X13839229Y-14364079D02*
X13848753Y-14345031D01*
X13848753Y-14345031D02*
X13858277Y-14335508D01*
X13858277Y-14335508D02*
X13877325Y-14325984D01*
X14182087Y-14525984D02*
X14182087Y-14325984D01*
X14267801Y-14525984D02*
X14267801Y-14421222D01*
X14267801Y-14421222D02*
X14258277Y-14402174D01*
X14258277Y-14402174D02*
X14239230Y-14392650D01*
X14239230Y-14392650D02*
X14210658Y-14392650D01*
X14210658Y-14392650D02*
X14191610Y-14402174D01*
X14191610Y-14402174D02*
X14182087Y-14411698D01*
X14391610Y-14525984D02*
X14372563Y-14516460D01*
X14372563Y-14516460D02*
X14363039Y-14506936D01*
X14363039Y-14506936D02*
X14353515Y-14487888D01*
X14353515Y-14487888D02*
X14353515Y-14430746D01*
X14353515Y-14430746D02*
X14363039Y-14411698D01*
X14363039Y-14411698D02*
X14372563Y-14402174D01*
X14372563Y-14402174D02*
X14391610Y-14392650D01*
X14391610Y-14392650D02*
X14420182Y-14392650D01*
X14420182Y-14392650D02*
X14439230Y-14402174D01*
X14439230Y-14402174D02*
X14448753Y-14411698D01*
X14448753Y-14411698D02*
X14458277Y-14430746D01*
X14458277Y-14430746D02*
X14458277Y-14487888D01*
X14458277Y-14487888D02*
X14448753Y-14506936D01*
X14448753Y-14506936D02*
X14439230Y-14516460D01*
X14439230Y-14516460D02*
X14420182Y-14525984D01*
X14420182Y-14525984D02*
X14391610Y-14525984D01*
X14572563Y-14525984D02*
X14553515Y-14516460D01*
X14553515Y-14516460D02*
X14543991Y-14497412D01*
X14543991Y-14497412D02*
X14543991Y-14325984D01*
X14724944Y-14516460D02*
X14705896Y-14525984D01*
X14705896Y-14525984D02*
X14667801Y-14525984D01*
X14667801Y-14525984D02*
X14648753Y-14516460D01*
X14648753Y-14516460D02*
X14639230Y-14497412D01*
X14639230Y-14497412D02*
X14639230Y-14421222D01*
X14639230Y-14421222D02*
X14648753Y-14402174D01*
X14648753Y-14402174D02*
X14667801Y-14392650D01*
X14667801Y-14392650D02*
X14705896Y-14392650D01*
X14705896Y-14392650D02*
X14724944Y-14402174D01*
X14724944Y-14402174D02*
X14734468Y-14421222D01*
X14734468Y-14421222D02*
X14734468Y-14440269D01*
X14734468Y-14440269D02*
X14639230Y-14459317D01*
X14810658Y-14516460D02*
X14829706Y-14525984D01*
X14829706Y-14525984D02*
X14867801Y-14525984D01*
X14867801Y-14525984D02*
X14886849Y-14516460D01*
X14886849Y-14516460D02*
X14896372Y-14497412D01*
X14896372Y-14497412D02*
X14896372Y-14487888D01*
X14896372Y-14487888D02*
X14886849Y-14468841D01*
X14886849Y-14468841D02*
X14867801Y-14459317D01*
X14867801Y-14459317D02*
X14839230Y-14459317D01*
X14839230Y-14459317D02*
X14820182Y-14449793D01*
X14820182Y-14449793D02*
X14810658Y-14430746D01*
X14810658Y-14430746D02*
X14810658Y-14421222D01*
X14810658Y-14421222D02*
X14820182Y-14402174D01*
X14820182Y-14402174D02*
X14839230Y-14392650D01*
X14839230Y-14392650D02*
X14867801Y-14392650D01*
X14867801Y-14392650D02*
X14886849Y-14402174D01*
X14963039Y-14602174D02*
X14972563Y-14592650D01*
X14972563Y-14592650D02*
X14991611Y-14564079D01*
X14991611Y-14564079D02*
X15001134Y-14545031D01*
X15001134Y-14545031D02*
X15010658Y-14516460D01*
X15010658Y-14516460D02*
X15020182Y-14468841D01*
X15020182Y-14468841D02*
X15020182Y-14430746D01*
X15020182Y-14430746D02*
X15010658Y-14383127D01*
X15010658Y-14383127D02*
X15001134Y-14354555D01*
X15001134Y-14354555D02*
X14991611Y-14335508D01*
X14991611Y-14335508D02*
X14972563Y-14306936D01*
X14972563Y-14306936D02*
X14963039Y-14297412D01*
D14*
X9922500Y-14773500D02*
X9997500Y-14698500D01*
X9922500Y-14623500D01*
X9847500Y-14698500D01*
X9922500Y-14773500D01*
D12*
X10363039Y-14789984D02*
X10248753Y-14789984D01*
X10305896Y-14789984D02*
X10305896Y-14589984D01*
X10305896Y-14589984D02*
X10286848Y-14618555D01*
X10286848Y-14618555D02*
X10267801Y-14637603D01*
X10267801Y-14637603D02*
X10248753Y-14647127D01*
X10448753Y-14770936D02*
X10458277Y-14780460D01*
X10458277Y-14780460D02*
X10448753Y-14789984D01*
X10448753Y-14789984D02*
X10439229Y-14780460D01*
X10439229Y-14780460D02*
X10448753Y-14770936D01*
X10448753Y-14770936D02*
X10448753Y-14789984D01*
X10639229Y-14589984D02*
X10543991Y-14589984D01*
X10543991Y-14589984D02*
X10534467Y-14685222D01*
X10534467Y-14685222D02*
X10543991Y-14675698D01*
X10543991Y-14675698D02*
X10563039Y-14666174D01*
X10563039Y-14666174D02*
X10610658Y-14666174D01*
X10610658Y-14666174D02*
X10629705Y-14675698D01*
X10629705Y-14675698D02*
X10639229Y-14685222D01*
X10639229Y-14685222D02*
X10648753Y-14704269D01*
X10648753Y-14704269D02*
X10648753Y-14751888D01*
X10648753Y-14751888D02*
X10639229Y-14770936D01*
X10639229Y-14770936D02*
X10629705Y-14780460D01*
X10629705Y-14780460D02*
X10610658Y-14789984D01*
X10610658Y-14789984D02*
X10563039Y-14789984D01*
X10563039Y-14789984D02*
X10543991Y-14780460D01*
X10543991Y-14780460D02*
X10534467Y-14770936D01*
X10772563Y-14589984D02*
X10791610Y-14589984D01*
X10791610Y-14589984D02*
X10810658Y-14599508D01*
X10810658Y-14599508D02*
X10820182Y-14609031D01*
X10820182Y-14609031D02*
X10829705Y-14628079D01*
X10829705Y-14628079D02*
X10839229Y-14666174D01*
X10839229Y-14666174D02*
X10839229Y-14713793D01*
X10839229Y-14713793D02*
X10829705Y-14751888D01*
X10829705Y-14751888D02*
X10820182Y-14770936D01*
X10820182Y-14770936D02*
X10810658Y-14780460D01*
X10810658Y-14780460D02*
X10791610Y-14789984D01*
X10791610Y-14789984D02*
X10772563Y-14789984D01*
X10772563Y-14789984D02*
X10753515Y-14780460D01*
X10753515Y-14780460D02*
X10743991Y-14770936D01*
X10743991Y-14770936D02*
X10734467Y-14751888D01*
X10734467Y-14751888D02*
X10724944Y-14713793D01*
X10724944Y-14713793D02*
X10724944Y-14666174D01*
X10724944Y-14666174D02*
X10734467Y-14628079D01*
X10734467Y-14628079D02*
X10743991Y-14609031D01*
X10743991Y-14609031D02*
X10753515Y-14599508D01*
X10753515Y-14599508D02*
X10772563Y-14589984D01*
X10963039Y-14589984D02*
X10982086Y-14589984D01*
X10982086Y-14589984D02*
X11001134Y-14599508D01*
X11001134Y-14599508D02*
X11010658Y-14609031D01*
X11010658Y-14609031D02*
X11020182Y-14628079D01*
X11020182Y-14628079D02*
X11029705Y-14666174D01*
X11029705Y-14666174D02*
X11029705Y-14713793D01*
X11029705Y-14713793D02*
X11020182Y-14751888D01*
X11020182Y-14751888D02*
X11010658Y-14770936D01*
X11010658Y-14770936D02*
X11001134Y-14780460D01*
X11001134Y-14780460D02*
X10982086Y-14789984D01*
X10982086Y-14789984D02*
X10963039Y-14789984D01*
X10963039Y-14789984D02*
X10943991Y-14780460D01*
X10943991Y-14780460D02*
X10934467Y-14770936D01*
X10934467Y-14770936D02*
X10924944Y-14751888D01*
X10924944Y-14751888D02*
X10915420Y-14713793D01*
X10915420Y-14713793D02*
X10915420Y-14666174D01*
X10915420Y-14666174D02*
X10924944Y-14628079D01*
X10924944Y-14628079D02*
X10934467Y-14609031D01*
X10934467Y-14609031D02*
X10943991Y-14599508D01*
X10943991Y-14599508D02*
X10963039Y-14589984D01*
X11115420Y-14789984D02*
X11115420Y-14656650D01*
X11115420Y-14675698D02*
X11124944Y-14666174D01*
X11124944Y-14666174D02*
X11143991Y-14656650D01*
X11143991Y-14656650D02*
X11172563Y-14656650D01*
X11172563Y-14656650D02*
X11191610Y-14666174D01*
X11191610Y-14666174D02*
X11201134Y-14685222D01*
X11201134Y-14685222D02*
X11201134Y-14789984D01*
X11201134Y-14685222D02*
X11210658Y-14666174D01*
X11210658Y-14666174D02*
X11229705Y-14656650D01*
X11229705Y-14656650D02*
X11258277Y-14656650D01*
X11258277Y-14656650D02*
X11277324Y-14666174D01*
X11277324Y-14666174D02*
X11286848Y-14685222D01*
X11286848Y-14685222D02*
X11286848Y-14789984D01*
X11382086Y-14789984D02*
X11382086Y-14656650D01*
X11382086Y-14675698D02*
X11391610Y-14666174D01*
X11391610Y-14666174D02*
X11410658Y-14656650D01*
X11410658Y-14656650D02*
X11439229Y-14656650D01*
X11439229Y-14656650D02*
X11458277Y-14666174D01*
X11458277Y-14666174D02*
X11467801Y-14685222D01*
X11467801Y-14685222D02*
X11467801Y-14789984D01*
X11467801Y-14685222D02*
X11477324Y-14666174D01*
X11477324Y-14666174D02*
X11496372Y-14656650D01*
X11496372Y-14656650D02*
X11524943Y-14656650D01*
X11524943Y-14656650D02*
X11543991Y-14666174D01*
X11543991Y-14666174D02*
X11553515Y-14685222D01*
X11553515Y-14685222D02*
X11553515Y-14789984D01*
X11943991Y-14580460D02*
X11772563Y-14837603D01*
X12201134Y-14589984D02*
X12220182Y-14589984D01*
X12220182Y-14589984D02*
X12239229Y-14599508D01*
X12239229Y-14599508D02*
X12248753Y-14609031D01*
X12248753Y-14609031D02*
X12258277Y-14628079D01*
X12258277Y-14628079D02*
X12267801Y-14666174D01*
X12267801Y-14666174D02*
X12267801Y-14713793D01*
X12267801Y-14713793D02*
X12258277Y-14751888D01*
X12258277Y-14751888D02*
X12248753Y-14770936D01*
X12248753Y-14770936D02*
X12239229Y-14780460D01*
X12239229Y-14780460D02*
X12220182Y-14789984D01*
X12220182Y-14789984D02*
X12201134Y-14789984D01*
X12201134Y-14789984D02*
X12182086Y-14780460D01*
X12182086Y-14780460D02*
X12172563Y-14770936D01*
X12172563Y-14770936D02*
X12163039Y-14751888D01*
X12163039Y-14751888D02*
X12153515Y-14713793D01*
X12153515Y-14713793D02*
X12153515Y-14666174D01*
X12153515Y-14666174D02*
X12163039Y-14628079D01*
X12163039Y-14628079D02*
X12172563Y-14609031D01*
X12172563Y-14609031D02*
X12182086Y-14599508D01*
X12182086Y-14599508D02*
X12201134Y-14589984D01*
X12353515Y-14770936D02*
X12363039Y-14780460D01*
X12363039Y-14780460D02*
X12353515Y-14789984D01*
X12353515Y-14789984D02*
X12343991Y-14780460D01*
X12343991Y-14780460D02*
X12353515Y-14770936D01*
X12353515Y-14770936D02*
X12353515Y-14789984D01*
X12486848Y-14589984D02*
X12505896Y-14589984D01*
X12505896Y-14589984D02*
X12524944Y-14599508D01*
X12524944Y-14599508D02*
X12534467Y-14609031D01*
X12534467Y-14609031D02*
X12543991Y-14628079D01*
X12543991Y-14628079D02*
X12553515Y-14666174D01*
X12553515Y-14666174D02*
X12553515Y-14713793D01*
X12553515Y-14713793D02*
X12543991Y-14751888D01*
X12543991Y-14751888D02*
X12534467Y-14770936D01*
X12534467Y-14770936D02*
X12524944Y-14780460D01*
X12524944Y-14780460D02*
X12505896Y-14789984D01*
X12505896Y-14789984D02*
X12486848Y-14789984D01*
X12486848Y-14789984D02*
X12467801Y-14780460D01*
X12467801Y-14780460D02*
X12458277Y-14770936D01*
X12458277Y-14770936D02*
X12448753Y-14751888D01*
X12448753Y-14751888D02*
X12439229Y-14713793D01*
X12439229Y-14713793D02*
X12439229Y-14666174D01*
X12439229Y-14666174D02*
X12448753Y-14628079D01*
X12448753Y-14628079D02*
X12458277Y-14609031D01*
X12458277Y-14609031D02*
X12467801Y-14599508D01*
X12467801Y-14599508D02*
X12486848Y-14589984D01*
X12734467Y-14589984D02*
X12639229Y-14589984D01*
X12639229Y-14589984D02*
X12629706Y-14685222D01*
X12629706Y-14685222D02*
X12639229Y-14675698D01*
X12639229Y-14675698D02*
X12658277Y-14666174D01*
X12658277Y-14666174D02*
X12705896Y-14666174D01*
X12705896Y-14666174D02*
X12724944Y-14675698D01*
X12724944Y-14675698D02*
X12734467Y-14685222D01*
X12734467Y-14685222D02*
X12743991Y-14704269D01*
X12743991Y-14704269D02*
X12743991Y-14751888D01*
X12743991Y-14751888D02*
X12734467Y-14770936D01*
X12734467Y-14770936D02*
X12724944Y-14780460D01*
X12724944Y-14780460D02*
X12705896Y-14789984D01*
X12705896Y-14789984D02*
X12658277Y-14789984D01*
X12658277Y-14789984D02*
X12639229Y-14780460D01*
X12639229Y-14780460D02*
X12629706Y-14770936D01*
X12839229Y-14789984D02*
X12877325Y-14789984D01*
X12877325Y-14789984D02*
X12896372Y-14780460D01*
X12896372Y-14780460D02*
X12905896Y-14770936D01*
X12905896Y-14770936D02*
X12924944Y-14742365D01*
X12924944Y-14742365D02*
X12934467Y-14704269D01*
X12934467Y-14704269D02*
X12934467Y-14628079D01*
X12934467Y-14628079D02*
X12924944Y-14609031D01*
X12924944Y-14609031D02*
X12915420Y-14599508D01*
X12915420Y-14599508D02*
X12896372Y-14589984D01*
X12896372Y-14589984D02*
X12858277Y-14589984D01*
X12858277Y-14589984D02*
X12839229Y-14599508D01*
X12839229Y-14599508D02*
X12829706Y-14609031D01*
X12829706Y-14609031D02*
X12820182Y-14628079D01*
X12820182Y-14628079D02*
X12820182Y-14675698D01*
X12820182Y-14675698D02*
X12829706Y-14694746D01*
X12829706Y-14694746D02*
X12839229Y-14704269D01*
X12839229Y-14704269D02*
X12858277Y-14713793D01*
X12858277Y-14713793D02*
X12896372Y-14713793D01*
X12896372Y-14713793D02*
X12915420Y-14704269D01*
X12915420Y-14704269D02*
X12924944Y-14694746D01*
X12924944Y-14694746D02*
X12934467Y-14675698D01*
X13124944Y-14789984D02*
X13010658Y-14789984D01*
X13067801Y-14789984D02*
X13067801Y-14589984D01*
X13067801Y-14589984D02*
X13048753Y-14618555D01*
X13048753Y-14618555D02*
X13029706Y-14637603D01*
X13029706Y-14637603D02*
X13010658Y-14647127D01*
X13201134Y-14589984D02*
X13201134Y-14628079D01*
X13277325Y-14589984D02*
X13277325Y-14628079D01*
X13572563Y-14866174D02*
X13563039Y-14856650D01*
X13563039Y-14856650D02*
X13543991Y-14828079D01*
X13543991Y-14828079D02*
X13534468Y-14809031D01*
X13534468Y-14809031D02*
X13524944Y-14780460D01*
X13524944Y-14780460D02*
X13515420Y-14732841D01*
X13515420Y-14732841D02*
X13515420Y-14694746D01*
X13515420Y-14694746D02*
X13524944Y-14647127D01*
X13524944Y-14647127D02*
X13534468Y-14618555D01*
X13534468Y-14618555D02*
X13543991Y-14599508D01*
X13543991Y-14599508D02*
X13563039Y-14570936D01*
X13563039Y-14570936D02*
X13572563Y-14561412D01*
X13734468Y-14589984D02*
X13696372Y-14589984D01*
X13696372Y-14589984D02*
X13677325Y-14599508D01*
X13677325Y-14599508D02*
X13667801Y-14609031D01*
X13667801Y-14609031D02*
X13648753Y-14637603D01*
X13648753Y-14637603D02*
X13639229Y-14675698D01*
X13639229Y-14675698D02*
X13639229Y-14751888D01*
X13639229Y-14751888D02*
X13648753Y-14770936D01*
X13648753Y-14770936D02*
X13658277Y-14780460D01*
X13658277Y-14780460D02*
X13677325Y-14789984D01*
X13677325Y-14789984D02*
X13715420Y-14789984D01*
X13715420Y-14789984D02*
X13734468Y-14780460D01*
X13734468Y-14780460D02*
X13743991Y-14770936D01*
X13743991Y-14770936D02*
X13753515Y-14751888D01*
X13753515Y-14751888D02*
X13753515Y-14704269D01*
X13753515Y-14704269D02*
X13743991Y-14685222D01*
X13743991Y-14685222D02*
X13734468Y-14675698D01*
X13734468Y-14675698D02*
X13715420Y-14666174D01*
X13715420Y-14666174D02*
X13677325Y-14666174D01*
X13677325Y-14666174D02*
X13658277Y-14675698D01*
X13658277Y-14675698D02*
X13648753Y-14685222D01*
X13648753Y-14685222D02*
X13639229Y-14704269D01*
X13991610Y-14789984D02*
X13991610Y-14589984D01*
X14077325Y-14789984D02*
X14077325Y-14685222D01*
X14077325Y-14685222D02*
X14067801Y-14666174D01*
X14067801Y-14666174D02*
X14048753Y-14656650D01*
X14048753Y-14656650D02*
X14020182Y-14656650D01*
X14020182Y-14656650D02*
X14001134Y-14666174D01*
X14001134Y-14666174D02*
X13991610Y-14675698D01*
X14201134Y-14789984D02*
X14182087Y-14780460D01*
X14182087Y-14780460D02*
X14172563Y-14770936D01*
X14172563Y-14770936D02*
X14163039Y-14751888D01*
X14163039Y-14751888D02*
X14163039Y-14694746D01*
X14163039Y-14694746D02*
X14172563Y-14675698D01*
X14172563Y-14675698D02*
X14182087Y-14666174D01*
X14182087Y-14666174D02*
X14201134Y-14656650D01*
X14201134Y-14656650D02*
X14229706Y-14656650D01*
X14229706Y-14656650D02*
X14248753Y-14666174D01*
X14248753Y-14666174D02*
X14258277Y-14675698D01*
X14258277Y-14675698D02*
X14267801Y-14694746D01*
X14267801Y-14694746D02*
X14267801Y-14751888D01*
X14267801Y-14751888D02*
X14258277Y-14770936D01*
X14258277Y-14770936D02*
X14248753Y-14780460D01*
X14248753Y-14780460D02*
X14229706Y-14789984D01*
X14229706Y-14789984D02*
X14201134Y-14789984D01*
X14382087Y-14789984D02*
X14363039Y-14780460D01*
X14363039Y-14780460D02*
X14353515Y-14761412D01*
X14353515Y-14761412D02*
X14353515Y-14589984D01*
X14534468Y-14780460D02*
X14515420Y-14789984D01*
X14515420Y-14789984D02*
X14477325Y-14789984D01*
X14477325Y-14789984D02*
X14458277Y-14780460D01*
X14458277Y-14780460D02*
X14448753Y-14761412D01*
X14448753Y-14761412D02*
X14448753Y-14685222D01*
X14448753Y-14685222D02*
X14458277Y-14666174D01*
X14458277Y-14666174D02*
X14477325Y-14656650D01*
X14477325Y-14656650D02*
X14515420Y-14656650D01*
X14515420Y-14656650D02*
X14534468Y-14666174D01*
X14534468Y-14666174D02*
X14543991Y-14685222D01*
X14543991Y-14685222D02*
X14543991Y-14704269D01*
X14543991Y-14704269D02*
X14448753Y-14723317D01*
X14620182Y-14780460D02*
X14639230Y-14789984D01*
X14639230Y-14789984D02*
X14677325Y-14789984D01*
X14677325Y-14789984D02*
X14696372Y-14780460D01*
X14696372Y-14780460D02*
X14705896Y-14761412D01*
X14705896Y-14761412D02*
X14705896Y-14751888D01*
X14705896Y-14751888D02*
X14696372Y-14732841D01*
X14696372Y-14732841D02*
X14677325Y-14723317D01*
X14677325Y-14723317D02*
X14648753Y-14723317D01*
X14648753Y-14723317D02*
X14629706Y-14713793D01*
X14629706Y-14713793D02*
X14620182Y-14694746D01*
X14620182Y-14694746D02*
X14620182Y-14685222D01*
X14620182Y-14685222D02*
X14629706Y-14666174D01*
X14629706Y-14666174D02*
X14648753Y-14656650D01*
X14648753Y-14656650D02*
X14677325Y-14656650D01*
X14677325Y-14656650D02*
X14696372Y-14666174D01*
X14943992Y-14713793D02*
X15096373Y-14713793D01*
X15020182Y-14789984D02*
X15020182Y-14637603D01*
X15334468Y-14609031D02*
X15343992Y-14599508D01*
X15343992Y-14599508D02*
X15363039Y-14589984D01*
X15363039Y-14589984D02*
X15410658Y-14589984D01*
X15410658Y-14589984D02*
X15429706Y-14599508D01*
X15429706Y-14599508D02*
X15439230Y-14609031D01*
X15439230Y-14609031D02*
X15448753Y-14628079D01*
X15448753Y-14628079D02*
X15448753Y-14647127D01*
X15448753Y-14647127D02*
X15439230Y-14675698D01*
X15439230Y-14675698D02*
X15324944Y-14789984D01*
X15324944Y-14789984D02*
X15448753Y-14789984D01*
X15677325Y-14780460D02*
X15696373Y-14789984D01*
X15696373Y-14789984D02*
X15734468Y-14789984D01*
X15734468Y-14789984D02*
X15753515Y-14780460D01*
X15753515Y-14780460D02*
X15763039Y-14761412D01*
X15763039Y-14761412D02*
X15763039Y-14751888D01*
X15763039Y-14751888D02*
X15753515Y-14732841D01*
X15753515Y-14732841D02*
X15734468Y-14723317D01*
X15734468Y-14723317D02*
X15705896Y-14723317D01*
X15705896Y-14723317D02*
X15686849Y-14713793D01*
X15686849Y-14713793D02*
X15677325Y-14694746D01*
X15677325Y-14694746D02*
X15677325Y-14685222D01*
X15677325Y-14685222D02*
X15686849Y-14666174D01*
X15686849Y-14666174D02*
X15705896Y-14656650D01*
X15705896Y-14656650D02*
X15734468Y-14656650D01*
X15734468Y-14656650D02*
X15753515Y-14666174D01*
X15877325Y-14789984D02*
X15858277Y-14780460D01*
X15858277Y-14780460D02*
X15848754Y-14761412D01*
X15848754Y-14761412D02*
X15848754Y-14589984D01*
X15982087Y-14789984D02*
X15963039Y-14780460D01*
X15963039Y-14780460D02*
X15953515Y-14770936D01*
X15953515Y-14770936D02*
X15943992Y-14751888D01*
X15943992Y-14751888D02*
X15943992Y-14694746D01*
X15943992Y-14694746D02*
X15953515Y-14675698D01*
X15953515Y-14675698D02*
X15963039Y-14666174D01*
X15963039Y-14666174D02*
X15982087Y-14656650D01*
X15982087Y-14656650D02*
X16010658Y-14656650D01*
X16010658Y-14656650D02*
X16029706Y-14666174D01*
X16029706Y-14666174D02*
X16039230Y-14675698D01*
X16039230Y-14675698D02*
X16048754Y-14694746D01*
X16048754Y-14694746D02*
X16048754Y-14751888D01*
X16048754Y-14751888D02*
X16039230Y-14770936D01*
X16039230Y-14770936D02*
X16029706Y-14780460D01*
X16029706Y-14780460D02*
X16010658Y-14789984D01*
X16010658Y-14789984D02*
X15982087Y-14789984D01*
X16105896Y-14656650D02*
X16182087Y-14656650D01*
X16134468Y-14589984D02*
X16134468Y-14761412D01*
X16134468Y-14761412D02*
X16143992Y-14780460D01*
X16143992Y-14780460D02*
X16163039Y-14789984D01*
X16163039Y-14789984D02*
X16182087Y-14789984D01*
X16239230Y-14780460D02*
X16258277Y-14789984D01*
X16258277Y-14789984D02*
X16296373Y-14789984D01*
X16296373Y-14789984D02*
X16315420Y-14780460D01*
X16315420Y-14780460D02*
X16324944Y-14761412D01*
X16324944Y-14761412D02*
X16324944Y-14751888D01*
X16324944Y-14751888D02*
X16315420Y-14732841D01*
X16315420Y-14732841D02*
X16296373Y-14723317D01*
X16296373Y-14723317D02*
X16267801Y-14723317D01*
X16267801Y-14723317D02*
X16248754Y-14713793D01*
X16248754Y-14713793D02*
X16239230Y-14694746D01*
X16239230Y-14694746D02*
X16239230Y-14685222D01*
X16239230Y-14685222D02*
X16248754Y-14666174D01*
X16248754Y-14666174D02*
X16267801Y-14656650D01*
X16267801Y-14656650D02*
X16296373Y-14656650D01*
X16296373Y-14656650D02*
X16315420Y-14666174D01*
X16391611Y-14866174D02*
X16401135Y-14856650D01*
X16401135Y-14856650D02*
X16420182Y-14828079D01*
X16420182Y-14828079D02*
X16429706Y-14809031D01*
X16429706Y-14809031D02*
X16439230Y-14780460D01*
X16439230Y-14780460D02*
X16448754Y-14732841D01*
X16448754Y-14732841D02*
X16448754Y-14694746D01*
X16448754Y-14694746D02*
X16439230Y-14647127D01*
X16439230Y-14647127D02*
X16429706Y-14618555D01*
X16429706Y-14618555D02*
X16420182Y-14599508D01*
X16420182Y-14599508D02*
X16401135Y-14570936D01*
X16401135Y-14570936D02*
X16391611Y-14561412D01*
M02*
