%TF.GenerationSoftware,KiCad,Pcbnew,8.0.8*%
%TF.CreationDate,2026-08-26T23:34:07-04:00*%
%TF.ProjectId,board,626f6172-642e-46b6-9963-61645f706362,1.0*%
%TF.SameCoordinates,Original*%
%TF.FileFunction,Soldermask,Top*%
%TF.FilePolarity,Negative*%
%FSLAX46Y46*%
G04 Gerber Fmt 4.6, Leading zero omitted, Abs format (unit mm)*
G04 Created by KiCad (PCBNEW 8.0.8) date 2026-08-26 23:34:07*
%MOMM*%
%LPD*%
G01*
G04 APERTURE LIST*
%ADD10R,1.700000X1.700000*%
%ADD11R,2.000000X2.000000*%
%ADD12C,2.000000*%
%ADD13R,3.200000X2.000000*%
%ADD14C,1.700000*%
%ADD15C,4.000000*%
%ADD16C,2.200000*%
%ADD17C,1.000000*%
%ADD18R,1.000000X1.000000*%
%ADD19R,0.900000X1.500000*%
%ADD20O,1.700000X1.700000*%
%ADD21C,0.650000*%
%ADD22O,1.000000X1.600000*%
%ADD23O,1.000000X2.100000*%
G04 APERTURE END LIST*
D10*
%TO.C,J8*%
X143750000Y-92500000D03*
%TD*%
D11*
%TO.C,SW6*%
X154250000Y-64000000D03*
D12*
X154250000Y-59000000D03*
X154250000Y-61500000D03*
D13*
X146750000Y-67100000D03*
X146750000Y-55900000D03*
D12*
X139750000Y-59000000D03*
X139750000Y-64000000D03*
%TD*%
D14*
%TO.C,SW3*%
X114580000Y-115500000D03*
D15*
X109500000Y-115500000D03*
D14*
X104420000Y-115500000D03*
D16*
X106960000Y-120580000D03*
X113310000Y-118040000D03*
%TD*%
D17*
%TO.C,J9*%
X106000000Y-86000000D03*
%TD*%
D18*
%TO.C,J13*%
X113750000Y-60750000D03*
%TD*%
D17*
%TO.C,J6*%
X131750000Y-75250000D03*
%TD*%
D18*
%TO.C,J7*%
X136750000Y-60750000D03*
%TD*%
D17*
%TO.C,J18*%
X131750000Y-73000000D03*
%TD*%
%TO.C,J19*%
X129500000Y-73000000D03*
%TD*%
D10*
%TO.C,J16*%
X151250000Y-92500000D03*
%TD*%
D19*
%TO.C,D15*%
X112350000Y-97700000D03*
X115650000Y-97700000D03*
X115650000Y-92800000D03*
X112350000Y-92800000D03*
%TD*%
D17*
%TO.C,J17*%
X129500000Y-75250000D03*
%TD*%
D10*
%TO.C,J11*%
X101500000Y-95390000D03*
D20*
X101500000Y-92850000D03*
X101500000Y-90310000D03*
X101500000Y-87770000D03*
X101500000Y-85230000D03*
X101500000Y-82690000D03*
X101500000Y-80150000D03*
X101500000Y-77610000D03*
%TD*%
D10*
%TO.C,J15*%
X147500000Y-92500000D03*
%TD*%
D19*
%TO.C,D14*%
X106600000Y-97700000D03*
X109900000Y-97700000D03*
X109900000Y-92800000D03*
X106600000Y-92800000D03*
%TD*%
%TO.C,D16*%
X118100000Y-97700000D03*
X121400000Y-97700000D03*
X121400000Y-92800000D03*
X118100000Y-92800000D03*
%TD*%
D14*
%TO.C,SW4*%
X133080000Y-115500000D03*
D15*
X128000000Y-115500000D03*
D14*
X122920000Y-115500000D03*
D16*
X125460000Y-120580000D03*
X131810000Y-118040000D03*
%TD*%
D14*
%TO.C,SW5*%
X151580000Y-115500000D03*
D15*
X146500000Y-115500000D03*
D14*
X141420000Y-115500000D03*
D16*
X143960000Y-120580000D03*
X150310000Y-118040000D03*
%TD*%
D17*
%TO.C,J22*%
X108750000Y-86000000D03*
%TD*%
D10*
%TO.C,J10*%
X101600000Y-64800000D03*
D20*
X101600000Y-62260000D03*
X101600000Y-59720000D03*
X101600000Y-57180000D03*
%TD*%
D21*
%TO.C,J3*%
X118109998Y-56850000D03*
X123889998Y-56850000D03*
D22*
X116679998Y-53200000D03*
D23*
X116679998Y-57380000D03*
D22*
X125319998Y-53200000D03*
D23*
X125319998Y-57380000D03*
%TD*%
D14*
%TO.C,J12*%
X113250000Y-107250000D03*
X106250000Y-107250000D03*
%TD*%
D21*
%TO.C,J1*%
X129609996Y-56850000D03*
X135389996Y-56850000D03*
D22*
X128179996Y-53200000D03*
D23*
X128179996Y-57380000D03*
D22*
X136819996Y-53200000D03*
D23*
X136819996Y-57380000D03*
%TD*%
D21*
%TO.C,J2*%
X106609998Y-56850000D03*
X112389998Y-56850000D03*
D22*
X105179998Y-53200000D03*
D23*
X105179998Y-57380000D03*
D22*
X113819998Y-53200000D03*
D23*
X113819998Y-57380000D03*
%TD*%
M02*
