M48
; DRILL file {KiCad 8.0.8} date 2026-08-26T23:34:54-0400
; FORMAT={-:-/ absolute / metric / decimal}
; #@! TF.CreationDate,2026-08-26T23:34:54-04:00
; #@! TF.GenerationSoftware,Kicad,Pcbnew,8.0.8
; #@! TF.FileFunction,Plated,1,2,PTH
FMAT,2
METRIC
; #@! TA.AperFunction,Plated,PTH,ComponentDrill
T1C0.200
; #@! TA.AperFunction,Plated,PTH,ViaDrill
T2C0.300
; #@! TA.AperFunction,Plated,PTH,ComponentDrill
T3C0.600
; #@! TA.AperFunction,Plated,PTH,ComponentDrill
T4C1.000
; #@! TA.AperFunction,Plated,PTH,ComponentDrill
T5C1.500
%
G90
G05
T1
X127.7Y-91.95
X127.7Y-93.05
X128.8Y-91.95
X128.8Y-93.05
T2
X101.5Y-68.0
X101.5Y-97.25
X102.0Y-107.25
X103.0Y-68.0
X103.5Y-81.25
X103.5Y-94.5
X103.523Y-84.6
X104.0Y-107.25
X104.25Y-62.6
X104.75Y-59.0
X105.5Y-92.8
X105.75Y-59.75
X105.75Y-65.25
X106.0Y-74.75
X106.5Y-91.25
X107.25Y-66.5
X107.25Y-104.5
X107.5Y-74.75
X107.5Y-80.623
X108.5Y-66.5
X109.0Y-79.5
X109.0Y-107.25
X109.233Y-61.4
X109.5Y-125.0
X109.75Y-83.0
X110.125Y-74.125
X110.75Y-107.25
X111.0Y-66.25
X111.0Y-67.75
X111.0Y-84.5
X111.25Y-82.75
X111.5Y-76.5
X112.0Y-62.0
X112.25Y-83.0
X112.5Y-67.75
X113.0Y-66.5
X113.0Y-85.45
X113.0Y-86.25
X114.0Y-63.25
X114.0Y-64.25
X114.0Y-69.25
X114.25Y-59.0
X114.75Y-73.0
X114.75Y-91.0
X115.125Y-59.875
X115.463Y-83.018
X115.75Y-107.25
X116.25Y-59.0
X116.25Y-68.5
X116.75Y-67.25
X117.125Y-59.875
X117.55Y-72.3
X117.55Y-76.567
X117.992Y-83.265
X118.0Y-69.75
X118.799Y-70.85
X118.943Y-82.665
X119.084Y-78.294
X119.5Y-86.0
X119.55Y-83.265
X120.4Y-83.25
X120.45Y-86.0
X121.25Y-86.0
X121.75Y-71.25
X122.05Y-86.0
X122.325Y-80.617
X122.592Y-78.342
X122.75Y-74.4
X122.75Y-94.75
X122.75Y-96.0
X122.75Y-97.25
X122.85Y-86.0
X123.4Y-99.25
X123.5Y-82.65
X124.25Y-76.5
X124.5Y-69.75
X124.5Y-86.5
X124.5Y-88.75
X124.5Y-91.25
X125.0Y-60.25
X125.0Y-66.25
X125.0Y-73.5
X125.0Y-75.5
X125.0Y-94.75
X125.0Y-96.0
X125.0Y-97.25
X125.247Y-92.491
X125.25Y-79.402
X125.25Y-78.602
X125.5Y-84.0
X125.657Y-93.178
X125.75Y-59.0
X126.1Y-87.25
X126.192Y-97.29
X126.25Y-66.25
X126.25Y-91.0
X126.25Y-98.5
X126.375Y-77.625
X126.5Y-82.25
X127.0Y-86.25
X127.049Y-79.701
X127.5Y-72.0
X127.5Y-73.0
X127.7Y-66.0
X127.7Y-68.0
X127.75Y-59.0
X128.0Y-80.5
X128.0Y-125.0
X128.5Y-72.0
X128.5Y-98.25
X128.95Y-87.75
X129.0Y-59.75
X129.0Y-79.5
X129.75Y-85.75
X129.75Y-87.75
X130.0Y-98.25
X130.75Y-80.5
X131.0Y-65.5
X131.0Y-67.0
X131.0Y-68.5
X131.0Y-87.75
X131.0Y-88.75
X131.175Y-62.487
X131.5Y-91.25
X131.733Y-63.517
X132.0Y-82.25
X132.0Y-93.5
X132.25Y-88.75
X133.0Y-74.5
X133.0Y-94.75
X133.25Y-82.25
X133.5Y-86.5
X134.0Y-97.0
X134.0Y-99.0
X134.0Y-102.0
X134.75Y-70.5
X134.75Y-72.0
X134.75Y-73.75
X135.0Y-65.0
X135.0Y-67.25
X135.25Y-60.25
X135.5Y-99.0
X135.5Y-102.0
X135.887Y-78.4
X135.887Y-80.4
X136.0Y-116.25
X136.0Y-119.75
X136.487Y-70.5
X136.5Y-67.25
X137.0Y-99.0
X137.0Y-102.0
X137.25Y-59.0
X137.25Y-115.25
X137.25Y-118.75
X137.5Y-69.5
X137.5Y-78.25
X137.79Y-82.546
X138.0Y-95.5
X138.5Y-71.75
X138.5Y-114.25
X138.5Y-117.75
X139.063Y-85.327
X139.125Y-86.125
X139.23Y-83.463
X139.271Y-84.271
X139.5Y-72.75
X139.75Y-86.75
X139.75Y-107.55
X141.0Y-70.5
X141.25Y-56.25
X141.25Y-66.75
X141.25Y-89.0
X141.463Y-78.5
X141.5Y-83.25
X142.25Y-68.75
X142.25Y-90.5
X142.295Y-83.339
X142.833Y-72.417
X143.25Y-68.75
X143.549Y-72.774
X143.55Y-76.53
X143.576Y-82.826
X143.75Y-100.75
X143.95Y-107.55
X144.75Y-78.5
X144.75Y-105.0
X145.652Y-78.3
X146.05Y-80.467
X146.05Y-79.544
X146.452Y-78.301
X146.46Y-81.154
X146.5Y-110.0
X146.5Y-125.0
X147.15Y-77.324
X147.25Y-84.25
X147.5Y-100.25
X147.75Y-71.0
X148.0Y-108.5
X148.0Y-110.0
X148.33Y-74.539
X148.5Y-86.75
X148.5Y-88.0
X148.65Y-76.35
X149.5Y-107.0
X149.5Y-108.5
X149.5Y-110.0
X150.125Y-98.5
X150.165Y-75.872
X150.178Y-75.01
X150.25Y-80.5
X150.34Y-76.652
X150.505Y-74.28
X151.25Y-90.25
X151.25Y-94.75
X151.5Y-61.5
X151.54Y-74.25
X151.54Y-76.65
X152.0Y-70.0
X152.0Y-72.75
X152.25Y-56.25
X152.25Y-66.75
X152.625Y-79.875
X152.75Y-83.0
X152.75Y-84.75
X153.5Y-92.0
X153.5Y-96.25
X154.75Y-73.75
X155.2Y-60.5
X155.2Y-99.75
T4
X101.5Y-77.61
X101.5Y-80.15
X101.5Y-82.69
X101.5Y-85.23
X101.5Y-87.77
X101.5Y-90.31
X101.5Y-92.85
X101.5Y-95.39
X101.6Y-57.18
X101.6Y-59.72
X101.6Y-62.26
X101.6Y-64.8
X139.75Y-59.0
X139.75Y-64.0
X143.75Y-92.5
X147.5Y-92.5
X151.25Y-92.5
X154.25Y-59.0
X154.25Y-61.5
X154.25Y-64.0
T5
X106.96Y-120.58
X113.31Y-118.04
X125.46Y-120.58
X131.81Y-118.04
X143.96Y-120.58
X150.31Y-118.04
T3
X105.18Y-52.9G85X105.18Y-53.5
G05
X105.18Y-56.83G85X105.18Y-57.93
G05
X113.82Y-52.9G85X113.82Y-53.5
G05
X113.82Y-56.83G85X113.82Y-57.93
G05
X116.68Y-52.9G85X116.68Y-53.5
G05
X116.68Y-56.83G85X116.68Y-57.93
G05
X125.32Y-52.9G85X125.32Y-53.5
G05
X125.32Y-56.83G85X125.32Y-57.93
G05
X128.18Y-52.9G85X128.18Y-53.5
G05
X128.18Y-56.83G85X128.18Y-57.93
G05
X136.82Y-52.9G85X136.82Y-53.5
G05
X136.82Y-56.83G85X136.82Y-57.93
G05
T5
X147.4Y-55.9G85X146.1Y-55.9
G05
X147.4Y-67.1G85X146.1Y-67.1
G05
M30
